M48
;DRILL file {KiCad 4.0.7} date 01/21/18 20:58:32
;FORMAT={-:-/ absolute / inch / decimal}
FMAT,2
INCH,TZ
T1C0.016
T2C0.022
T3C0.024
T4C0.026
T5C0.031
T6C0.033
T7C0.039
T8C0.031
%
G90
G05
M72
T1
X3.9587Y-1.8996
X4.024Y-1.5952
X4.1024Y-1.9152
X4.2087Y-1.8898
X4.2096Y-1.8896
X4.2224Y-1.7464
X4.2568Y-1.4664
X4.2971Y-1.8891
X4.4274Y-1.5546
X4.4462Y-1.617
X4.4484Y-1.8172
X4.467Y-1.5342
X4.4838Y-1.647
X4.4946Y-1.7083
X4.5228Y-1.9296
X4.5793Y-1.5356
X4.6339Y-1.9685
X4.6422Y-1.4748
X4.6884Y-1.5606
X4.7616Y-1.692
X4.7632Y-1.7744
X4.8717Y-1.6407
X4.9008Y-1.512
X4.9212Y-1.4603
X4.9433Y-1.8563
X5.0064Y-1.5774
X5.0076Y-1.797
X5.0104Y-1.8432
X5.0567Y-1.5213
X5.133Y-1.6308
X5.2968Y-1.5976
X5.3328Y-1.4912
X5.348Y-2.0056
X5.372Y-1.5945
X5.4472Y-2.0168
X5.4724Y-1.6988
X5.5008Y-1.8846
X5.5512Y-2.0089
X5.5521Y-1.863
X5.556Y-1.587
X5.563Y-1.6988
X5.5935Y-1.5885
X5.6268Y-1.8392
X5.7134Y-1.5719
X5.7185Y-1.748
X5.7185Y-1.7795
X5.7185Y-1.811
X5.7185Y-1.8425
X5.7805Y-1.7391
X5.8064Y-1.9026
X5.8368Y-1.77
X5.8386Y-1.565
X5.8406Y-1.67
X5.8465Y-1.8209
X5.9016Y-1.565
X5.9252Y-1.8209
X5.9384Y-1.7328
X5.9646Y-1.565
X5.991Y-1.632
X5.9936Y-1.8448
X5.9952Y-1.8108
X5.9961Y-1.565
X6.0161Y-1.7163
X6.048Y-2.0079
X6.1197Y-1.8198
X6.1232Y-1.7826
X6.1524Y-1.707
X6.1569Y-1.5384
X6.188Y-1.7064
X6.1908Y-1.6326
X6.2082Y-1.9098
X6.2166Y-1.5738
X6.2205Y-1.4193
X6.2464Y-1.5552
X6.2811Y-1.5458
X6.3178Y-1.8218
X6.3186Y-1.6932
X6.33Y-1.914
X6.378Y-1.4976
X6.3948Y-1.6002
X6.3976Y-2.0079
X6.432Y-1.8396
X6.4596Y-1.497
X6.4824Y-1.8396
X6.5334Y-1.494
X6.6317Y-1.5492
X6.6498Y-1.4574
X6.7296Y-1.668
X6.756Y-1.6352
X6.8264Y-1.556
X6.9568Y-1.6976
X7.0669Y-1.811
X7.072Y-1.7574
X7.0728Y-1.6571
X7.3004Y-1.6538
X7.3031Y-1.7717
T3
X3.9567Y-1.4961
X4.0067Y-1.4461
X4.0567Y-1.4961
T4
X3.9567Y-1.9882
X4.0067Y-1.9882
X4.0567Y-1.9882
X4.1535Y-1.9882
X4.2035Y-1.9882
X4.2535Y-1.9882
T5
X6.7323Y-1.9291
X6.737Y-1.5354
X6.9244Y-1.9291
X6.9291Y-1.5354
T7
X5.748Y-1.4567
X5.748Y-2.0079
X5.848Y-1.4567
X5.848Y-2.0079
X5.948Y-1.4567
X5.948Y-2.0079
X6.048Y-2.0079
X6.148Y-2.0079
X6.248Y-2.0079
T8
X7.2126Y-1.6339
X7.2126Y-1.8307
T2
X7.3081Y-1.5797G85X7.3337Y-1.5797
G05
X7.3081Y-1.8848G85X7.3337Y-1.8848
G05
T6
X7.1604Y-1.5856G85X7.1821Y-1.5856
G05
X7.1604Y-1.8789G85X7.1821Y-1.8789
G05
T0
M30
