G04 #@! TF.FileFunction,Other,Fab,Top*
%FSLAX46Y46*%
G04 Gerber Fmt 4.6, Leading zero omitted, Abs format (unit mm)*
G04 Created by KiCad (PCBNEW 4.0.7) date 01/21/18 20:58:23*
%MOMM*%
%LPD*%
G01*
G04 APERTURE LIST*
%ADD10C,0.100000*%
%ADD11C,0.150000*%
%ADD12C,0.075000*%
%ADD13C,0.120000*%
G04 APERTURE END LIST*
D10*
X137880000Y-49250000D02*
X139120000Y-49250000D01*
X137880000Y-51250000D02*
X137880000Y-49250000D01*
X139120000Y-51250000D02*
X137880000Y-51250000D01*
X139120000Y-49250000D02*
X139120000Y-51250000D01*
X142600000Y-45500000D02*
X139400000Y-45500000D01*
X139400000Y-45500000D02*
X139400000Y-51500000D01*
X139400000Y-51500000D02*
X142600000Y-51500000D01*
X142600000Y-51500000D02*
X142600000Y-45500000D01*
X142600000Y-46100000D02*
X139400000Y-46100000D01*
X142600000Y-46400000D02*
X139400000Y-46400000D01*
X138750000Y-46630000D02*
X138750000Y-47870000D01*
X136750000Y-46630000D02*
X138750000Y-46630000D01*
X136750000Y-47870000D02*
X136750000Y-46630000D01*
X138750000Y-47870000D02*
X136750000Y-47870000D01*
X190380000Y-48500000D02*
X191620000Y-48500000D01*
X190380000Y-50500000D02*
X190380000Y-48500000D01*
X191620000Y-50500000D02*
X190380000Y-50500000D01*
X191620000Y-48500000D02*
X191620000Y-50500000D01*
X158500000Y-43620000D02*
X158500000Y-42380000D01*
X160500000Y-43620000D02*
X158500000Y-43620000D01*
X160500000Y-42380000D02*
X160500000Y-43620000D01*
X158500000Y-42380000D02*
X160500000Y-42380000D01*
X131250000Y-44880000D02*
X131250000Y-46120000D01*
X129250000Y-44880000D02*
X131250000Y-44880000D01*
X129250000Y-46120000D02*
X129250000Y-44880000D01*
X131250000Y-46120000D02*
X129250000Y-46120000D01*
X138750000Y-44880000D02*
X138750000Y-46120000D01*
X136750000Y-44880000D02*
X138750000Y-44880000D01*
X136750000Y-46120000D02*
X136750000Y-44880000D01*
X138750000Y-46120000D02*
X136750000Y-46120000D01*
X160500000Y-45880000D02*
X160500000Y-47120000D01*
X158500000Y-45880000D02*
X160500000Y-45880000D01*
X158500000Y-47120000D02*
X158500000Y-45880000D01*
X160500000Y-47120000D02*
X158500000Y-47120000D01*
X163746000Y-50746000D02*
X163746000Y-51254000D01*
X164127000Y-51000000D02*
X164381000Y-51000000D01*
X163746000Y-51000000D02*
X163492000Y-51000000D01*
X164127000Y-51254000D02*
X163746000Y-51000000D01*
X164127000Y-50746000D02*
X164127000Y-51254000D01*
X163746000Y-51000000D02*
X164127000Y-50746000D01*
X162300000Y-51950000D02*
X162300000Y-50050000D01*
X165700000Y-51950000D02*
X162300000Y-51950000D01*
X165700000Y-50050000D02*
X165700000Y-51950000D01*
X162300000Y-50050000D02*
X165700000Y-50050000D01*
D11*
X181750000Y-48000000D02*
X187150000Y-48000000D01*
X187150000Y-48000000D02*
X187150000Y-47700000D01*
X187150000Y-47700000D02*
X188350000Y-47700000D01*
X188350000Y-47700000D02*
X188350000Y-40300000D01*
X188350000Y-40300000D02*
X187150000Y-40300000D01*
X187150000Y-40300000D02*
X187150000Y-40000000D01*
X187150000Y-40000000D02*
X181750000Y-40000000D01*
X181750000Y-40000000D02*
X181750000Y-48000000D01*
X187750000Y-46700000D02*
X187750000Y-41300000D01*
X181275000Y-45075000D02*
X181450000Y-45300000D01*
X181450000Y-45300000D02*
X181275000Y-45525000D01*
X181275000Y-45525000D02*
X181050000Y-45525000D01*
X181050000Y-45525000D02*
X181050000Y-45075000D01*
X181050000Y-45075000D02*
X181275000Y-45075000D01*
D10*
X144730000Y-37635000D02*
X144730000Y-35730000D01*
X144730000Y-35730000D02*
X152350000Y-35730000D01*
X152350000Y-35730000D02*
X152350000Y-38270000D01*
X152350000Y-38270000D02*
X145365000Y-38270000D01*
X145365000Y-38270000D02*
X144730000Y-37635000D01*
X104865000Y-51025000D02*
X104865000Y-49450000D01*
X104865000Y-49450000D02*
X108675000Y-49450000D01*
X108675000Y-49450000D02*
X108675000Y-51550000D01*
X108675000Y-51550000D02*
X105390000Y-51550000D01*
X105390000Y-51550000D02*
X104865000Y-51025000D01*
X99865000Y-51025000D02*
X99865000Y-49450000D01*
X99865000Y-49450000D02*
X103675000Y-49450000D01*
X103675000Y-49450000D02*
X103675000Y-51550000D01*
X103675000Y-51550000D02*
X100390000Y-51550000D01*
X100390000Y-51550000D02*
X99865000Y-51025000D01*
X144730000Y-51635000D02*
X144730000Y-49730000D01*
X144730000Y-49730000D02*
X159970000Y-49730000D01*
X159970000Y-49730000D02*
X159970000Y-52270000D01*
X159970000Y-52270000D02*
X145365000Y-52270000D01*
X145365000Y-52270000D02*
X144730000Y-51635000D01*
X107600000Y-39100000D02*
X107600000Y-39900000D01*
X107600000Y-39500000D02*
X108200000Y-39100000D01*
X108200000Y-39900000D02*
X107600000Y-39500000D01*
X108200000Y-39100000D02*
X108200000Y-39900000D01*
X109000000Y-40100000D02*
X107000000Y-40100000D01*
X109000000Y-38900000D02*
X109000000Y-40100000D01*
X107000000Y-38900000D02*
X109000000Y-38900000D01*
X107000000Y-40100000D02*
X107000000Y-38900000D01*
X107600000Y-43600000D02*
X107600000Y-44400000D01*
X107600000Y-44000000D02*
X108200000Y-43600000D01*
X108200000Y-44400000D02*
X107600000Y-44000000D01*
X108200000Y-43600000D02*
X108200000Y-44400000D01*
X109000000Y-44600000D02*
X107000000Y-44600000D01*
X109000000Y-43400000D02*
X109000000Y-44600000D01*
X107000000Y-43400000D02*
X109000000Y-43400000D01*
X107000000Y-44600000D02*
X107000000Y-43400000D01*
X100000000Y-39750000D02*
X103500000Y-39750000D01*
X103523625Y-39753625D02*
G75*
G03X101770000Y-35520000I-1753625J1753625D01*
G01*
X100016375Y-39753625D02*
G75*
G02X101770000Y-35520000I1753625J1753625D01*
G01*
X115737400Y-45482000D02*
X116977400Y-45482000D01*
X115737400Y-47482000D02*
X115737400Y-45482000D01*
X116977400Y-47482000D02*
X115737400Y-47482000D01*
X116977400Y-45482000D02*
X116977400Y-47482000D01*
X157250000Y-42880000D02*
X157250000Y-44120000D01*
X155250000Y-42880000D02*
X157250000Y-42880000D01*
X155250000Y-44120000D02*
X155250000Y-42880000D01*
X157250000Y-44120000D02*
X155250000Y-44120000D01*
X157250000Y-40880000D02*
X157250000Y-42120000D01*
X155250000Y-40880000D02*
X157250000Y-40880000D01*
X155250000Y-42120000D02*
X155250000Y-40880000D01*
X157250000Y-42120000D02*
X155250000Y-42120000D01*
X110500000Y-44620000D02*
X110500000Y-43380000D01*
X112500000Y-44620000D02*
X110500000Y-44620000D01*
X112500000Y-43380000D02*
X112500000Y-44620000D01*
X110500000Y-43380000D02*
X112500000Y-43380000D01*
X153380000Y-36000000D02*
X154620000Y-36000000D01*
X153380000Y-38000000D02*
X153380000Y-36000000D01*
X154620000Y-38000000D02*
X153380000Y-38000000D01*
X154620000Y-36000000D02*
X154620000Y-38000000D01*
X110500000Y-40120000D02*
X110500000Y-38880000D01*
X112500000Y-40120000D02*
X110500000Y-40120000D01*
X112500000Y-38880000D02*
X112500000Y-40120000D01*
X110500000Y-38880000D02*
X112500000Y-38880000D01*
X124000000Y-46380000D02*
X124000000Y-47620000D01*
X122000000Y-46380000D02*
X124000000Y-46380000D01*
X122000000Y-47620000D02*
X122000000Y-46380000D01*
X124000000Y-47620000D02*
X122000000Y-47620000D01*
X115120000Y-47500000D02*
X113880000Y-47500000D01*
X115120000Y-45500000D02*
X115120000Y-47500000D01*
X113880000Y-45500000D02*
X115120000Y-45500000D01*
X113880000Y-47500000D02*
X113880000Y-45500000D01*
X119000000Y-43620000D02*
X119000000Y-42380000D01*
X121000000Y-43620000D02*
X119000000Y-43620000D01*
X121000000Y-42380000D02*
X121000000Y-43620000D01*
X119000000Y-42380000D02*
X121000000Y-42380000D01*
X119000000Y-45620000D02*
X119000000Y-44380000D01*
X121000000Y-45620000D02*
X119000000Y-45620000D01*
X121000000Y-44380000D02*
X121000000Y-45620000D01*
X119000000Y-44380000D02*
X121000000Y-44380000D01*
X142000000Y-37620000D02*
X142000000Y-36380000D01*
X144000000Y-37620000D02*
X142000000Y-37620000D01*
X144000000Y-36380000D02*
X144000000Y-37620000D01*
X142000000Y-36380000D02*
X144000000Y-36380000D01*
X122380000Y-38000000D02*
X123620000Y-38000000D01*
X122380000Y-40000000D02*
X122380000Y-38000000D01*
X123620000Y-40000000D02*
X122380000Y-40000000D01*
X123620000Y-38000000D02*
X123620000Y-40000000D01*
X124500000Y-37120000D02*
X124500000Y-35880000D01*
X126500000Y-37120000D02*
X124500000Y-37120000D01*
X126500000Y-35880000D02*
X126500000Y-37120000D01*
X124500000Y-35880000D02*
X126500000Y-35880000D01*
X167500000Y-42620000D02*
X167500000Y-41380000D01*
X169500000Y-42620000D02*
X167500000Y-42620000D01*
X169500000Y-41380000D02*
X169500000Y-42620000D01*
X167500000Y-41380000D02*
X169500000Y-41380000D01*
X167500000Y-46120000D02*
X167500000Y-44880000D01*
X169500000Y-46120000D02*
X167500000Y-46120000D01*
X169500000Y-44880000D02*
X169500000Y-46120000D01*
X167500000Y-44880000D02*
X169500000Y-44880000D01*
X167500000Y-44370000D02*
X167500000Y-43130000D01*
X169500000Y-44370000D02*
X167500000Y-44370000D01*
X169500000Y-43130000D02*
X169500000Y-44370000D01*
X167500000Y-43130000D02*
X169500000Y-43130000D01*
X155380000Y-36000000D02*
X156620000Y-36000000D01*
X155380000Y-38000000D02*
X155380000Y-36000000D01*
X156620000Y-38000000D02*
X155380000Y-38000000D01*
X156620000Y-36000000D02*
X156620000Y-38000000D01*
X157380000Y-36000000D02*
X158620000Y-36000000D01*
X157380000Y-38000000D02*
X157380000Y-36000000D01*
X158620000Y-38000000D02*
X157380000Y-38000000D01*
X158620000Y-36000000D02*
X158620000Y-38000000D01*
X166630000Y-49750000D02*
X167870000Y-49750000D01*
X166630000Y-51750000D02*
X166630000Y-49750000D01*
X167870000Y-51750000D02*
X166630000Y-51750000D01*
X167870000Y-49750000D02*
X167870000Y-51750000D01*
X107600000Y-47600000D02*
X107600000Y-48400000D01*
X107600000Y-48000000D02*
X108200000Y-47600000D01*
X108200000Y-48400000D02*
X107600000Y-48000000D01*
X108200000Y-47600000D02*
X108200000Y-48400000D01*
X109000000Y-48600000D02*
X107000000Y-48600000D01*
X109000000Y-47400000D02*
X109000000Y-48600000D01*
X107000000Y-47400000D02*
X109000000Y-47400000D01*
X107000000Y-48600000D02*
X107000000Y-47400000D01*
X118000000Y-48250000D02*
X118000000Y-51750000D01*
X118000000Y-51750000D02*
X112000000Y-51750000D01*
X112000000Y-51750000D02*
X112000000Y-48250000D01*
X112000000Y-48250000D02*
X118000000Y-48250000D01*
X113600000Y-49300000D02*
X116400000Y-49300000D01*
X116400000Y-49300000D02*
X116400000Y-50700000D01*
X116400000Y-50700000D02*
X113600000Y-50700000D01*
X113600000Y-50700000D02*
X113600000Y-49300000D01*
D11*
X153000000Y-41500000D02*
X153000000Y-47500000D01*
X153000000Y-47500000D02*
X146000000Y-47500000D01*
X146000000Y-47500000D02*
X146000000Y-40500000D01*
X146000000Y-40500000D02*
X152000000Y-40500000D01*
X152000000Y-40500000D02*
X153000000Y-41500000D01*
D10*
X136650000Y-41850000D02*
X135650000Y-40850000D01*
X136650000Y-41850000D02*
X142350000Y-41850000D01*
X135650000Y-40850000D02*
X135650000Y-38150000D01*
X142350000Y-41850000D02*
X142350000Y-38150000D01*
X135650000Y-38150000D02*
X142350000Y-38150000D01*
D11*
X116300000Y-36500000D02*
X119700000Y-36500000D01*
X119700000Y-36500000D02*
X119700000Y-41500000D01*
X119700000Y-41500000D02*
X115300000Y-41500000D01*
X115300000Y-41500000D02*
X115300000Y-37500000D01*
X115300000Y-37500000D02*
X116300000Y-36500000D01*
D10*
X129150000Y-41850000D02*
X128150000Y-40850000D01*
X129150000Y-41850000D02*
X134850000Y-41850000D01*
X128150000Y-40850000D02*
X128150000Y-38150000D01*
X134850000Y-41850000D02*
X134850000Y-38150000D01*
X128150000Y-38150000D02*
X134850000Y-38150000D01*
X166450000Y-43050000D02*
X166450000Y-45950000D01*
X166450000Y-45950000D02*
X161550000Y-45950000D01*
X161550000Y-45950000D02*
X161550000Y-42050000D01*
X161550000Y-42050000D02*
X165450000Y-42050000D01*
X165450000Y-42050000D02*
X166450000Y-43050000D01*
X170315000Y-46675000D02*
X176565000Y-46675000D01*
X170315000Y-51325000D02*
X176565000Y-51325000D01*
X170440000Y-47000000D02*
X176440000Y-47000000D01*
X170440000Y-51000000D02*
X176440000Y-51000000D01*
X170315000Y-51325000D02*
G75*
G02X170315000Y-46675000I0J2325000D01*
G01*
X176565000Y-51325000D02*
G75*
G03X176565000Y-46675000I0J2325000D01*
G01*
X170440000Y-51000000D02*
G75*
G02X170440000Y-47000000I0J2000000D01*
G01*
X176440000Y-51000000D02*
G75*
G03X176440000Y-47000000I0J2000000D01*
G01*
X176685000Y-41325000D02*
X170435000Y-41325000D01*
X176685000Y-36675000D02*
X170435000Y-36675000D01*
X176560000Y-41000000D02*
X170560000Y-41000000D01*
X176560000Y-37000000D02*
X170560000Y-37000000D01*
X176685000Y-36675000D02*
G75*
G02X176685000Y-41325000I0J-2325000D01*
G01*
X170435000Y-36675000D02*
G75*
G03X170435000Y-41325000I0J-2325000D01*
G01*
X176560000Y-37000000D02*
G75*
G02X176560000Y-41000000I0J-2000000D01*
G01*
X170560000Y-37000000D02*
G75*
G03X170560000Y-41000000I0J-2000000D01*
G01*
D11*
X137107143Y-49940476D02*
X137154762Y-49988095D01*
X137202381Y-50130952D01*
X137202381Y-50226190D01*
X137154762Y-50369048D01*
X137059524Y-50464286D01*
X136964286Y-50511905D01*
X136773810Y-50559524D01*
X136630952Y-50559524D01*
X136440476Y-50511905D01*
X136345238Y-50464286D01*
X136250000Y-50369048D01*
X136202381Y-50226190D01*
X136202381Y-50130952D01*
X136250000Y-49988095D01*
X136297619Y-49940476D01*
X140357143Y-50416666D02*
X140404762Y-50464285D01*
X140452381Y-50607142D01*
X140452381Y-50702380D01*
X140404762Y-50845238D01*
X140309524Y-50940476D01*
X140214286Y-50988095D01*
X140023810Y-51035714D01*
X139880952Y-51035714D01*
X139690476Y-50988095D01*
X139595238Y-50940476D01*
X139500000Y-50845238D01*
X139452381Y-50702380D01*
X139452381Y-50607142D01*
X139500000Y-50464285D01*
X139547619Y-50416666D01*
X140452381Y-49464285D02*
X140452381Y-50035714D01*
X140452381Y-49750000D02*
X139452381Y-49750000D01*
X139595238Y-49845238D01*
X139690476Y-49940476D01*
X139738095Y-50035714D01*
X138007143Y-49166666D02*
X138054762Y-49214285D01*
X138102381Y-49357142D01*
X138102381Y-49452380D01*
X138054762Y-49595238D01*
X137959524Y-49690476D01*
X137864286Y-49738095D01*
X137673810Y-49785714D01*
X137530952Y-49785714D01*
X137340476Y-49738095D01*
X137245238Y-49690476D01*
X137150000Y-49595238D01*
X137102381Y-49452380D01*
X137102381Y-49357142D01*
X137150000Y-49214285D01*
X137197619Y-49166666D01*
X138102381Y-48738095D02*
X137102381Y-48738095D01*
X137102381Y-48357142D01*
X137150000Y-48261904D01*
X137197619Y-48214285D01*
X137292857Y-48166666D01*
X137435714Y-48166666D01*
X137530952Y-48214285D01*
X137578571Y-48261904D01*
X137626190Y-48357142D01*
X137626190Y-48738095D01*
X138102381Y-47214285D02*
X138102381Y-47785714D01*
X138102381Y-47500000D02*
X137102381Y-47500000D01*
X137245238Y-47595238D01*
X137340476Y-47690476D01*
X137388095Y-47785714D01*
X141357143Y-48666666D02*
X141404762Y-48714285D01*
X141452381Y-48857142D01*
X141452381Y-48952380D01*
X141404762Y-49095238D01*
X141309524Y-49190476D01*
X141214286Y-49238095D01*
X141023810Y-49285714D01*
X140880952Y-49285714D01*
X140690476Y-49238095D01*
X140595238Y-49190476D01*
X140500000Y-49095238D01*
X140452381Y-48952380D01*
X140452381Y-48857142D01*
X140500000Y-48714285D01*
X140547619Y-48666666D01*
X140547619Y-48285714D02*
X140500000Y-48238095D01*
X140452381Y-48142857D01*
X140452381Y-47904761D01*
X140500000Y-47809523D01*
X140547619Y-47761904D01*
X140642857Y-47714285D01*
X140738095Y-47714285D01*
X140880952Y-47761904D01*
X141452381Y-48333333D01*
X141452381Y-47714285D01*
X138059524Y-45857143D02*
X138011905Y-45904762D01*
X137869048Y-45952381D01*
X137773810Y-45952381D01*
X137630952Y-45904762D01*
X137535714Y-45809524D01*
X137488095Y-45714286D01*
X137440476Y-45523810D01*
X137440476Y-45380952D01*
X137488095Y-45190476D01*
X137535714Y-45095238D01*
X137630952Y-45000000D01*
X137773810Y-44952381D01*
X137869048Y-44952381D01*
X138011905Y-45000000D01*
X138059524Y-45047619D01*
X137583334Y-49107143D02*
X137535715Y-49154762D01*
X137392858Y-49202381D01*
X137297620Y-49202381D01*
X137154762Y-49154762D01*
X137059524Y-49059524D01*
X137011905Y-48964286D01*
X136964286Y-48773810D01*
X136964286Y-48630952D01*
X137011905Y-48440476D01*
X137059524Y-48345238D01*
X137154762Y-48250000D01*
X137297620Y-48202381D01*
X137392858Y-48202381D01*
X137535715Y-48250000D01*
X137583334Y-48297619D01*
X138440477Y-48535714D02*
X138440477Y-49202381D01*
X138202381Y-48154762D02*
X137964286Y-48869048D01*
X138583334Y-48869048D01*
X189607143Y-49190476D02*
X189654762Y-49238095D01*
X189702381Y-49380952D01*
X189702381Y-49476190D01*
X189654762Y-49619048D01*
X189559524Y-49714286D01*
X189464286Y-49761905D01*
X189273810Y-49809524D01*
X189130952Y-49809524D01*
X188940476Y-49761905D01*
X188845238Y-49714286D01*
X188750000Y-49619048D01*
X188702381Y-49476190D01*
X188702381Y-49380952D01*
X188750000Y-49238095D01*
X188797619Y-49190476D01*
X192857143Y-49666666D02*
X192904762Y-49714285D01*
X192952381Y-49857142D01*
X192952381Y-49952380D01*
X192904762Y-50095238D01*
X192809524Y-50190476D01*
X192714286Y-50238095D01*
X192523810Y-50285714D01*
X192380952Y-50285714D01*
X192190476Y-50238095D01*
X192095238Y-50190476D01*
X192000000Y-50095238D01*
X191952381Y-49952380D01*
X191952381Y-49857142D01*
X192000000Y-49714285D01*
X192047619Y-49666666D01*
X191952381Y-48761904D02*
X191952381Y-49238095D01*
X192428571Y-49285714D01*
X192380952Y-49238095D01*
X192333333Y-49142857D01*
X192333333Y-48904761D01*
X192380952Y-48809523D01*
X192428571Y-48761904D01*
X192523810Y-48714285D01*
X192761905Y-48714285D01*
X192857143Y-48761904D01*
X192904762Y-48809523D01*
X192952381Y-48904761D01*
X192952381Y-49142857D01*
X192904762Y-49238095D01*
X192857143Y-49285714D01*
X159809524Y-45107143D02*
X159761905Y-45154762D01*
X159619048Y-45202381D01*
X159523810Y-45202381D01*
X159380952Y-45154762D01*
X159285714Y-45059524D01*
X159238095Y-44964286D01*
X159190476Y-44773810D01*
X159190476Y-44630952D01*
X159238095Y-44440476D01*
X159285714Y-44345238D01*
X159380952Y-44250000D01*
X159523810Y-44202381D01*
X159619048Y-44202381D01*
X159761905Y-44250000D01*
X159809524Y-44297619D01*
X158857143Y-41857143D02*
X158809524Y-41904762D01*
X158666667Y-41952381D01*
X158571429Y-41952381D01*
X158428571Y-41904762D01*
X158333333Y-41809524D01*
X158285714Y-41714286D01*
X158238095Y-41523810D01*
X158238095Y-41380952D01*
X158285714Y-41190476D01*
X158333333Y-41095238D01*
X158428571Y-41000000D01*
X158571429Y-40952381D01*
X158666667Y-40952381D01*
X158809524Y-41000000D01*
X158857143Y-41047619D01*
X159809524Y-41952381D02*
X159238095Y-41952381D01*
X159523809Y-41952381D02*
X159523809Y-40952381D01*
X159428571Y-41095238D01*
X159333333Y-41190476D01*
X159238095Y-41238095D01*
X160714286Y-40952381D02*
X160238095Y-40952381D01*
X160190476Y-41428571D01*
X160238095Y-41380952D01*
X160333333Y-41333333D01*
X160571429Y-41333333D01*
X160666667Y-41380952D01*
X160714286Y-41428571D01*
X160761905Y-41523810D01*
X160761905Y-41761905D01*
X160714286Y-41857143D01*
X160666667Y-41904762D01*
X160571429Y-41952381D01*
X160333333Y-41952381D01*
X160238095Y-41904762D01*
X160190476Y-41857143D01*
X130559524Y-44107143D02*
X130511905Y-44154762D01*
X130369048Y-44202381D01*
X130273810Y-44202381D01*
X130130952Y-44154762D01*
X130035714Y-44059524D01*
X129988095Y-43964286D01*
X129940476Y-43773810D01*
X129940476Y-43630952D01*
X129988095Y-43440476D01*
X130035714Y-43345238D01*
X130130952Y-43250000D01*
X130273810Y-43202381D01*
X130369048Y-43202381D01*
X130511905Y-43250000D01*
X130559524Y-43297619D01*
X129607143Y-47357143D02*
X129559524Y-47404762D01*
X129416667Y-47452381D01*
X129321429Y-47452381D01*
X129178571Y-47404762D01*
X129083333Y-47309524D01*
X129035714Y-47214286D01*
X128988095Y-47023810D01*
X128988095Y-46880952D01*
X129035714Y-46690476D01*
X129083333Y-46595238D01*
X129178571Y-46500000D01*
X129321429Y-46452381D01*
X129416667Y-46452381D01*
X129559524Y-46500000D01*
X129607143Y-46547619D01*
X130559524Y-47452381D02*
X129988095Y-47452381D01*
X130273809Y-47452381D02*
X130273809Y-46452381D01*
X130178571Y-46595238D01*
X130083333Y-46690476D01*
X129988095Y-46738095D01*
X131416667Y-46452381D02*
X131226190Y-46452381D01*
X131130952Y-46500000D01*
X131083333Y-46547619D01*
X130988095Y-46690476D01*
X130940476Y-46880952D01*
X130940476Y-47261905D01*
X130988095Y-47357143D01*
X131035714Y-47404762D01*
X131130952Y-47452381D01*
X131321429Y-47452381D01*
X131416667Y-47404762D01*
X131464286Y-47357143D01*
X131511905Y-47261905D01*
X131511905Y-47023810D01*
X131464286Y-46928571D01*
X131416667Y-46880952D01*
X131321429Y-46833333D01*
X131130952Y-46833333D01*
X131035714Y-46880952D01*
X130988095Y-46928571D01*
X130940476Y-47023810D01*
X138059524Y-44107143D02*
X138011905Y-44154762D01*
X137869048Y-44202381D01*
X137773810Y-44202381D01*
X137630952Y-44154762D01*
X137535714Y-44059524D01*
X137488095Y-43964286D01*
X137440476Y-43773810D01*
X137440476Y-43630952D01*
X137488095Y-43440476D01*
X137535714Y-43345238D01*
X137630952Y-43250000D01*
X137773810Y-43202381D01*
X137869048Y-43202381D01*
X138011905Y-43250000D01*
X138059524Y-43297619D01*
X137107143Y-47357143D02*
X137059524Y-47404762D01*
X136916667Y-47452381D01*
X136821429Y-47452381D01*
X136678571Y-47404762D01*
X136583333Y-47309524D01*
X136535714Y-47214286D01*
X136488095Y-47023810D01*
X136488095Y-46880952D01*
X136535714Y-46690476D01*
X136583333Y-46595238D01*
X136678571Y-46500000D01*
X136821429Y-46452381D01*
X136916667Y-46452381D01*
X137059524Y-46500000D01*
X137107143Y-46547619D01*
X138059524Y-47452381D02*
X137488095Y-47452381D01*
X137773809Y-47452381D02*
X137773809Y-46452381D01*
X137678571Y-46595238D01*
X137583333Y-46690476D01*
X137488095Y-46738095D01*
X138392857Y-46452381D02*
X139059524Y-46452381D01*
X138630952Y-47452381D01*
X159809524Y-45107143D02*
X159761905Y-45154762D01*
X159619048Y-45202381D01*
X159523810Y-45202381D01*
X159380952Y-45154762D01*
X159285714Y-45059524D01*
X159238095Y-44964286D01*
X159190476Y-44773810D01*
X159190476Y-44630952D01*
X159238095Y-44440476D01*
X159285714Y-44345238D01*
X159380952Y-44250000D01*
X159523810Y-44202381D01*
X159619048Y-44202381D01*
X159761905Y-44250000D01*
X159809524Y-44297619D01*
X158857143Y-48357143D02*
X158809524Y-48404762D01*
X158666667Y-48452381D01*
X158571429Y-48452381D01*
X158428571Y-48404762D01*
X158333333Y-48309524D01*
X158285714Y-48214286D01*
X158238095Y-48023810D01*
X158238095Y-47880952D01*
X158285714Y-47690476D01*
X158333333Y-47595238D01*
X158428571Y-47500000D01*
X158571429Y-47452381D01*
X158666667Y-47452381D01*
X158809524Y-47500000D01*
X158857143Y-47547619D01*
X159809524Y-48452381D02*
X159238095Y-48452381D01*
X159523809Y-48452381D02*
X159523809Y-47452381D01*
X159428571Y-47595238D01*
X159333333Y-47690476D01*
X159238095Y-47738095D01*
X160380952Y-47880952D02*
X160285714Y-47833333D01*
X160238095Y-47785714D01*
X160190476Y-47690476D01*
X160190476Y-47642857D01*
X160238095Y-47547619D01*
X160285714Y-47500000D01*
X160380952Y-47452381D01*
X160571429Y-47452381D01*
X160666667Y-47500000D01*
X160714286Y-47547619D01*
X160761905Y-47642857D01*
X160761905Y-47690476D01*
X160714286Y-47785714D01*
X160666667Y-47833333D01*
X160571429Y-47880952D01*
X160380952Y-47880952D01*
X160285714Y-47928571D01*
X160238095Y-47976190D01*
X160190476Y-48071429D01*
X160190476Y-48261905D01*
X160238095Y-48357143D01*
X160285714Y-48404762D01*
X160380952Y-48452381D01*
X160571429Y-48452381D01*
X160666667Y-48404762D01*
X160714286Y-48357143D01*
X160761905Y-48261905D01*
X160761905Y-48071429D01*
X160714286Y-47976190D01*
X160666667Y-47928571D01*
X160571429Y-47880952D01*
X163738095Y-53352381D02*
X163738095Y-52352381D01*
X163976190Y-52352381D01*
X164119048Y-52400000D01*
X164214286Y-52495238D01*
X164261905Y-52590476D01*
X164309524Y-52780952D01*
X164309524Y-52923810D01*
X164261905Y-53114286D01*
X164214286Y-53209524D01*
X164119048Y-53304762D01*
X163976190Y-53352381D01*
X163738095Y-53352381D01*
X163261905Y-49652381D02*
X163261905Y-48652381D01*
X163500000Y-48652381D01*
X163642858Y-48700000D01*
X163738096Y-48795238D01*
X163785715Y-48890476D01*
X163833334Y-49080952D01*
X163833334Y-49223810D01*
X163785715Y-49414286D01*
X163738096Y-49509524D01*
X163642858Y-49604762D01*
X163500000Y-49652381D01*
X163261905Y-49652381D01*
X164214286Y-48747619D02*
X164261905Y-48700000D01*
X164357143Y-48652381D01*
X164595239Y-48652381D01*
X164690477Y-48700000D01*
X164738096Y-48747619D01*
X164785715Y-48842857D01*
X164785715Y-48938095D01*
X164738096Y-49080952D01*
X164166667Y-49652381D01*
X164785715Y-49652381D01*
X189052381Y-47047619D02*
X189861905Y-47047619D01*
X189957143Y-47000000D01*
X190004762Y-46952381D01*
X190052381Y-46857143D01*
X190052381Y-46666666D01*
X190004762Y-46571428D01*
X189957143Y-46523809D01*
X189861905Y-46476190D01*
X189052381Y-46476190D01*
X190004762Y-46047619D02*
X190052381Y-45904762D01*
X190052381Y-45666666D01*
X190004762Y-45571428D01*
X189957143Y-45523809D01*
X189861905Y-45476190D01*
X189766667Y-45476190D01*
X189671429Y-45523809D01*
X189623810Y-45571428D01*
X189576190Y-45666666D01*
X189528571Y-45857143D01*
X189480952Y-45952381D01*
X189433333Y-46000000D01*
X189338095Y-46047619D01*
X189242857Y-46047619D01*
X189147619Y-46000000D01*
X189100000Y-45952381D01*
X189052381Y-45857143D01*
X189052381Y-45619047D01*
X189100000Y-45476190D01*
X189528571Y-44714285D02*
X189576190Y-44571428D01*
X189623810Y-44523809D01*
X189719048Y-44476190D01*
X189861905Y-44476190D01*
X189957143Y-44523809D01*
X190004762Y-44571428D01*
X190052381Y-44666666D01*
X190052381Y-45047619D01*
X189052381Y-45047619D01*
X189052381Y-44714285D01*
X189100000Y-44619047D01*
X189147619Y-44571428D01*
X189242857Y-44523809D01*
X189338095Y-44523809D01*
X189433333Y-44571428D01*
X189480952Y-44619047D01*
X189528571Y-44714285D01*
X189528571Y-45047619D01*
X190147619Y-44285714D02*
X190147619Y-43523809D01*
X189052381Y-43095238D02*
X189052381Y-42904761D01*
X189100000Y-42809523D01*
X189195238Y-42714285D01*
X189385714Y-42666666D01*
X189719048Y-42666666D01*
X189909524Y-42714285D01*
X190004762Y-42809523D01*
X190052381Y-42904761D01*
X190052381Y-43095238D01*
X190004762Y-43190476D01*
X189909524Y-43285714D01*
X189719048Y-43333333D01*
X189385714Y-43333333D01*
X189195238Y-43285714D01*
X189100000Y-43190476D01*
X189052381Y-43095238D01*
X189052381Y-42380952D02*
X189052381Y-41809523D01*
X190052381Y-42095238D02*
X189052381Y-42095238D01*
X189100000Y-40952380D02*
X189052381Y-41047618D01*
X189052381Y-41190475D01*
X189100000Y-41333333D01*
X189195238Y-41428571D01*
X189290476Y-41476190D01*
X189480952Y-41523809D01*
X189623810Y-41523809D01*
X189814286Y-41476190D01*
X189909524Y-41428571D01*
X190004762Y-41333333D01*
X190052381Y-41190475D01*
X190052381Y-41095237D01*
X190004762Y-40952380D01*
X189957143Y-40904761D01*
X189623810Y-40904761D01*
X189623810Y-41095237D01*
X184502381Y-44333333D02*
X185216667Y-44333333D01*
X185359524Y-44380953D01*
X185454762Y-44476191D01*
X185502381Y-44619048D01*
X185502381Y-44714286D01*
X185502381Y-43333333D02*
X185502381Y-43904762D01*
X185502381Y-43619048D02*
X184502381Y-43619048D01*
X184645238Y-43714286D01*
X184740476Y-43809524D01*
X184788095Y-43904762D01*
X153767143Y-40738095D02*
X153814762Y-40785714D01*
X153862381Y-40928571D01*
X153862381Y-41023809D01*
X153814762Y-41166667D01*
X153719524Y-41261905D01*
X153624286Y-41309524D01*
X153433810Y-41357143D01*
X153290952Y-41357143D01*
X153100476Y-41309524D01*
X153005238Y-41261905D01*
X152910000Y-41166667D01*
X152862381Y-41023809D01*
X152862381Y-40928571D01*
X152910000Y-40785714D01*
X152957619Y-40738095D01*
X153862381Y-40166667D02*
X153814762Y-40261905D01*
X153767143Y-40309524D01*
X153671905Y-40357143D01*
X153386190Y-40357143D01*
X153290952Y-40309524D01*
X153243333Y-40261905D01*
X153195714Y-40166667D01*
X153195714Y-40023809D01*
X153243333Y-39928571D01*
X153290952Y-39880952D01*
X153386190Y-39833333D01*
X153671905Y-39833333D01*
X153767143Y-39880952D01*
X153814762Y-39928571D01*
X153862381Y-40023809D01*
X153862381Y-40166667D01*
X153195714Y-39404762D02*
X153862381Y-39404762D01*
X153290952Y-39404762D02*
X153243333Y-39357143D01*
X153195714Y-39261905D01*
X153195714Y-39119047D01*
X153243333Y-39023809D01*
X153338571Y-38976190D01*
X153862381Y-38976190D01*
X153195714Y-38500000D02*
X153862381Y-38500000D01*
X153290952Y-38500000D02*
X153243333Y-38452381D01*
X153195714Y-38357143D01*
X153195714Y-38214285D01*
X153243333Y-38119047D01*
X153338571Y-38071428D01*
X153862381Y-38071428D01*
X153957619Y-37833333D02*
X153957619Y-37071428D01*
X152862381Y-36642857D02*
X152862381Y-36547618D01*
X152910000Y-36452380D01*
X152957619Y-36404761D01*
X153052857Y-36357142D01*
X153243333Y-36309523D01*
X153481429Y-36309523D01*
X153671905Y-36357142D01*
X153767143Y-36404761D01*
X153814762Y-36452380D01*
X153862381Y-36547618D01*
X153862381Y-36642857D01*
X153814762Y-36738095D01*
X153767143Y-36785714D01*
X153671905Y-36833333D01*
X153481429Y-36880952D01*
X153243333Y-36880952D01*
X153052857Y-36833333D01*
X152957619Y-36785714D01*
X152910000Y-36738095D01*
X152862381Y-36642857D01*
X153862381Y-35357142D02*
X153862381Y-35928571D01*
X153862381Y-35642857D02*
X152862381Y-35642857D01*
X153005238Y-35738095D01*
X153100476Y-35833333D01*
X153148095Y-35928571D01*
X153862381Y-35023809D02*
X153195714Y-34499999D01*
X153195714Y-35023809D02*
X153862381Y-34499999D01*
X152862381Y-33928571D02*
X152862381Y-33833332D01*
X152910000Y-33738094D01*
X152957619Y-33690475D01*
X153052857Y-33642856D01*
X153243333Y-33595237D01*
X153481429Y-33595237D01*
X153671905Y-33642856D01*
X153767143Y-33690475D01*
X153814762Y-33738094D01*
X153862381Y-33833332D01*
X153862381Y-33928571D01*
X153814762Y-34023809D01*
X153767143Y-34071428D01*
X153671905Y-34119047D01*
X153481429Y-34166666D01*
X153243333Y-34166666D01*
X153052857Y-34119047D01*
X152957619Y-34071428D01*
X152910000Y-34023809D01*
X152862381Y-33928571D01*
X152862381Y-33261904D02*
X152862381Y-32642856D01*
X153243333Y-32976190D01*
X153243333Y-32833332D01*
X153290952Y-32738094D01*
X153338571Y-32690475D01*
X153433810Y-32642856D01*
X153671905Y-32642856D01*
X153767143Y-32690475D01*
X153814762Y-32738094D01*
X153862381Y-32833332D01*
X153862381Y-33119047D01*
X153814762Y-33214285D01*
X153767143Y-33261904D01*
X148206667Y-36452381D02*
X148206667Y-37166667D01*
X148159047Y-37309524D01*
X148063809Y-37404762D01*
X147920952Y-37452381D01*
X147825714Y-37452381D01*
X148587619Y-36452381D02*
X149206667Y-36452381D01*
X148873333Y-36833333D01*
X149016191Y-36833333D01*
X149111429Y-36880952D01*
X149159048Y-36928571D01*
X149206667Y-37023810D01*
X149206667Y-37261905D01*
X149159048Y-37357143D01*
X149111429Y-37404762D01*
X149016191Y-37452381D01*
X148730476Y-37452381D01*
X148635238Y-37404762D01*
X148587619Y-37357143D01*
X110092143Y-54238095D02*
X110139762Y-54285714D01*
X110187381Y-54428571D01*
X110187381Y-54523809D01*
X110139762Y-54666667D01*
X110044524Y-54761905D01*
X109949286Y-54809524D01*
X109758810Y-54857143D01*
X109615952Y-54857143D01*
X109425476Y-54809524D01*
X109330238Y-54761905D01*
X109235000Y-54666667D01*
X109187381Y-54523809D01*
X109187381Y-54428571D01*
X109235000Y-54285714D01*
X109282619Y-54238095D01*
X110187381Y-53666667D02*
X110139762Y-53761905D01*
X110092143Y-53809524D01*
X109996905Y-53857143D01*
X109711190Y-53857143D01*
X109615952Y-53809524D01*
X109568333Y-53761905D01*
X109520714Y-53666667D01*
X109520714Y-53523809D01*
X109568333Y-53428571D01*
X109615952Y-53380952D01*
X109711190Y-53333333D01*
X109996905Y-53333333D01*
X110092143Y-53380952D01*
X110139762Y-53428571D01*
X110187381Y-53523809D01*
X110187381Y-53666667D01*
X109520714Y-52904762D02*
X110187381Y-52904762D01*
X109615952Y-52904762D02*
X109568333Y-52857143D01*
X109520714Y-52761905D01*
X109520714Y-52619047D01*
X109568333Y-52523809D01*
X109663571Y-52476190D01*
X110187381Y-52476190D01*
X109520714Y-52000000D02*
X110187381Y-52000000D01*
X109615952Y-52000000D02*
X109568333Y-51952381D01*
X109520714Y-51857143D01*
X109520714Y-51714285D01*
X109568333Y-51619047D01*
X109663571Y-51571428D01*
X110187381Y-51571428D01*
X110282619Y-51333333D02*
X110282619Y-50571428D01*
X109187381Y-50142857D02*
X109187381Y-50047618D01*
X109235000Y-49952380D01*
X109282619Y-49904761D01*
X109377857Y-49857142D01*
X109568333Y-49809523D01*
X109806429Y-49809523D01*
X109996905Y-49857142D01*
X110092143Y-49904761D01*
X110139762Y-49952380D01*
X110187381Y-50047618D01*
X110187381Y-50142857D01*
X110139762Y-50238095D01*
X110092143Y-50285714D01*
X109996905Y-50333333D01*
X109806429Y-50380952D01*
X109568333Y-50380952D01*
X109377857Y-50333333D01*
X109282619Y-50285714D01*
X109235000Y-50238095D01*
X109187381Y-50142857D01*
X110187381Y-48857142D02*
X110187381Y-49428571D01*
X110187381Y-49142857D02*
X109187381Y-49142857D01*
X109330238Y-49238095D01*
X109425476Y-49333333D01*
X109473095Y-49428571D01*
X110187381Y-48523809D02*
X109520714Y-47999999D01*
X109520714Y-48523809D02*
X110187381Y-47999999D01*
X109187381Y-47428571D02*
X109187381Y-47333332D01*
X109235000Y-47238094D01*
X109282619Y-47190475D01*
X109377857Y-47142856D01*
X109568333Y-47095237D01*
X109806429Y-47095237D01*
X109996905Y-47142856D01*
X110092143Y-47190475D01*
X110139762Y-47238094D01*
X110187381Y-47333332D01*
X110187381Y-47428571D01*
X110139762Y-47523809D01*
X110092143Y-47571428D01*
X109996905Y-47619047D01*
X109806429Y-47666666D01*
X109568333Y-47666666D01*
X109377857Y-47619047D01*
X109282619Y-47571428D01*
X109235000Y-47523809D01*
X109187381Y-47428571D01*
X109187381Y-46761904D02*
X109187381Y-46142856D01*
X109568333Y-46476190D01*
X109568333Y-46333332D01*
X109615952Y-46238094D01*
X109663571Y-46190475D01*
X109758810Y-46142856D01*
X109996905Y-46142856D01*
X110092143Y-46190475D01*
X110139762Y-46238094D01*
X110187381Y-46333332D01*
X110187381Y-46619047D01*
X110139762Y-46714285D01*
X110092143Y-46761904D01*
X106436667Y-49952381D02*
X106436667Y-50666667D01*
X106389047Y-50809524D01*
X106293809Y-50904762D01*
X106150952Y-50952381D01*
X106055714Y-50952381D01*
X107341429Y-50285714D02*
X107341429Y-50952381D01*
X107103333Y-49904762D02*
X106865238Y-50619048D01*
X107484286Y-50619048D01*
X105092143Y-54238095D02*
X105139762Y-54285714D01*
X105187381Y-54428571D01*
X105187381Y-54523809D01*
X105139762Y-54666667D01*
X105044524Y-54761905D01*
X104949286Y-54809524D01*
X104758810Y-54857143D01*
X104615952Y-54857143D01*
X104425476Y-54809524D01*
X104330238Y-54761905D01*
X104235000Y-54666667D01*
X104187381Y-54523809D01*
X104187381Y-54428571D01*
X104235000Y-54285714D01*
X104282619Y-54238095D01*
X105187381Y-53666667D02*
X105139762Y-53761905D01*
X105092143Y-53809524D01*
X104996905Y-53857143D01*
X104711190Y-53857143D01*
X104615952Y-53809524D01*
X104568333Y-53761905D01*
X104520714Y-53666667D01*
X104520714Y-53523809D01*
X104568333Y-53428571D01*
X104615952Y-53380952D01*
X104711190Y-53333333D01*
X104996905Y-53333333D01*
X105092143Y-53380952D01*
X105139762Y-53428571D01*
X105187381Y-53523809D01*
X105187381Y-53666667D01*
X104520714Y-52904762D02*
X105187381Y-52904762D01*
X104615952Y-52904762D02*
X104568333Y-52857143D01*
X104520714Y-52761905D01*
X104520714Y-52619047D01*
X104568333Y-52523809D01*
X104663571Y-52476190D01*
X105187381Y-52476190D01*
X104520714Y-52000000D02*
X105187381Y-52000000D01*
X104615952Y-52000000D02*
X104568333Y-51952381D01*
X104520714Y-51857143D01*
X104520714Y-51714285D01*
X104568333Y-51619047D01*
X104663571Y-51571428D01*
X105187381Y-51571428D01*
X105282619Y-51333333D02*
X105282619Y-50571428D01*
X104187381Y-50142857D02*
X104187381Y-50047618D01*
X104235000Y-49952380D01*
X104282619Y-49904761D01*
X104377857Y-49857142D01*
X104568333Y-49809523D01*
X104806429Y-49809523D01*
X104996905Y-49857142D01*
X105092143Y-49904761D01*
X105139762Y-49952380D01*
X105187381Y-50047618D01*
X105187381Y-50142857D01*
X105139762Y-50238095D01*
X105092143Y-50285714D01*
X104996905Y-50333333D01*
X104806429Y-50380952D01*
X104568333Y-50380952D01*
X104377857Y-50333333D01*
X104282619Y-50285714D01*
X104235000Y-50238095D01*
X104187381Y-50142857D01*
X105187381Y-48857142D02*
X105187381Y-49428571D01*
X105187381Y-49142857D02*
X104187381Y-49142857D01*
X104330238Y-49238095D01*
X104425476Y-49333333D01*
X104473095Y-49428571D01*
X105187381Y-48523809D02*
X104520714Y-47999999D01*
X104520714Y-48523809D02*
X105187381Y-47999999D01*
X104187381Y-47428571D02*
X104187381Y-47333332D01*
X104235000Y-47238094D01*
X104282619Y-47190475D01*
X104377857Y-47142856D01*
X104568333Y-47095237D01*
X104806429Y-47095237D01*
X104996905Y-47142856D01*
X105092143Y-47190475D01*
X105139762Y-47238094D01*
X105187381Y-47333332D01*
X105187381Y-47428571D01*
X105139762Y-47523809D01*
X105092143Y-47571428D01*
X104996905Y-47619047D01*
X104806429Y-47666666D01*
X104568333Y-47666666D01*
X104377857Y-47619047D01*
X104282619Y-47571428D01*
X104235000Y-47523809D01*
X104187381Y-47428571D01*
X104187381Y-46761904D02*
X104187381Y-46142856D01*
X104568333Y-46476190D01*
X104568333Y-46333332D01*
X104615952Y-46238094D01*
X104663571Y-46190475D01*
X104758810Y-46142856D01*
X104996905Y-46142856D01*
X105092143Y-46190475D01*
X105139762Y-46238094D01*
X105187381Y-46333332D01*
X105187381Y-46619047D01*
X105139762Y-46714285D01*
X105092143Y-46761904D01*
X101436667Y-49952381D02*
X101436667Y-50666667D01*
X101389047Y-50809524D01*
X101293809Y-50904762D01*
X101150952Y-50952381D01*
X101055714Y-50952381D01*
X102389048Y-49952381D02*
X101912857Y-49952381D01*
X101865238Y-50428571D01*
X101912857Y-50380952D01*
X102008095Y-50333333D01*
X102246191Y-50333333D01*
X102341429Y-50380952D01*
X102389048Y-50428571D01*
X102436667Y-50523810D01*
X102436667Y-50761905D01*
X102389048Y-50857143D01*
X102341429Y-50904762D01*
X102246191Y-50952381D01*
X102008095Y-50952381D01*
X101912857Y-50904762D01*
X101865238Y-50857143D01*
X161387143Y-54738095D02*
X161434762Y-54785714D01*
X161482381Y-54928571D01*
X161482381Y-55023809D01*
X161434762Y-55166667D01*
X161339524Y-55261905D01*
X161244286Y-55309524D01*
X161053810Y-55357143D01*
X160910952Y-55357143D01*
X160720476Y-55309524D01*
X160625238Y-55261905D01*
X160530000Y-55166667D01*
X160482381Y-55023809D01*
X160482381Y-54928571D01*
X160530000Y-54785714D01*
X160577619Y-54738095D01*
X161482381Y-54166667D02*
X161434762Y-54261905D01*
X161387143Y-54309524D01*
X161291905Y-54357143D01*
X161006190Y-54357143D01*
X160910952Y-54309524D01*
X160863333Y-54261905D01*
X160815714Y-54166667D01*
X160815714Y-54023809D01*
X160863333Y-53928571D01*
X160910952Y-53880952D01*
X161006190Y-53833333D01*
X161291905Y-53833333D01*
X161387143Y-53880952D01*
X161434762Y-53928571D01*
X161482381Y-54023809D01*
X161482381Y-54166667D01*
X160815714Y-53404762D02*
X161482381Y-53404762D01*
X160910952Y-53404762D02*
X160863333Y-53357143D01*
X160815714Y-53261905D01*
X160815714Y-53119047D01*
X160863333Y-53023809D01*
X160958571Y-52976190D01*
X161482381Y-52976190D01*
X160815714Y-52500000D02*
X161482381Y-52500000D01*
X160910952Y-52500000D02*
X160863333Y-52452381D01*
X160815714Y-52357143D01*
X160815714Y-52214285D01*
X160863333Y-52119047D01*
X160958571Y-52071428D01*
X161482381Y-52071428D01*
X161577619Y-51833333D02*
X161577619Y-51071428D01*
X160482381Y-50642857D02*
X160482381Y-50547618D01*
X160530000Y-50452380D01*
X160577619Y-50404761D01*
X160672857Y-50357142D01*
X160863333Y-50309523D01*
X161101429Y-50309523D01*
X161291905Y-50357142D01*
X161387143Y-50404761D01*
X161434762Y-50452380D01*
X161482381Y-50547618D01*
X161482381Y-50642857D01*
X161434762Y-50738095D01*
X161387143Y-50785714D01*
X161291905Y-50833333D01*
X161101429Y-50880952D01*
X160863333Y-50880952D01*
X160672857Y-50833333D01*
X160577619Y-50785714D01*
X160530000Y-50738095D01*
X160482381Y-50642857D01*
X161482381Y-49357142D02*
X161482381Y-49928571D01*
X161482381Y-49642857D02*
X160482381Y-49642857D01*
X160625238Y-49738095D01*
X160720476Y-49833333D01*
X160768095Y-49928571D01*
X161482381Y-49023809D02*
X160815714Y-48499999D01*
X160815714Y-49023809D02*
X161482381Y-48499999D01*
X160482381Y-47928571D02*
X160482381Y-47833332D01*
X160530000Y-47738094D01*
X160577619Y-47690475D01*
X160672857Y-47642856D01*
X160863333Y-47595237D01*
X161101429Y-47595237D01*
X161291905Y-47642856D01*
X161387143Y-47690475D01*
X161434762Y-47738094D01*
X161482381Y-47833332D01*
X161482381Y-47928571D01*
X161434762Y-48023809D01*
X161387143Y-48071428D01*
X161291905Y-48119047D01*
X161101429Y-48166666D01*
X160863333Y-48166666D01*
X160672857Y-48119047D01*
X160577619Y-48071428D01*
X160530000Y-48023809D01*
X160482381Y-47928571D01*
X160482381Y-46738094D02*
X160482381Y-46928571D01*
X160530000Y-47023809D01*
X160577619Y-47071428D01*
X160720476Y-47166666D01*
X160910952Y-47214285D01*
X161291905Y-47214285D01*
X161387143Y-47166666D01*
X161434762Y-47119047D01*
X161482381Y-47023809D01*
X161482381Y-46833332D01*
X161434762Y-46738094D01*
X161387143Y-46690475D01*
X161291905Y-46642856D01*
X161053810Y-46642856D01*
X160958571Y-46690475D01*
X160910952Y-46738094D01*
X160863333Y-46833332D01*
X160863333Y-47023809D01*
X160910952Y-47119047D01*
X160958571Y-47166666D01*
X161053810Y-47214285D01*
X152016667Y-50452381D02*
X152016667Y-51166667D01*
X151969047Y-51309524D01*
X151873809Y-51404762D01*
X151730952Y-51452381D01*
X151635714Y-51452381D01*
X152921429Y-50452381D02*
X152730952Y-50452381D01*
X152635714Y-50500000D01*
X152588095Y-50547619D01*
X152492857Y-50690476D01*
X152445238Y-50880952D01*
X152445238Y-51261905D01*
X152492857Y-51357143D01*
X152540476Y-51404762D01*
X152635714Y-51452381D01*
X152826191Y-51452381D01*
X152921429Y-51404762D01*
X152969048Y-51357143D01*
X153016667Y-51261905D01*
X153016667Y-51023810D01*
X152969048Y-50928571D01*
X152921429Y-50880952D01*
X152826191Y-50833333D01*
X152635714Y-50833333D01*
X152540476Y-50880952D01*
X152492857Y-50928571D01*
X152445238Y-51023810D01*
X107357143Y-41502381D02*
X106880952Y-41502381D01*
X106880952Y-40502381D01*
X107690476Y-40978571D02*
X108023810Y-40978571D01*
X108166667Y-41502381D02*
X107690476Y-41502381D01*
X107690476Y-40502381D01*
X108166667Y-40502381D01*
X108595238Y-41502381D02*
X108595238Y-40502381D01*
X108833333Y-40502381D01*
X108976191Y-40550000D01*
X109071429Y-40645238D01*
X109119048Y-40740476D01*
X109166667Y-40930952D01*
X109166667Y-41073810D01*
X109119048Y-41264286D01*
X109071429Y-41359524D01*
X108976191Y-41454762D01*
X108833333Y-41502381D01*
X108595238Y-41502381D01*
D10*
X107095238Y-38430952D02*
X107095238Y-38030952D01*
X107247619Y-38030952D01*
X107285714Y-38050000D01*
X107304762Y-38069048D01*
X107323810Y-38107143D01*
X107323810Y-38164286D01*
X107304762Y-38202381D01*
X107285714Y-38221429D01*
X107247619Y-38240476D01*
X107095238Y-38240476D01*
X107723810Y-38430952D02*
X107590476Y-38240476D01*
X107495238Y-38430952D02*
X107495238Y-38030952D01*
X107647619Y-38030952D01*
X107685714Y-38050000D01*
X107704762Y-38069048D01*
X107723810Y-38107143D01*
X107723810Y-38164286D01*
X107704762Y-38202381D01*
X107685714Y-38221429D01*
X107647619Y-38240476D01*
X107495238Y-38240476D01*
X107971429Y-38030952D02*
X108047619Y-38030952D01*
X108085714Y-38050000D01*
X108123810Y-38088095D01*
X108142857Y-38164286D01*
X108142857Y-38297619D01*
X108123810Y-38373810D01*
X108085714Y-38411905D01*
X108047619Y-38430952D01*
X107971429Y-38430952D01*
X107933333Y-38411905D01*
X107895238Y-38373810D01*
X107876190Y-38297619D01*
X107876190Y-38164286D01*
X107895238Y-38088095D01*
X107933333Y-38050000D01*
X107971429Y-38030952D01*
X108523810Y-38050000D02*
X108485715Y-38030952D01*
X108428572Y-38030952D01*
X108371429Y-38050000D01*
X108333334Y-38088095D01*
X108314286Y-38126190D01*
X108295238Y-38202381D01*
X108295238Y-38259524D01*
X108314286Y-38335714D01*
X108333334Y-38373810D01*
X108371429Y-38411905D01*
X108428572Y-38430952D01*
X108466667Y-38430952D01*
X108523810Y-38411905D01*
X108542858Y-38392857D01*
X108542858Y-38259524D01*
X108466667Y-38259524D01*
X108923810Y-38430952D02*
X108695238Y-38430952D01*
X108809524Y-38430952D02*
X108809524Y-38030952D01*
X108771429Y-38088095D01*
X108733334Y-38126190D01*
X108695238Y-38145238D01*
D11*
X107357143Y-46002381D02*
X106880952Y-46002381D01*
X106880952Y-45002381D01*
X107690476Y-45478571D02*
X108023810Y-45478571D01*
X108166667Y-46002381D02*
X107690476Y-46002381D01*
X107690476Y-45002381D01*
X108166667Y-45002381D01*
X108595238Y-46002381D02*
X108595238Y-45002381D01*
X108833333Y-45002381D01*
X108976191Y-45050000D01*
X109071429Y-45145238D01*
X109119048Y-45240476D01*
X109166667Y-45430952D01*
X109166667Y-45573810D01*
X109119048Y-45764286D01*
X109071429Y-45859524D01*
X108976191Y-45954762D01*
X108833333Y-46002381D01*
X108595238Y-46002381D01*
D10*
X107276191Y-42930952D02*
X107276191Y-42530952D01*
X107428572Y-42530952D01*
X107466667Y-42550000D01*
X107485715Y-42569048D01*
X107504763Y-42607143D01*
X107504763Y-42664286D01*
X107485715Y-42702381D01*
X107466667Y-42721429D01*
X107428572Y-42740476D01*
X107276191Y-42740476D01*
X107638096Y-42530952D02*
X107733334Y-42930952D01*
X107809524Y-42645238D01*
X107885715Y-42930952D01*
X107980953Y-42530952D01*
X108361906Y-42930952D02*
X108228572Y-42740476D01*
X108133334Y-42930952D02*
X108133334Y-42530952D01*
X108285715Y-42530952D01*
X108323810Y-42550000D01*
X108342858Y-42569048D01*
X108361906Y-42607143D01*
X108361906Y-42664286D01*
X108342858Y-42702381D01*
X108323810Y-42721429D01*
X108285715Y-42740476D01*
X108133334Y-42740476D01*
X108742858Y-42930952D02*
X108514286Y-42930952D01*
X108628572Y-42930952D02*
X108628572Y-42530952D01*
X108590477Y-42588095D01*
X108552382Y-42626190D01*
X108514286Y-42645238D01*
D11*
X99055714Y-40337619D02*
X99103333Y-40290000D01*
X99198571Y-40242381D01*
X99436667Y-40242381D01*
X99531905Y-40290000D01*
X99579524Y-40337619D01*
X99627143Y-40432857D01*
X99627143Y-40528095D01*
X99579524Y-40670952D01*
X99008095Y-41242381D01*
X99627143Y-41242381D01*
X100055714Y-41242381D02*
X100055714Y-40242381D01*
X100627143Y-41242381D01*
X100627143Y-40242381D01*
X101008095Y-40242381D02*
X101627143Y-40242381D01*
X101293809Y-40623333D01*
X101436667Y-40623333D01*
X101531905Y-40670952D01*
X101579524Y-40718571D01*
X101627143Y-40813810D01*
X101627143Y-41051905D01*
X101579524Y-41147143D01*
X101531905Y-41194762D01*
X101436667Y-41242381D01*
X101150952Y-41242381D01*
X101055714Y-41194762D01*
X101008095Y-41147143D01*
X102103333Y-41242381D02*
X102293809Y-41242381D01*
X102389048Y-41194762D01*
X102436667Y-41147143D01*
X102531905Y-41004286D01*
X102579524Y-40813810D01*
X102579524Y-40432857D01*
X102531905Y-40337619D01*
X102484286Y-40290000D01*
X102389048Y-40242381D01*
X102198571Y-40242381D01*
X102103333Y-40290000D01*
X102055714Y-40337619D01*
X102008095Y-40432857D01*
X102008095Y-40670952D01*
X102055714Y-40766190D01*
X102103333Y-40813810D01*
X102198571Y-40861429D01*
X102389048Y-40861429D01*
X102484286Y-40813810D01*
X102531905Y-40766190D01*
X102579524Y-40670952D01*
X103198571Y-40242381D02*
X103293810Y-40242381D01*
X103389048Y-40290000D01*
X103436667Y-40337619D01*
X103484286Y-40432857D01*
X103531905Y-40623333D01*
X103531905Y-40861429D01*
X103484286Y-41051905D01*
X103436667Y-41147143D01*
X103389048Y-41194762D01*
X103293810Y-41242381D01*
X103198571Y-41242381D01*
X103103333Y-41194762D01*
X103055714Y-41147143D01*
X103008095Y-41051905D01*
X102960476Y-40861429D01*
X102960476Y-40623333D01*
X103008095Y-40432857D01*
X103055714Y-40337619D01*
X103103333Y-40290000D01*
X103198571Y-40242381D01*
X104389048Y-40575714D02*
X104389048Y-41242381D01*
X104150952Y-40194762D02*
X103912857Y-40909048D01*
X104531905Y-40909048D01*
X101674762Y-34987619D02*
X101579524Y-34940000D01*
X101484286Y-34844762D01*
X101341429Y-34701905D01*
X101246190Y-34654286D01*
X101150952Y-34654286D01*
X101198571Y-34892381D02*
X101103333Y-34844762D01*
X101008095Y-34749524D01*
X100960476Y-34559048D01*
X100960476Y-34225714D01*
X101008095Y-34035238D01*
X101103333Y-33940000D01*
X101198571Y-33892381D01*
X101389048Y-33892381D01*
X101484286Y-33940000D01*
X101579524Y-34035238D01*
X101627143Y-34225714D01*
X101627143Y-34559048D01*
X101579524Y-34749524D01*
X101484286Y-34844762D01*
X101389048Y-34892381D01*
X101198571Y-34892381D01*
X102579524Y-34892381D02*
X102008095Y-34892381D01*
X102293809Y-34892381D02*
X102293809Y-33892381D01*
X102198571Y-34035238D01*
X102103333Y-34130476D01*
X102008095Y-34178095D01*
X115059781Y-46172476D02*
X114583590Y-46505810D01*
X115059781Y-46743905D02*
X114059781Y-46743905D01*
X114059781Y-46362952D01*
X114107400Y-46267714D01*
X114155019Y-46220095D01*
X114250257Y-46172476D01*
X114393114Y-46172476D01*
X114488352Y-46220095D01*
X114535971Y-46267714D01*
X114583590Y-46362952D01*
X114583590Y-46743905D01*
D12*
X116583590Y-46565333D02*
X116345495Y-46732000D01*
X116583590Y-46851047D02*
X116083590Y-46851047D01*
X116083590Y-46660571D01*
X116107400Y-46612952D01*
X116131210Y-46589143D01*
X116178829Y-46565333D01*
X116250257Y-46565333D01*
X116297876Y-46589143D01*
X116321686Y-46612952D01*
X116345495Y-46660571D01*
X116345495Y-46851047D01*
X116583590Y-46089143D02*
X116583590Y-46374857D01*
X116583590Y-46232000D02*
X116083590Y-46232000D01*
X116155019Y-46279619D01*
X116202638Y-46327238D01*
X116226448Y-46374857D01*
D11*
X156559524Y-42202381D02*
X156226190Y-41726190D01*
X155988095Y-42202381D02*
X155988095Y-41202381D01*
X156369048Y-41202381D01*
X156464286Y-41250000D01*
X156511905Y-41297619D01*
X156559524Y-41392857D01*
X156559524Y-41535714D01*
X156511905Y-41630952D01*
X156464286Y-41678571D01*
X156369048Y-41726190D01*
X155988095Y-41726190D01*
D12*
X156166667Y-43726190D02*
X156000000Y-43488095D01*
X155880953Y-43726190D02*
X155880953Y-43226190D01*
X156071429Y-43226190D01*
X156119048Y-43250000D01*
X156142857Y-43273810D01*
X156166667Y-43321429D01*
X156166667Y-43392857D01*
X156142857Y-43440476D01*
X156119048Y-43464286D01*
X156071429Y-43488095D01*
X155880953Y-43488095D01*
X156357143Y-43273810D02*
X156380953Y-43250000D01*
X156428572Y-43226190D01*
X156547619Y-43226190D01*
X156595238Y-43250000D01*
X156619048Y-43273810D01*
X156642857Y-43321429D01*
X156642857Y-43369048D01*
X156619048Y-43440476D01*
X156333334Y-43726190D01*
X156642857Y-43726190D01*
D11*
X156559524Y-40202381D02*
X156226190Y-39726190D01*
X155988095Y-40202381D02*
X155988095Y-39202381D01*
X156369048Y-39202381D01*
X156464286Y-39250000D01*
X156511905Y-39297619D01*
X156559524Y-39392857D01*
X156559524Y-39535714D01*
X156511905Y-39630952D01*
X156464286Y-39678571D01*
X156369048Y-39726190D01*
X155988095Y-39726190D01*
D12*
X156166667Y-41726190D02*
X156000000Y-41488095D01*
X155880953Y-41726190D02*
X155880953Y-41226190D01*
X156071429Y-41226190D01*
X156119048Y-41250000D01*
X156142857Y-41273810D01*
X156166667Y-41321429D01*
X156166667Y-41392857D01*
X156142857Y-41440476D01*
X156119048Y-41464286D01*
X156071429Y-41488095D01*
X155880953Y-41488095D01*
X156333334Y-41226190D02*
X156642857Y-41226190D01*
X156476191Y-41416667D01*
X156547619Y-41416667D01*
X156595238Y-41440476D01*
X156619048Y-41464286D01*
X156642857Y-41511905D01*
X156642857Y-41630952D01*
X156619048Y-41678571D01*
X156595238Y-41702381D01*
X156547619Y-41726190D01*
X156404762Y-41726190D01*
X156357143Y-41702381D01*
X156333334Y-41678571D01*
D11*
X111809524Y-46202381D02*
X111476190Y-45726190D01*
X111238095Y-46202381D02*
X111238095Y-45202381D01*
X111619048Y-45202381D01*
X111714286Y-45250000D01*
X111761905Y-45297619D01*
X111809524Y-45392857D01*
X111809524Y-45535714D01*
X111761905Y-45630952D01*
X111714286Y-45678571D01*
X111619048Y-45726190D01*
X111238095Y-45726190D01*
D12*
X111416667Y-44226190D02*
X111250000Y-43988095D01*
X111130953Y-44226190D02*
X111130953Y-43726190D01*
X111321429Y-43726190D01*
X111369048Y-43750000D01*
X111392857Y-43773810D01*
X111416667Y-43821429D01*
X111416667Y-43892857D01*
X111392857Y-43940476D01*
X111369048Y-43964286D01*
X111321429Y-43988095D01*
X111130953Y-43988095D01*
X111869048Y-43726190D02*
X111630953Y-43726190D01*
X111607143Y-43964286D01*
X111630953Y-43940476D01*
X111678572Y-43916667D01*
X111797619Y-43916667D01*
X111845238Y-43940476D01*
X111869048Y-43964286D01*
X111892857Y-44011905D01*
X111892857Y-44130952D01*
X111869048Y-44178571D01*
X111845238Y-44202381D01*
X111797619Y-44226190D01*
X111678572Y-44226190D01*
X111630953Y-44202381D01*
X111607143Y-44178571D01*
D11*
X152702381Y-36690476D02*
X152226190Y-37023810D01*
X152702381Y-37261905D02*
X151702381Y-37261905D01*
X151702381Y-36880952D01*
X151750000Y-36785714D01*
X151797619Y-36738095D01*
X151892857Y-36690476D01*
X152035714Y-36690476D01*
X152130952Y-36738095D01*
X152178571Y-36785714D01*
X152226190Y-36880952D01*
X152226190Y-37261905D01*
D12*
X154226190Y-37083333D02*
X153988095Y-37250000D01*
X154226190Y-37369047D02*
X153726190Y-37369047D01*
X153726190Y-37178571D01*
X153750000Y-37130952D01*
X153773810Y-37107143D01*
X153821429Y-37083333D01*
X153892857Y-37083333D01*
X153940476Y-37107143D01*
X153964286Y-37130952D01*
X153988095Y-37178571D01*
X153988095Y-37369047D01*
X153726190Y-36654762D02*
X153726190Y-36750000D01*
X153750000Y-36797619D01*
X153773810Y-36821428D01*
X153845238Y-36869047D01*
X153940476Y-36892857D01*
X154130952Y-36892857D01*
X154178571Y-36869047D01*
X154202381Y-36845238D01*
X154226190Y-36797619D01*
X154226190Y-36702381D01*
X154202381Y-36654762D01*
X154178571Y-36630952D01*
X154130952Y-36607143D01*
X154011905Y-36607143D01*
X153964286Y-36630952D01*
X153940476Y-36654762D01*
X153916667Y-36702381D01*
X153916667Y-36797619D01*
X153940476Y-36845238D01*
X153964286Y-36869047D01*
X154011905Y-36892857D01*
D11*
X111809524Y-41702381D02*
X111476190Y-41226190D01*
X111238095Y-41702381D02*
X111238095Y-40702381D01*
X111619048Y-40702381D01*
X111714286Y-40750000D01*
X111761905Y-40797619D01*
X111809524Y-40892857D01*
X111809524Y-41035714D01*
X111761905Y-41130952D01*
X111714286Y-41178571D01*
X111619048Y-41226190D01*
X111238095Y-41226190D01*
D12*
X111416667Y-39726190D02*
X111250000Y-39488095D01*
X111130953Y-39726190D02*
X111130953Y-39226190D01*
X111321429Y-39226190D01*
X111369048Y-39250000D01*
X111392857Y-39273810D01*
X111416667Y-39321429D01*
X111416667Y-39392857D01*
X111392857Y-39440476D01*
X111369048Y-39464286D01*
X111321429Y-39488095D01*
X111130953Y-39488095D01*
X111702381Y-39440476D02*
X111654762Y-39416667D01*
X111630953Y-39392857D01*
X111607143Y-39345238D01*
X111607143Y-39321429D01*
X111630953Y-39273810D01*
X111654762Y-39250000D01*
X111702381Y-39226190D01*
X111797619Y-39226190D01*
X111845238Y-39250000D01*
X111869048Y-39273810D01*
X111892857Y-39321429D01*
X111892857Y-39345238D01*
X111869048Y-39392857D01*
X111845238Y-39416667D01*
X111797619Y-39440476D01*
X111702381Y-39440476D01*
X111654762Y-39464286D01*
X111630953Y-39488095D01*
X111607143Y-39535714D01*
X111607143Y-39630952D01*
X111630953Y-39678571D01*
X111654762Y-39702381D01*
X111702381Y-39726190D01*
X111797619Y-39726190D01*
X111845238Y-39702381D01*
X111869048Y-39678571D01*
X111892857Y-39630952D01*
X111892857Y-39535714D01*
X111869048Y-39488095D01*
X111845238Y-39464286D01*
X111797619Y-39440476D01*
D11*
X123309524Y-45702381D02*
X122976190Y-45226190D01*
X122738095Y-45702381D02*
X122738095Y-44702381D01*
X123119048Y-44702381D01*
X123214286Y-44750000D01*
X123261905Y-44797619D01*
X123309524Y-44892857D01*
X123309524Y-45035714D01*
X123261905Y-45130952D01*
X123214286Y-45178571D01*
X123119048Y-45226190D01*
X122738095Y-45226190D01*
D12*
X122678572Y-47226190D02*
X122511905Y-46988095D01*
X122392858Y-47226190D02*
X122392858Y-46726190D01*
X122583334Y-46726190D01*
X122630953Y-46750000D01*
X122654762Y-46773810D01*
X122678572Y-46821429D01*
X122678572Y-46892857D01*
X122654762Y-46940476D01*
X122630953Y-46964286D01*
X122583334Y-46988095D01*
X122392858Y-46988095D01*
X123154762Y-47226190D02*
X122869048Y-47226190D01*
X123011905Y-47226190D02*
X123011905Y-46726190D01*
X122964286Y-46797619D01*
X122916667Y-46845238D01*
X122869048Y-46869048D01*
X123464286Y-46726190D02*
X123511905Y-46726190D01*
X123559524Y-46750000D01*
X123583333Y-46773810D01*
X123607143Y-46821429D01*
X123630952Y-46916667D01*
X123630952Y-47035714D01*
X123607143Y-47130952D01*
X123583333Y-47178571D01*
X123559524Y-47202381D01*
X123511905Y-47226190D01*
X123464286Y-47226190D01*
X123416667Y-47202381D01*
X123392857Y-47178571D01*
X123369048Y-47130952D01*
X123345238Y-47035714D01*
X123345238Y-46916667D01*
X123369048Y-46821429D01*
X123392857Y-46773810D01*
X123416667Y-46750000D01*
X123464286Y-46726190D01*
D11*
X116702381Y-46190476D02*
X116226190Y-46523810D01*
X116702381Y-46761905D02*
X115702381Y-46761905D01*
X115702381Y-46380952D01*
X115750000Y-46285714D01*
X115797619Y-46238095D01*
X115892857Y-46190476D01*
X116035714Y-46190476D01*
X116130952Y-46238095D01*
X116178571Y-46285714D01*
X116226190Y-46380952D01*
X116226190Y-46761905D01*
D12*
X114726190Y-46821428D02*
X114488095Y-46988095D01*
X114726190Y-47107142D02*
X114226190Y-47107142D01*
X114226190Y-46916666D01*
X114250000Y-46869047D01*
X114273810Y-46845238D01*
X114321429Y-46821428D01*
X114392857Y-46821428D01*
X114440476Y-46845238D01*
X114464286Y-46869047D01*
X114488095Y-46916666D01*
X114488095Y-47107142D01*
X114726190Y-46345238D02*
X114726190Y-46630952D01*
X114726190Y-46488095D02*
X114226190Y-46488095D01*
X114297619Y-46535714D01*
X114345238Y-46583333D01*
X114369048Y-46630952D01*
X114726190Y-45869048D02*
X114726190Y-46154762D01*
X114726190Y-46011905D02*
X114226190Y-46011905D01*
X114297619Y-46059524D01*
X114345238Y-46107143D01*
X114369048Y-46154762D01*
D11*
X120309524Y-45202381D02*
X119976190Y-44726190D01*
X119738095Y-45202381D02*
X119738095Y-44202381D01*
X120119048Y-44202381D01*
X120214286Y-44250000D01*
X120261905Y-44297619D01*
X120309524Y-44392857D01*
X120309524Y-44535714D01*
X120261905Y-44630952D01*
X120214286Y-44678571D01*
X120119048Y-44726190D01*
X119738095Y-44726190D01*
D12*
X119678572Y-43226190D02*
X119511905Y-42988095D01*
X119392858Y-43226190D02*
X119392858Y-42726190D01*
X119583334Y-42726190D01*
X119630953Y-42750000D01*
X119654762Y-42773810D01*
X119678572Y-42821429D01*
X119678572Y-42892857D01*
X119654762Y-42940476D01*
X119630953Y-42964286D01*
X119583334Y-42988095D01*
X119392858Y-42988095D01*
X120154762Y-43226190D02*
X119869048Y-43226190D01*
X120011905Y-43226190D02*
X120011905Y-42726190D01*
X119964286Y-42797619D01*
X119916667Y-42845238D01*
X119869048Y-42869048D01*
X120345238Y-42773810D02*
X120369048Y-42750000D01*
X120416667Y-42726190D01*
X120535714Y-42726190D01*
X120583333Y-42750000D01*
X120607143Y-42773810D01*
X120630952Y-42821429D01*
X120630952Y-42869048D01*
X120607143Y-42940476D01*
X120321429Y-43226190D01*
X120630952Y-43226190D01*
D11*
X120309524Y-47202381D02*
X119976190Y-46726190D01*
X119738095Y-47202381D02*
X119738095Y-46202381D01*
X120119048Y-46202381D01*
X120214286Y-46250000D01*
X120261905Y-46297619D01*
X120309524Y-46392857D01*
X120309524Y-46535714D01*
X120261905Y-46630952D01*
X120214286Y-46678571D01*
X120119048Y-46726190D01*
X119738095Y-46726190D01*
D12*
X119678572Y-45226190D02*
X119511905Y-44988095D01*
X119392858Y-45226190D02*
X119392858Y-44726190D01*
X119583334Y-44726190D01*
X119630953Y-44750000D01*
X119654762Y-44773810D01*
X119678572Y-44821429D01*
X119678572Y-44892857D01*
X119654762Y-44940476D01*
X119630953Y-44964286D01*
X119583334Y-44988095D01*
X119392858Y-44988095D01*
X120154762Y-45226190D02*
X119869048Y-45226190D01*
X120011905Y-45226190D02*
X120011905Y-44726190D01*
X119964286Y-44797619D01*
X119916667Y-44845238D01*
X119869048Y-44869048D01*
X120321429Y-44726190D02*
X120630952Y-44726190D01*
X120464286Y-44916667D01*
X120535714Y-44916667D01*
X120583333Y-44940476D01*
X120607143Y-44964286D01*
X120630952Y-45011905D01*
X120630952Y-45130952D01*
X120607143Y-45178571D01*
X120583333Y-45202381D01*
X120535714Y-45226190D01*
X120392857Y-45226190D01*
X120345238Y-45202381D01*
X120321429Y-45178571D01*
D11*
X143309524Y-39202381D02*
X142976190Y-38726190D01*
X142738095Y-39202381D02*
X142738095Y-38202381D01*
X143119048Y-38202381D01*
X143214286Y-38250000D01*
X143261905Y-38297619D01*
X143309524Y-38392857D01*
X143309524Y-38535714D01*
X143261905Y-38630952D01*
X143214286Y-38678571D01*
X143119048Y-38726190D01*
X142738095Y-38726190D01*
D12*
X142678572Y-37226190D02*
X142511905Y-36988095D01*
X142392858Y-37226190D02*
X142392858Y-36726190D01*
X142583334Y-36726190D01*
X142630953Y-36750000D01*
X142654762Y-36773810D01*
X142678572Y-36821429D01*
X142678572Y-36892857D01*
X142654762Y-36940476D01*
X142630953Y-36964286D01*
X142583334Y-36988095D01*
X142392858Y-36988095D01*
X143154762Y-37226190D02*
X142869048Y-37226190D01*
X143011905Y-37226190D02*
X143011905Y-36726190D01*
X142964286Y-36797619D01*
X142916667Y-36845238D01*
X142869048Y-36869048D01*
X143607143Y-36726190D02*
X143369048Y-36726190D01*
X143345238Y-36964286D01*
X143369048Y-36940476D01*
X143416667Y-36916667D01*
X143535714Y-36916667D01*
X143583333Y-36940476D01*
X143607143Y-36964286D01*
X143630952Y-37011905D01*
X143630952Y-37130952D01*
X143607143Y-37178571D01*
X143583333Y-37202381D01*
X143535714Y-37226190D01*
X143416667Y-37226190D01*
X143369048Y-37202381D01*
X143345238Y-37178571D01*
D11*
X121702381Y-38690476D02*
X121226190Y-39023810D01*
X121702381Y-39261905D02*
X120702381Y-39261905D01*
X120702381Y-38880952D01*
X120750000Y-38785714D01*
X120797619Y-38738095D01*
X120892857Y-38690476D01*
X121035714Y-38690476D01*
X121130952Y-38738095D01*
X121178571Y-38785714D01*
X121226190Y-38880952D01*
X121226190Y-39261905D01*
D12*
X123226190Y-39321428D02*
X122988095Y-39488095D01*
X123226190Y-39607142D02*
X122726190Y-39607142D01*
X122726190Y-39416666D01*
X122750000Y-39369047D01*
X122773810Y-39345238D01*
X122821429Y-39321428D01*
X122892857Y-39321428D01*
X122940476Y-39345238D01*
X122964286Y-39369047D01*
X122988095Y-39416666D01*
X122988095Y-39607142D01*
X123226190Y-38845238D02*
X123226190Y-39130952D01*
X123226190Y-38988095D02*
X122726190Y-38988095D01*
X122797619Y-39035714D01*
X122845238Y-39083333D01*
X122869048Y-39130952D01*
X122726190Y-38416667D02*
X122726190Y-38511905D01*
X122750000Y-38559524D01*
X122773810Y-38583333D01*
X122845238Y-38630952D01*
X122940476Y-38654762D01*
X123130952Y-38654762D01*
X123178571Y-38630952D01*
X123202381Y-38607143D01*
X123226190Y-38559524D01*
X123226190Y-38464286D01*
X123202381Y-38416667D01*
X123178571Y-38392857D01*
X123130952Y-38369048D01*
X123011905Y-38369048D01*
X122964286Y-38392857D01*
X122940476Y-38416667D01*
X122916667Y-38464286D01*
X122916667Y-38559524D01*
X122940476Y-38607143D01*
X122964286Y-38630952D01*
X123011905Y-38654762D01*
D11*
X125809524Y-38702381D02*
X125476190Y-38226190D01*
X125238095Y-38702381D02*
X125238095Y-37702381D01*
X125619048Y-37702381D01*
X125714286Y-37750000D01*
X125761905Y-37797619D01*
X125809524Y-37892857D01*
X125809524Y-38035714D01*
X125761905Y-38130952D01*
X125714286Y-38178571D01*
X125619048Y-38226190D01*
X125238095Y-38226190D01*
D12*
X125178572Y-36726190D02*
X125011905Y-36488095D01*
X124892858Y-36726190D02*
X124892858Y-36226190D01*
X125083334Y-36226190D01*
X125130953Y-36250000D01*
X125154762Y-36273810D01*
X125178572Y-36321429D01*
X125178572Y-36392857D01*
X125154762Y-36440476D01*
X125130953Y-36464286D01*
X125083334Y-36488095D01*
X124892858Y-36488095D01*
X125654762Y-36726190D02*
X125369048Y-36726190D01*
X125511905Y-36726190D02*
X125511905Y-36226190D01*
X125464286Y-36297619D01*
X125416667Y-36345238D01*
X125369048Y-36369048D01*
X125821429Y-36226190D02*
X126154762Y-36226190D01*
X125940476Y-36726190D01*
D11*
X168809524Y-44202381D02*
X168476190Y-43726190D01*
X168238095Y-44202381D02*
X168238095Y-43202381D01*
X168619048Y-43202381D01*
X168714286Y-43250000D01*
X168761905Y-43297619D01*
X168809524Y-43392857D01*
X168809524Y-43535714D01*
X168761905Y-43630952D01*
X168714286Y-43678571D01*
X168619048Y-43726190D01*
X168238095Y-43726190D01*
D12*
X168178572Y-42226190D02*
X168011905Y-41988095D01*
X167892858Y-42226190D02*
X167892858Y-41726190D01*
X168083334Y-41726190D01*
X168130953Y-41750000D01*
X168154762Y-41773810D01*
X168178572Y-41821429D01*
X168178572Y-41892857D01*
X168154762Y-41940476D01*
X168130953Y-41964286D01*
X168083334Y-41988095D01*
X167892858Y-41988095D01*
X168369048Y-41773810D02*
X168392858Y-41750000D01*
X168440477Y-41726190D01*
X168559524Y-41726190D01*
X168607143Y-41750000D01*
X168630953Y-41773810D01*
X168654762Y-41821429D01*
X168654762Y-41869048D01*
X168630953Y-41940476D01*
X168345239Y-42226190D01*
X168654762Y-42226190D01*
X169130952Y-42226190D02*
X168845238Y-42226190D01*
X168988095Y-42226190D02*
X168988095Y-41726190D01*
X168940476Y-41797619D01*
X168892857Y-41845238D01*
X168845238Y-41869048D01*
D11*
X168809524Y-47702381D02*
X168476190Y-47226190D01*
X168238095Y-47702381D02*
X168238095Y-46702381D01*
X168619048Y-46702381D01*
X168714286Y-46750000D01*
X168761905Y-46797619D01*
X168809524Y-46892857D01*
X168809524Y-47035714D01*
X168761905Y-47130952D01*
X168714286Y-47178571D01*
X168619048Y-47226190D01*
X168238095Y-47226190D01*
D12*
X168178572Y-45726190D02*
X168011905Y-45488095D01*
X167892858Y-45726190D02*
X167892858Y-45226190D01*
X168083334Y-45226190D01*
X168130953Y-45250000D01*
X168154762Y-45273810D01*
X168178572Y-45321429D01*
X168178572Y-45392857D01*
X168154762Y-45440476D01*
X168130953Y-45464286D01*
X168083334Y-45488095D01*
X167892858Y-45488095D01*
X168369048Y-45273810D02*
X168392858Y-45250000D01*
X168440477Y-45226190D01*
X168559524Y-45226190D01*
X168607143Y-45250000D01*
X168630953Y-45273810D01*
X168654762Y-45321429D01*
X168654762Y-45369048D01*
X168630953Y-45440476D01*
X168345239Y-45726190D01*
X168654762Y-45726190D01*
X168845238Y-45273810D02*
X168869048Y-45250000D01*
X168916667Y-45226190D01*
X169035714Y-45226190D01*
X169083333Y-45250000D01*
X169107143Y-45273810D01*
X169130952Y-45321429D01*
X169130952Y-45369048D01*
X169107143Y-45440476D01*
X168821429Y-45726190D01*
X169130952Y-45726190D01*
D11*
X168809524Y-45952381D02*
X168476190Y-45476190D01*
X168238095Y-45952381D02*
X168238095Y-44952381D01*
X168619048Y-44952381D01*
X168714286Y-45000000D01*
X168761905Y-45047619D01*
X168809524Y-45142857D01*
X168809524Y-45285714D01*
X168761905Y-45380952D01*
X168714286Y-45428571D01*
X168619048Y-45476190D01*
X168238095Y-45476190D01*
D12*
X168178572Y-43976190D02*
X168011905Y-43738095D01*
X167892858Y-43976190D02*
X167892858Y-43476190D01*
X168083334Y-43476190D01*
X168130953Y-43500000D01*
X168154762Y-43523810D01*
X168178572Y-43571429D01*
X168178572Y-43642857D01*
X168154762Y-43690476D01*
X168130953Y-43714286D01*
X168083334Y-43738095D01*
X167892858Y-43738095D01*
X168369048Y-43523810D02*
X168392858Y-43500000D01*
X168440477Y-43476190D01*
X168559524Y-43476190D01*
X168607143Y-43500000D01*
X168630953Y-43523810D01*
X168654762Y-43571429D01*
X168654762Y-43619048D01*
X168630953Y-43690476D01*
X168345239Y-43976190D01*
X168654762Y-43976190D01*
X168821429Y-43476190D02*
X169130952Y-43476190D01*
X168964286Y-43666667D01*
X169035714Y-43666667D01*
X169083333Y-43690476D01*
X169107143Y-43714286D01*
X169130952Y-43761905D01*
X169130952Y-43880952D01*
X169107143Y-43928571D01*
X169083333Y-43952381D01*
X169035714Y-43976190D01*
X168892857Y-43976190D01*
X168845238Y-43952381D01*
X168821429Y-43928571D01*
D11*
X154702381Y-36690476D02*
X154226190Y-37023810D01*
X154702381Y-37261905D02*
X153702381Y-37261905D01*
X153702381Y-36880952D01*
X153750000Y-36785714D01*
X153797619Y-36738095D01*
X153892857Y-36690476D01*
X154035714Y-36690476D01*
X154130952Y-36738095D01*
X154178571Y-36785714D01*
X154226190Y-36880952D01*
X154226190Y-37261905D01*
D12*
X156226190Y-37321428D02*
X155988095Y-37488095D01*
X156226190Y-37607142D02*
X155726190Y-37607142D01*
X155726190Y-37416666D01*
X155750000Y-37369047D01*
X155773810Y-37345238D01*
X155821429Y-37321428D01*
X155892857Y-37321428D01*
X155940476Y-37345238D01*
X155964286Y-37369047D01*
X155988095Y-37416666D01*
X155988095Y-37607142D01*
X155773810Y-37130952D02*
X155750000Y-37107142D01*
X155726190Y-37059523D01*
X155726190Y-36940476D01*
X155750000Y-36892857D01*
X155773810Y-36869047D01*
X155821429Y-36845238D01*
X155869048Y-36845238D01*
X155940476Y-36869047D01*
X156226190Y-37154761D01*
X156226190Y-36845238D01*
X155892857Y-36416667D02*
X156226190Y-36416667D01*
X155702381Y-36535714D02*
X156059524Y-36654762D01*
X156059524Y-36345238D01*
D11*
X156702381Y-36690476D02*
X156226190Y-37023810D01*
X156702381Y-37261905D02*
X155702381Y-37261905D01*
X155702381Y-36880952D01*
X155750000Y-36785714D01*
X155797619Y-36738095D01*
X155892857Y-36690476D01*
X156035714Y-36690476D01*
X156130952Y-36738095D01*
X156178571Y-36785714D01*
X156226190Y-36880952D01*
X156226190Y-37261905D01*
D12*
X158226190Y-37321428D02*
X157988095Y-37488095D01*
X158226190Y-37607142D02*
X157726190Y-37607142D01*
X157726190Y-37416666D01*
X157750000Y-37369047D01*
X157773810Y-37345238D01*
X157821429Y-37321428D01*
X157892857Y-37321428D01*
X157940476Y-37345238D01*
X157964286Y-37369047D01*
X157988095Y-37416666D01*
X157988095Y-37607142D01*
X157773810Y-37130952D02*
X157750000Y-37107142D01*
X157726190Y-37059523D01*
X157726190Y-36940476D01*
X157750000Y-36892857D01*
X157773810Y-36869047D01*
X157821429Y-36845238D01*
X157869048Y-36845238D01*
X157940476Y-36869047D01*
X158226190Y-37154761D01*
X158226190Y-36845238D01*
X157726190Y-36392857D02*
X157726190Y-36630952D01*
X157964286Y-36654762D01*
X157940476Y-36630952D01*
X157916667Y-36583333D01*
X157916667Y-36464286D01*
X157940476Y-36416667D01*
X157964286Y-36392857D01*
X158011905Y-36369048D01*
X158130952Y-36369048D01*
X158178571Y-36392857D01*
X158202381Y-36416667D01*
X158226190Y-36464286D01*
X158226190Y-36583333D01*
X158202381Y-36630952D01*
X158178571Y-36654762D01*
D11*
X165952381Y-50440476D02*
X165476190Y-50773810D01*
X165952381Y-51011905D02*
X164952381Y-51011905D01*
X164952381Y-50630952D01*
X165000000Y-50535714D01*
X165047619Y-50488095D01*
X165142857Y-50440476D01*
X165285714Y-50440476D01*
X165380952Y-50488095D01*
X165428571Y-50535714D01*
X165476190Y-50630952D01*
X165476190Y-51011905D01*
D12*
X167476190Y-51071428D02*
X167238095Y-51238095D01*
X167476190Y-51357142D02*
X166976190Y-51357142D01*
X166976190Y-51166666D01*
X167000000Y-51119047D01*
X167023810Y-51095238D01*
X167071429Y-51071428D01*
X167142857Y-51071428D01*
X167190476Y-51095238D01*
X167214286Y-51119047D01*
X167238095Y-51166666D01*
X167238095Y-51357142D01*
X167023810Y-50880952D02*
X167000000Y-50857142D01*
X166976190Y-50809523D01*
X166976190Y-50690476D01*
X167000000Y-50642857D01*
X167023810Y-50619047D01*
X167071429Y-50595238D01*
X167119048Y-50595238D01*
X167190476Y-50619047D01*
X167476190Y-50904761D01*
X167476190Y-50595238D01*
X167190476Y-50309524D02*
X167166667Y-50357143D01*
X167142857Y-50380952D01*
X167095238Y-50404762D01*
X167071429Y-50404762D01*
X167023810Y-50380952D01*
X167000000Y-50357143D01*
X166976190Y-50309524D01*
X166976190Y-50214286D01*
X167000000Y-50166667D01*
X167023810Y-50142857D01*
X167071429Y-50119048D01*
X167095238Y-50119048D01*
X167142857Y-50142857D01*
X167166667Y-50166667D01*
X167190476Y-50214286D01*
X167190476Y-50309524D01*
X167214286Y-50357143D01*
X167238095Y-50380952D01*
X167285714Y-50404762D01*
X167380952Y-50404762D01*
X167428571Y-50380952D01*
X167452381Y-50357143D01*
X167476190Y-50309524D01*
X167476190Y-50214286D01*
X167452381Y-50166667D01*
X167428571Y-50142857D01*
X167380952Y-50119048D01*
X167285714Y-50119048D01*
X167238095Y-50142857D01*
X167214286Y-50166667D01*
X167190476Y-50214286D01*
D11*
X107357143Y-50002381D02*
X106880952Y-50002381D01*
X106880952Y-49002381D01*
X107690476Y-49478571D02*
X108023810Y-49478571D01*
X108166667Y-50002381D02*
X107690476Y-50002381D01*
X107690476Y-49002381D01*
X108166667Y-49002381D01*
X108595238Y-50002381D02*
X108595238Y-49002381D01*
X108833333Y-49002381D01*
X108976191Y-49050000D01*
X109071429Y-49145238D01*
X109119048Y-49240476D01*
X109166667Y-49430952D01*
X109166667Y-49573810D01*
X109119048Y-49764286D01*
X109071429Y-49859524D01*
X108976191Y-49954762D01*
X108833333Y-50002381D01*
X108595238Y-50002381D01*
D10*
X107495238Y-46911905D02*
X107552381Y-46930952D01*
X107647619Y-46930952D01*
X107685715Y-46911905D01*
X107704762Y-46892857D01*
X107723810Y-46854762D01*
X107723810Y-46816667D01*
X107704762Y-46778571D01*
X107685715Y-46759524D01*
X107647619Y-46740476D01*
X107571429Y-46721429D01*
X107533334Y-46702381D01*
X107514286Y-46683333D01*
X107495238Y-46645238D01*
X107495238Y-46607143D01*
X107514286Y-46569048D01*
X107533334Y-46550000D01*
X107571429Y-46530952D01*
X107666667Y-46530952D01*
X107723810Y-46550000D01*
X107895238Y-46930952D02*
X107895238Y-46530952D01*
X107990476Y-46530952D01*
X108047619Y-46550000D01*
X108085714Y-46588095D01*
X108104762Y-46626190D01*
X108123810Y-46702381D01*
X108123810Y-46759524D01*
X108104762Y-46835714D01*
X108085714Y-46873810D01*
X108047619Y-46911905D01*
X107990476Y-46930952D01*
X107895238Y-46930952D01*
X108504762Y-46930952D02*
X108276190Y-46930952D01*
X108390476Y-46930952D02*
X108390476Y-46530952D01*
X108352381Y-46588095D01*
X108314286Y-46626190D01*
X108276190Y-46645238D01*
D11*
X111952381Y-53404762D02*
X112095238Y-53452381D01*
X112333334Y-53452381D01*
X112428572Y-53404762D01*
X112476191Y-53357143D01*
X112523810Y-53261905D01*
X112523810Y-53166667D01*
X112476191Y-53071429D01*
X112428572Y-53023810D01*
X112333334Y-52976190D01*
X112142857Y-52928571D01*
X112047619Y-52880952D01*
X112000000Y-52833333D01*
X111952381Y-52738095D01*
X111952381Y-52642857D01*
X112000000Y-52547619D01*
X112047619Y-52500000D01*
X112142857Y-52452381D01*
X112380953Y-52452381D01*
X112523810Y-52500000D01*
X112857143Y-52452381D02*
X113095238Y-53452381D01*
X113285715Y-52738095D01*
X113476191Y-53452381D01*
X113714286Y-52452381D01*
X113857143Y-53547619D02*
X114619048Y-53547619D01*
X114857143Y-53452381D02*
X114857143Y-52452381D01*
X115238096Y-52452381D01*
X115333334Y-52500000D01*
X115380953Y-52547619D01*
X115428572Y-52642857D01*
X115428572Y-52785714D01*
X115380953Y-52880952D01*
X115333334Y-52928571D01*
X115238096Y-52976190D01*
X114857143Y-52976190D01*
X116285715Y-52785714D02*
X116285715Y-53452381D01*
X115857143Y-52785714D02*
X115857143Y-53309524D01*
X115904762Y-53404762D01*
X116000000Y-53452381D01*
X116142858Y-53452381D01*
X116238096Y-53404762D01*
X116285715Y-53357143D01*
X116714286Y-53404762D02*
X116809524Y-53452381D01*
X117000000Y-53452381D01*
X117095239Y-53404762D01*
X117142858Y-53309524D01*
X117142858Y-53261905D01*
X117095239Y-53166667D01*
X117000000Y-53119048D01*
X116857143Y-53119048D01*
X116761905Y-53071429D01*
X116714286Y-52976190D01*
X116714286Y-52928571D01*
X116761905Y-52833333D01*
X116857143Y-52785714D01*
X117000000Y-52785714D01*
X117095239Y-52833333D01*
X117571429Y-53452381D02*
X117571429Y-52452381D01*
X118000001Y-53452381D02*
X118000001Y-52928571D01*
X117952382Y-52833333D01*
X117857144Y-52785714D01*
X117714286Y-52785714D01*
X117619048Y-52833333D01*
X117571429Y-52880952D01*
X113666667Y-47754762D02*
X113809524Y-47802381D01*
X114047620Y-47802381D01*
X114142858Y-47754762D01*
X114190477Y-47707143D01*
X114238096Y-47611905D01*
X114238096Y-47516667D01*
X114190477Y-47421429D01*
X114142858Y-47373810D01*
X114047620Y-47326190D01*
X113857143Y-47278571D01*
X113761905Y-47230952D01*
X113714286Y-47183333D01*
X113666667Y-47088095D01*
X113666667Y-46992857D01*
X113714286Y-46897619D01*
X113761905Y-46850000D01*
X113857143Y-46802381D01*
X114095239Y-46802381D01*
X114238096Y-46850000D01*
X114571429Y-46802381D02*
X114809524Y-47802381D01*
X115000001Y-47088095D01*
X115190477Y-47802381D01*
X115428572Y-46802381D01*
X116333334Y-47802381D02*
X115761905Y-47802381D01*
X116047619Y-47802381D02*
X116047619Y-46802381D01*
X115952381Y-46945238D01*
X115857143Y-47040476D01*
X115761905Y-47088095D01*
X143616667Y-50071429D02*
X143616667Y-49595238D01*
X143902381Y-50166667D02*
X142902381Y-49833334D01*
X143902381Y-49500000D01*
X142902381Y-49309524D02*
X142902381Y-48738095D01*
X143902381Y-49023810D02*
X142902381Y-49023810D01*
X143902381Y-48404762D02*
X142902381Y-48404762D01*
X143616667Y-48071428D01*
X142902381Y-47738095D01*
X143902381Y-47738095D01*
X143378571Y-47261905D02*
X143378571Y-46928571D01*
X143902381Y-46785714D02*
X143902381Y-47261905D01*
X142902381Y-47261905D01*
X142902381Y-46785714D01*
X142950000Y-45833333D02*
X142902381Y-45928571D01*
X142902381Y-46071428D01*
X142950000Y-46214286D01*
X143045238Y-46309524D01*
X143140476Y-46357143D01*
X143330952Y-46404762D01*
X143473810Y-46404762D01*
X143664286Y-46357143D01*
X143759524Y-46309524D01*
X143854762Y-46214286D01*
X143902381Y-46071428D01*
X143902381Y-45976190D01*
X143854762Y-45833333D01*
X143807143Y-45785714D01*
X143473810Y-45785714D01*
X143473810Y-45976190D01*
X143616667Y-45404762D02*
X143616667Y-44928571D01*
X143902381Y-45500000D02*
X142902381Y-45166667D01*
X143902381Y-44833333D01*
X142902381Y-44595238D02*
X142902381Y-43976190D01*
X143283333Y-44309524D01*
X143283333Y-44166666D01*
X143330952Y-44071428D01*
X143378571Y-44023809D01*
X143473810Y-43976190D01*
X143711905Y-43976190D01*
X143807143Y-44023809D01*
X143854762Y-44071428D01*
X143902381Y-44166666D01*
X143902381Y-44452381D01*
X143854762Y-44547619D01*
X143807143Y-44595238D01*
X142997619Y-43595238D02*
X142950000Y-43547619D01*
X142902381Y-43452381D01*
X142902381Y-43214285D01*
X142950000Y-43119047D01*
X142997619Y-43071428D01*
X143092857Y-43023809D01*
X143188095Y-43023809D01*
X143330952Y-43071428D01*
X143902381Y-43642857D01*
X143902381Y-43023809D01*
X143330952Y-42452381D02*
X143283333Y-42547619D01*
X143235714Y-42595238D01*
X143140476Y-42642857D01*
X143092857Y-42642857D01*
X142997619Y-42595238D01*
X142950000Y-42547619D01*
X142902381Y-42452381D01*
X142902381Y-42261904D01*
X142950000Y-42166666D01*
X142997619Y-42119047D01*
X143092857Y-42071428D01*
X143140476Y-42071428D01*
X143235714Y-42119047D01*
X143283333Y-42166666D01*
X143330952Y-42261904D01*
X143330952Y-42452381D01*
X143378571Y-42547619D01*
X143426190Y-42595238D01*
X143521429Y-42642857D01*
X143711905Y-42642857D01*
X143807143Y-42595238D01*
X143854762Y-42547619D01*
X143902381Y-42452381D01*
X143902381Y-42261904D01*
X143854762Y-42166666D01*
X143807143Y-42119047D01*
X143711905Y-42071428D01*
X143521429Y-42071428D01*
X143426190Y-42119047D01*
X143378571Y-42166666D01*
X143330952Y-42261904D01*
X143902381Y-41642857D02*
X142902381Y-41642857D01*
X142902381Y-41261904D01*
X142950000Y-41166666D01*
X142997619Y-41119047D01*
X143092857Y-41071428D01*
X143235714Y-41071428D01*
X143330952Y-41119047D01*
X143378571Y-41166666D01*
X143426190Y-41261904D01*
X143426190Y-41642857D01*
X143521429Y-40642857D02*
X143521429Y-39880952D01*
X143616667Y-39452381D02*
X143616667Y-38976190D01*
X143902381Y-39547619D02*
X142902381Y-39214286D01*
X143902381Y-38880952D01*
X142902381Y-38547619D02*
X143711905Y-38547619D01*
X143807143Y-38500000D01*
X143854762Y-38452381D01*
X143902381Y-38357143D01*
X143902381Y-38166666D01*
X143854762Y-38071428D01*
X143807143Y-38023809D01*
X143711905Y-37976190D01*
X142902381Y-37976190D01*
X148952381Y-44761905D02*
X149761905Y-44761905D01*
X149857143Y-44714286D01*
X149904762Y-44666667D01*
X149952381Y-44571429D01*
X149952381Y-44380952D01*
X149904762Y-44285714D01*
X149857143Y-44238095D01*
X149761905Y-44190476D01*
X148952381Y-44190476D01*
X149952381Y-43190476D02*
X149952381Y-43761905D01*
X149952381Y-43476191D02*
X148952381Y-43476191D01*
X149095238Y-43571429D01*
X149190476Y-43666667D01*
X149238095Y-43761905D01*
X143952381Y-43976190D02*
X143952381Y-44452381D01*
X142952381Y-44452381D01*
X143952381Y-43642857D02*
X142952381Y-43642857D01*
X143666667Y-43309523D01*
X142952381Y-42976190D01*
X143952381Y-42976190D01*
X143952381Y-41976190D02*
X143952381Y-42547619D01*
X143952381Y-42261905D02*
X142952381Y-42261905D01*
X143095238Y-42357143D01*
X143190476Y-42452381D01*
X143238095Y-42547619D01*
X143952381Y-41023809D02*
X143952381Y-41595238D01*
X143952381Y-41309524D02*
X142952381Y-41309524D01*
X143095238Y-41404762D01*
X143190476Y-41500000D01*
X143238095Y-41595238D01*
X143952381Y-40071428D02*
X143952381Y-40642857D01*
X143952381Y-40357143D02*
X142952381Y-40357143D01*
X143095238Y-40452381D01*
X143190476Y-40547619D01*
X143238095Y-40642857D01*
X142952381Y-39738095D02*
X142952381Y-39071428D01*
X143952381Y-39500000D01*
X143571429Y-38690476D02*
X143571429Y-37928571D01*
X142952381Y-37547619D02*
X142952381Y-36928571D01*
X143333333Y-37261905D01*
X143333333Y-37119047D01*
X143380952Y-37023809D01*
X143428571Y-36976190D01*
X143523810Y-36928571D01*
X143761905Y-36928571D01*
X143857143Y-36976190D01*
X143904762Y-37023809D01*
X143952381Y-37119047D01*
X143952381Y-37404762D01*
X143904762Y-37500000D01*
X143857143Y-37547619D01*
X143857143Y-36500000D02*
X143904762Y-36452381D01*
X143952381Y-36500000D01*
X143904762Y-36547619D01*
X143857143Y-36500000D01*
X143952381Y-36500000D01*
X142952381Y-36119048D02*
X142952381Y-35500000D01*
X143333333Y-35833334D01*
X143333333Y-35690476D01*
X143380952Y-35595238D01*
X143428571Y-35547619D01*
X143523810Y-35500000D01*
X143761905Y-35500000D01*
X143857143Y-35547619D01*
X143904762Y-35595238D01*
X143952381Y-35690476D01*
X143952381Y-35976191D01*
X143904762Y-36071429D01*
X143857143Y-36119048D01*
D13*
X138390476Y-39561905D02*
X138390476Y-40209524D01*
X138428571Y-40285714D01*
X138466667Y-40323810D01*
X138542857Y-40361905D01*
X138695238Y-40361905D01*
X138771429Y-40323810D01*
X138809524Y-40285714D01*
X138847619Y-40209524D01*
X138847619Y-39561905D01*
X139190476Y-39638095D02*
X139228571Y-39600000D01*
X139304762Y-39561905D01*
X139495238Y-39561905D01*
X139571428Y-39600000D01*
X139609524Y-39638095D01*
X139647619Y-39714286D01*
X139647619Y-39790476D01*
X139609524Y-39904762D01*
X139152381Y-40361905D01*
X139647619Y-40361905D01*
D11*
X112547619Y-42954762D02*
X112690476Y-43002381D01*
X112928572Y-43002381D01*
X113023810Y-42954762D01*
X113071429Y-42907143D01*
X113119048Y-42811905D01*
X113119048Y-42716667D01*
X113071429Y-42621429D01*
X113023810Y-42573810D01*
X112928572Y-42526190D01*
X112738095Y-42478571D01*
X112642857Y-42430952D01*
X112595238Y-42383333D01*
X112547619Y-42288095D01*
X112547619Y-42192857D01*
X112595238Y-42097619D01*
X112642857Y-42050000D01*
X112738095Y-42002381D01*
X112976191Y-42002381D01*
X113119048Y-42050000D01*
X113547619Y-43002381D02*
X113547619Y-42002381D01*
X114119048Y-43002381D01*
X114119048Y-42002381D01*
X114500000Y-42002381D02*
X115166667Y-42002381D01*
X114738095Y-43002381D01*
X115976191Y-42335714D02*
X115976191Y-43002381D01*
X115738095Y-41954762D02*
X115500000Y-42669048D01*
X116119048Y-42669048D01*
X116976191Y-43002381D02*
X116500000Y-43002381D01*
X116500000Y-42002381D01*
X117166667Y-42002381D02*
X117500000Y-43002381D01*
X117833334Y-42002381D01*
X118738096Y-42907143D02*
X118690477Y-42954762D01*
X118547620Y-43002381D01*
X118452382Y-43002381D01*
X118309524Y-42954762D01*
X118214286Y-42859524D01*
X118166667Y-42764286D01*
X118119048Y-42573810D01*
X118119048Y-42430952D01*
X118166667Y-42240476D01*
X118214286Y-42145238D01*
X118309524Y-42050000D01*
X118452382Y-42002381D01*
X118547620Y-42002381D01*
X118690477Y-42050000D01*
X118738096Y-42097619D01*
X119690477Y-43002381D02*
X119119048Y-43002381D01*
X119404762Y-43002381D02*
X119404762Y-42002381D01*
X119309524Y-42145238D01*
X119214286Y-42240476D01*
X119119048Y-42288095D01*
X120071429Y-42097619D02*
X120119048Y-42050000D01*
X120214286Y-42002381D01*
X120452382Y-42002381D01*
X120547620Y-42050000D01*
X120595239Y-42097619D01*
X120642858Y-42192857D01*
X120642858Y-42288095D01*
X120595239Y-42430952D01*
X120023810Y-43002381D01*
X120642858Y-43002381D01*
X121547620Y-42002381D02*
X121071429Y-42002381D01*
X121023810Y-42478571D01*
X121071429Y-42430952D01*
X121166667Y-42383333D01*
X121404763Y-42383333D01*
X121500001Y-42430952D01*
X121547620Y-42478571D01*
X121595239Y-42573810D01*
X121595239Y-42811905D01*
X121547620Y-42907143D01*
X121500001Y-42954762D01*
X121404763Y-43002381D01*
X121166667Y-43002381D01*
X121071429Y-42954762D01*
X121023810Y-42907143D01*
X121976191Y-42716667D02*
X122452382Y-42716667D01*
X121880953Y-43002381D02*
X122214286Y-42002381D01*
X122547620Y-43002381D01*
X116890476Y-38561905D02*
X116890476Y-39209524D01*
X116928571Y-39285714D01*
X116966667Y-39323810D01*
X117042857Y-39361905D01*
X117195238Y-39361905D01*
X117271429Y-39323810D01*
X117309524Y-39285714D01*
X117347619Y-39209524D01*
X117347619Y-38561905D01*
X117652381Y-38561905D02*
X118147619Y-38561905D01*
X117880952Y-38866667D01*
X117995238Y-38866667D01*
X118071428Y-38904762D01*
X118109524Y-38942857D01*
X118147619Y-39019048D01*
X118147619Y-39209524D01*
X118109524Y-39285714D01*
X118071428Y-39323810D01*
X117995238Y-39361905D01*
X117766666Y-39361905D01*
X117690476Y-39323810D01*
X117652381Y-39285714D01*
X136452381Y-43976190D02*
X136452381Y-44452381D01*
X135452381Y-44452381D01*
X136452381Y-43642857D02*
X135452381Y-43642857D01*
X136166667Y-43309523D01*
X135452381Y-42976190D01*
X136452381Y-42976190D01*
X136452381Y-41976190D02*
X136452381Y-42547619D01*
X136452381Y-42261905D02*
X135452381Y-42261905D01*
X135595238Y-42357143D01*
X135690476Y-42452381D01*
X135738095Y-42547619D01*
X136452381Y-41023809D02*
X136452381Y-41595238D01*
X136452381Y-41309524D02*
X135452381Y-41309524D01*
X135595238Y-41404762D01*
X135690476Y-41500000D01*
X135738095Y-41595238D01*
X136452381Y-40071428D02*
X136452381Y-40642857D01*
X136452381Y-40357143D02*
X135452381Y-40357143D01*
X135595238Y-40452381D01*
X135690476Y-40547619D01*
X135738095Y-40642857D01*
X135452381Y-39738095D02*
X135452381Y-39071428D01*
X136452381Y-39500000D01*
X136071429Y-38690476D02*
X136071429Y-37928571D01*
X135452381Y-36976190D02*
X135452381Y-37452381D01*
X135928571Y-37500000D01*
X135880952Y-37452381D01*
X135833333Y-37357143D01*
X135833333Y-37119047D01*
X135880952Y-37023809D01*
X135928571Y-36976190D01*
X136023810Y-36928571D01*
X136261905Y-36928571D01*
X136357143Y-36976190D01*
X136404762Y-37023809D01*
X136452381Y-37119047D01*
X136452381Y-37357143D01*
X136404762Y-37452381D01*
X136357143Y-37500000D01*
X136357143Y-36500000D02*
X136404762Y-36452381D01*
X136452381Y-36500000D01*
X136404762Y-36547619D01*
X136357143Y-36500000D01*
X136452381Y-36500000D01*
X135452381Y-35833334D02*
X135452381Y-35738095D01*
X135500000Y-35642857D01*
X135547619Y-35595238D01*
X135642857Y-35547619D01*
X135833333Y-35500000D01*
X136071429Y-35500000D01*
X136261905Y-35547619D01*
X136357143Y-35595238D01*
X136404762Y-35642857D01*
X136452381Y-35738095D01*
X136452381Y-35833334D01*
X136404762Y-35928572D01*
X136357143Y-35976191D01*
X136261905Y-36023810D01*
X136071429Y-36071429D01*
X135833333Y-36071429D01*
X135642857Y-36023810D01*
X135547619Y-35976191D01*
X135500000Y-35928572D01*
X135452381Y-35833334D01*
D13*
X130890476Y-39561905D02*
X130890476Y-40209524D01*
X130928571Y-40285714D01*
X130966667Y-40323810D01*
X131042857Y-40361905D01*
X131195238Y-40361905D01*
X131271429Y-40323810D01*
X131309524Y-40285714D01*
X131347619Y-40209524D01*
X131347619Y-39561905D01*
X132071428Y-39828571D02*
X132071428Y-40361905D01*
X131880952Y-39523810D02*
X131690476Y-40095238D01*
X132185714Y-40095238D01*
D11*
X160666667Y-50166667D02*
X160666667Y-49690476D01*
X160952381Y-50261905D02*
X159952381Y-49928572D01*
X160952381Y-49595238D01*
X159952381Y-49404762D02*
X159952381Y-48833333D01*
X160952381Y-49119048D02*
X159952381Y-49119048D01*
X160047619Y-48547619D02*
X160000000Y-48500000D01*
X159952381Y-48404762D01*
X159952381Y-48166666D01*
X160000000Y-48071428D01*
X160047619Y-48023809D01*
X160142857Y-47976190D01*
X160238095Y-47976190D01*
X160380952Y-48023809D01*
X160952381Y-48595238D01*
X160952381Y-47976190D01*
X160285714Y-47119047D02*
X160952381Y-47119047D01*
X159904762Y-47357143D02*
X160619048Y-47595238D01*
X160619048Y-46976190D01*
X160857143Y-46023809D02*
X160904762Y-46071428D01*
X160952381Y-46214285D01*
X160952381Y-46309523D01*
X160904762Y-46452381D01*
X160809524Y-46547619D01*
X160714286Y-46595238D01*
X160523810Y-46642857D01*
X160380952Y-46642857D01*
X160190476Y-46595238D01*
X160095238Y-46547619D01*
X160000000Y-46452381D01*
X159952381Y-46309523D01*
X159952381Y-46214285D01*
X160000000Y-46071428D01*
X160047619Y-46023809D01*
X160904762Y-45642857D02*
X160952381Y-45500000D01*
X160952381Y-45261904D01*
X160904762Y-45166666D01*
X160857143Y-45119047D01*
X160761905Y-45071428D01*
X160666667Y-45071428D01*
X160571429Y-45119047D01*
X160523810Y-45166666D01*
X160476190Y-45261904D01*
X160428571Y-45452381D01*
X160380952Y-45547619D01*
X160333333Y-45595238D01*
X160238095Y-45642857D01*
X160142857Y-45642857D01*
X160047619Y-45595238D01*
X160000000Y-45547619D01*
X159952381Y-45452381D01*
X159952381Y-45214285D01*
X160000000Y-45071428D01*
X159952381Y-44452381D02*
X159952381Y-44357142D01*
X160000000Y-44261904D01*
X160047619Y-44214285D01*
X160142857Y-44166666D01*
X160333333Y-44119047D01*
X160571429Y-44119047D01*
X160761905Y-44166666D01*
X160857143Y-44214285D01*
X160904762Y-44261904D01*
X160952381Y-44357142D01*
X160952381Y-44452381D01*
X160904762Y-44547619D01*
X160857143Y-44595238D01*
X160761905Y-44642857D01*
X160571429Y-44690476D01*
X160333333Y-44690476D01*
X160142857Y-44642857D01*
X160047619Y-44595238D01*
X160000000Y-44547619D01*
X159952381Y-44452381D01*
X160952381Y-43166666D02*
X160952381Y-43738095D01*
X160952381Y-43452381D02*
X159952381Y-43452381D01*
X160095238Y-43547619D01*
X160190476Y-43642857D01*
X160238095Y-43738095D01*
X160571429Y-42738095D02*
X160571429Y-41976190D01*
X160904762Y-41547619D02*
X160952381Y-41404762D01*
X160952381Y-41166666D01*
X160904762Y-41071428D01*
X160857143Y-41023809D01*
X160761905Y-40976190D01*
X160666667Y-40976190D01*
X160571429Y-41023809D01*
X160523810Y-41071428D01*
X160476190Y-41166666D01*
X160428571Y-41357143D01*
X160380952Y-41452381D01*
X160333333Y-41500000D01*
X160238095Y-41547619D01*
X160142857Y-41547619D01*
X160047619Y-41500000D01*
X160000000Y-41452381D01*
X159952381Y-41357143D01*
X159952381Y-41119047D01*
X160000000Y-40976190D01*
X160904762Y-40595238D02*
X160952381Y-40452381D01*
X160952381Y-40214285D01*
X160904762Y-40119047D01*
X160857143Y-40071428D01*
X160761905Y-40023809D01*
X160666667Y-40023809D01*
X160571429Y-40071428D01*
X160523810Y-40119047D01*
X160476190Y-40214285D01*
X160428571Y-40404762D01*
X160380952Y-40500000D01*
X160333333Y-40547619D01*
X160238095Y-40595238D01*
X160142857Y-40595238D01*
X160047619Y-40547619D01*
X160000000Y-40500000D01*
X159952381Y-40404762D01*
X159952381Y-40166666D01*
X160000000Y-40023809D01*
X160952381Y-39595238D02*
X159952381Y-39595238D01*
X160428571Y-39595238D02*
X160428571Y-39023809D01*
X160952381Y-39023809D02*
X159952381Y-39023809D01*
X160952381Y-38547619D02*
X159952381Y-38547619D01*
X160666667Y-38214285D01*
X159952381Y-37880952D01*
X160952381Y-37880952D01*
X163452381Y-44761905D02*
X164261905Y-44761905D01*
X164357143Y-44714286D01*
X164404762Y-44666667D01*
X164452381Y-44571429D01*
X164452381Y-44380952D01*
X164404762Y-44285714D01*
X164357143Y-44238095D01*
X164261905Y-44190476D01*
X163452381Y-44190476D01*
X163452381Y-43285714D02*
X163452381Y-43476191D01*
X163500000Y-43571429D01*
X163547619Y-43619048D01*
X163690476Y-43714286D01*
X163880952Y-43761905D01*
X164261905Y-43761905D01*
X164357143Y-43714286D01*
X164404762Y-43666667D01*
X164452381Y-43571429D01*
X164452381Y-43380952D01*
X164404762Y-43285714D01*
X164357143Y-43238095D01*
X164261905Y-43190476D01*
X164023810Y-43190476D01*
X163928571Y-43238095D01*
X163880952Y-43285714D01*
X163833333Y-43380952D01*
X163833333Y-43571429D01*
X163880952Y-43666667D01*
X163928571Y-43714286D01*
X164023810Y-43761905D01*
X171654285Y-52882143D02*
X171606666Y-52929762D01*
X171463809Y-52977381D01*
X171368571Y-52977381D01*
X171225713Y-52929762D01*
X171130475Y-52834524D01*
X171082856Y-52739286D01*
X171035237Y-52548810D01*
X171035237Y-52405952D01*
X171082856Y-52215476D01*
X171130475Y-52120238D01*
X171225713Y-52025000D01*
X171368571Y-51977381D01*
X171463809Y-51977381D01*
X171606666Y-52025000D01*
X171654285Y-52072619D01*
X172082856Y-52977381D02*
X172082856Y-52310714D01*
X172082856Y-52501190D02*
X172130475Y-52405952D01*
X172178094Y-52358333D01*
X172273332Y-52310714D01*
X172368571Y-52310714D01*
X172606666Y-52310714D02*
X172844761Y-52977381D01*
X173082857Y-52310714D02*
X172844761Y-52977381D01*
X172749523Y-53215476D01*
X172701904Y-53263095D01*
X172606666Y-53310714D01*
X173416190Y-52929762D02*
X173511428Y-52977381D01*
X173701904Y-52977381D01*
X173797143Y-52929762D01*
X173844762Y-52834524D01*
X173844762Y-52786905D01*
X173797143Y-52691667D01*
X173701904Y-52644048D01*
X173559047Y-52644048D01*
X173463809Y-52596429D01*
X173416190Y-52501190D01*
X173416190Y-52453571D01*
X173463809Y-52358333D01*
X173559047Y-52310714D01*
X173701904Y-52310714D01*
X173797143Y-52358333D01*
X174130476Y-52310714D02*
X174511428Y-52310714D01*
X174273333Y-51977381D02*
X174273333Y-52834524D01*
X174320952Y-52929762D01*
X174416190Y-52977381D01*
X174511428Y-52977381D01*
X175273334Y-52977381D02*
X175273334Y-52453571D01*
X175225715Y-52358333D01*
X175130477Y-52310714D01*
X174940000Y-52310714D01*
X174844762Y-52358333D01*
X175273334Y-52929762D02*
X175178096Y-52977381D01*
X174940000Y-52977381D01*
X174844762Y-52929762D01*
X174797143Y-52834524D01*
X174797143Y-52739286D01*
X174844762Y-52644048D01*
X174940000Y-52596429D01*
X175178096Y-52596429D01*
X175273334Y-52548810D01*
X175892381Y-52977381D02*
X175797143Y-52929762D01*
X175749524Y-52834524D01*
X175749524Y-51977381D01*
X172963809Y-48976190D02*
X172963809Y-49452381D01*
X172630476Y-48452381D02*
X172963809Y-48976190D01*
X173297143Y-48452381D01*
X174154286Y-49452381D02*
X173582857Y-49452381D01*
X173868571Y-49452381D02*
X173868571Y-48452381D01*
X173773333Y-48595238D01*
X173678095Y-48690476D01*
X173582857Y-48738095D01*
X171774285Y-35832143D02*
X171726666Y-35879762D01*
X171583809Y-35927381D01*
X171488571Y-35927381D01*
X171345713Y-35879762D01*
X171250475Y-35784524D01*
X171202856Y-35689286D01*
X171155237Y-35498810D01*
X171155237Y-35355952D01*
X171202856Y-35165476D01*
X171250475Y-35070238D01*
X171345713Y-34975000D01*
X171488571Y-34927381D01*
X171583809Y-34927381D01*
X171726666Y-34975000D01*
X171774285Y-35022619D01*
X172202856Y-35927381D02*
X172202856Y-35260714D01*
X172202856Y-35451190D02*
X172250475Y-35355952D01*
X172298094Y-35308333D01*
X172393332Y-35260714D01*
X172488571Y-35260714D01*
X172726666Y-35260714D02*
X172964761Y-35927381D01*
X173202857Y-35260714D02*
X172964761Y-35927381D01*
X172869523Y-36165476D01*
X172821904Y-36213095D01*
X172726666Y-36260714D01*
X173536190Y-35879762D02*
X173631428Y-35927381D01*
X173821904Y-35927381D01*
X173917143Y-35879762D01*
X173964762Y-35784524D01*
X173964762Y-35736905D01*
X173917143Y-35641667D01*
X173821904Y-35594048D01*
X173679047Y-35594048D01*
X173583809Y-35546429D01*
X173536190Y-35451190D01*
X173536190Y-35403571D01*
X173583809Y-35308333D01*
X173679047Y-35260714D01*
X173821904Y-35260714D01*
X173917143Y-35308333D01*
X174250476Y-35260714D02*
X174631428Y-35260714D01*
X174393333Y-34927381D02*
X174393333Y-35784524D01*
X174440952Y-35879762D01*
X174536190Y-35927381D01*
X174631428Y-35927381D01*
X175393334Y-35927381D02*
X175393334Y-35403571D01*
X175345715Y-35308333D01*
X175250477Y-35260714D01*
X175060000Y-35260714D01*
X174964762Y-35308333D01*
X175393334Y-35879762D02*
X175298096Y-35927381D01*
X175060000Y-35927381D01*
X174964762Y-35879762D01*
X174917143Y-35784524D01*
X174917143Y-35689286D01*
X174964762Y-35594048D01*
X175060000Y-35546429D01*
X175298096Y-35546429D01*
X175393334Y-35498810D01*
X176012381Y-35927381D02*
X175917143Y-35879762D01*
X175869524Y-35784524D01*
X175869524Y-34927381D01*
X173083809Y-38976190D02*
X173083809Y-39452381D01*
X172750476Y-38452381D02*
X173083809Y-38976190D01*
X173417143Y-38452381D01*
X173702857Y-38547619D02*
X173750476Y-38500000D01*
X173845714Y-38452381D01*
X174083810Y-38452381D01*
X174179048Y-38500000D01*
X174226667Y-38547619D01*
X174274286Y-38642857D01*
X174274286Y-38738095D01*
X174226667Y-38880952D01*
X173655238Y-39452381D01*
X174274286Y-39452381D01*
M02*
