G04 #@! TF.FileFunction,Copper,L2,Bot,Signal*
%FSLAX46Y46*%
G04 Gerber Fmt 4.6, Leading zero omitted, Abs format (unit mm)*
G04 Created by KiCad (PCBNEW 4.0.7) date 01/21/18 20:58:22*
%MOMM*%
%LPD*%
G01*
G04 APERTURE LIST*
%ADD10C,0.100000*%
%ADD11R,1.000000X1.250000*%
%ADD12R,2.500000X3.750000*%
%ADD13R,1.250000X1.000000*%
%ADD14R,1.300000X0.800000*%
%ADD15R,1.600000X1.000000*%
%ADD16O,2.000000X1.450000*%
%ADD17O,1.800000X1.150000*%
%ADD18R,1.200000X0.700000*%
%ADD19R,1.200000X1.000000*%
%ADD20R,0.800000X1.000000*%
%ADD21R,2.800000X1.000000*%
%ADD22R,1.900000X1.300000*%
%ADD23R,1.700000X1.700000*%
%ADD24O,1.700000X1.700000*%
%ADD25R,1.000000X1.000000*%
%ADD26O,1.000000X1.000000*%
%ADD27R,0.700000X1.300000*%
%ADD28C,1.000000*%
%ADD29R,1.300000X0.700000*%
%ADD30R,0.600000X1.500000*%
%ADD31C,1.500000*%
%ADD32C,0.600000*%
%ADD33C,0.250000*%
%ADD34C,0.254000*%
G04 APERTURE END LIST*
D10*
D11*
X148500000Y-46250000D03*
X150500000Y-46250000D03*
X169000000Y-51000000D03*
X171000000Y-51000000D03*
X178000000Y-51000000D03*
X176000000Y-51000000D03*
D12*
X141000000Y-44125000D03*
X141000000Y-50375000D03*
X137000000Y-44125000D03*
X137000000Y-50375000D03*
X133000000Y-44125000D03*
X133000000Y-50375000D03*
D11*
X176500000Y-37000000D03*
X178500000Y-37000000D03*
X171000000Y-37000000D03*
X169000000Y-37000000D03*
D13*
X182250000Y-45000000D03*
X182250000Y-43000000D03*
D12*
X129250000Y-44125000D03*
X129250000Y-50375000D03*
D14*
X179650000Y-39550000D03*
X179650000Y-40830000D03*
X179650000Y-42090000D03*
X179650000Y-43360000D03*
X179650000Y-44640000D03*
X179650000Y-45910000D03*
X179650000Y-47170000D03*
X179650000Y-48450000D03*
X173350000Y-48450000D03*
X173350000Y-47170000D03*
X173350000Y-45910000D03*
X173350000Y-44640000D03*
X173350000Y-43360000D03*
X173350000Y-42090000D03*
X173350000Y-40830000D03*
X173350000Y-39550000D03*
D15*
X185500000Y-42000000D03*
X185500000Y-45000000D03*
D16*
X182150000Y-47725000D03*
X182150000Y-40275000D03*
D17*
X185950000Y-47875000D03*
X185950000Y-40125000D03*
D18*
X125600000Y-49150000D03*
X125600000Y-48200000D03*
X125600000Y-40500000D03*
X125600000Y-41600000D03*
X125600000Y-42700000D03*
X125600000Y-43800000D03*
X125600000Y-44900000D03*
X125600000Y-46000000D03*
X125600000Y-47100000D03*
D19*
X125600000Y-38950000D03*
X121300000Y-50100000D03*
D20*
X115100000Y-50100000D03*
D21*
X110950000Y-50100000D03*
D22*
X110500000Y-36600000D03*
D23*
X146000000Y-37000000D03*
D24*
X148540000Y-37000000D03*
X151080000Y-37000000D03*
D25*
X105500000Y-50500000D03*
D26*
X106770000Y-50500000D03*
X108040000Y-50500000D03*
D25*
X100500000Y-50500000D03*
D26*
X101770000Y-50500000D03*
X103040000Y-50500000D03*
D23*
X146000000Y-51000000D03*
D24*
X148540000Y-51000000D03*
X151080000Y-51000000D03*
X153620000Y-51000000D03*
X156160000Y-51000000D03*
X158700000Y-51000000D03*
D27*
X134550000Y-40500000D03*
X136450000Y-40500000D03*
D28*
X101770000Y-36730000D03*
X103040000Y-38000000D03*
D25*
X100500000Y-38000000D03*
D27*
X172550000Y-50500000D03*
X174450000Y-50500000D03*
D29*
X156000000Y-36050000D03*
X156000000Y-37950000D03*
D27*
X105450000Y-36500000D03*
X103550000Y-36500000D03*
X100550000Y-48250000D03*
X102450000Y-48250000D03*
D29*
X161998660Y-37950180D03*
X161998660Y-36050180D03*
X163997640Y-37950180D03*
X163997640Y-36050180D03*
X166000000Y-37950000D03*
X166000000Y-36050000D03*
X158000000Y-36050000D03*
X158000000Y-37950000D03*
X154000000Y-36050000D03*
X154000000Y-37950000D03*
D30*
X159555000Y-39350000D03*
X160825000Y-39350000D03*
X162095000Y-39350000D03*
X163365000Y-39350000D03*
X164635000Y-39350000D03*
X165905000Y-39350000D03*
X167175000Y-39350000D03*
X168445000Y-39350000D03*
X168445000Y-48650000D03*
X167175000Y-48650000D03*
X165905000Y-48650000D03*
X164635000Y-48650000D03*
X163365000Y-48650000D03*
X162095000Y-48650000D03*
X160825000Y-48650000D03*
X159555000Y-48650000D03*
D31*
X171000000Y-49000000D03*
X175880000Y-49000000D03*
X176000000Y-39000000D03*
X171120000Y-39000000D03*
D32*
X102209600Y-40518080D03*
X114162840Y-43390820D03*
X112989360Y-46156880D03*
X149900000Y-39750000D03*
X148300000Y-39750000D03*
X141023340Y-47320200D03*
X147482560Y-48326040D03*
X127162560Y-40065960D03*
X108122720Y-37246560D03*
X113888520Y-41833800D03*
X113461800Y-38968680D03*
X106900000Y-48000000D03*
X107248960Y-44358560D03*
X104200960Y-48646080D03*
X106923840Y-47995840D03*
X117911880Y-37459920D03*
X119085360Y-39639240D03*
X127193040Y-45643800D03*
X135453120Y-37876480D03*
X142074900Y-40347900D03*
X145120360Y-39926260D03*
X146824700Y-44173140D03*
X141000000Y-51025000D03*
X138358880Y-51226720D03*
X135839200Y-50942240D03*
X152237440Y-46857920D03*
X152278080Y-45994320D03*
X162427920Y-40645080D03*
X168445000Y-39350000D03*
X168904920Y-37017960D03*
X164652960Y-46725840D03*
X150500000Y-46250000D03*
X148500000Y-46250000D03*
X100550000Y-48250000D03*
X139720320Y-47868840D03*
X185430160Y-42006520D03*
X173390560Y-39522400D03*
X158000000Y-36050000D03*
X136450000Y-40500000D03*
X139000000Y-43150000D03*
X185500000Y-45000000D03*
X148351240Y-42418000D03*
X150835360Y-44013120D03*
X141300000Y-43150000D03*
X134538720Y-40579040D03*
X130378200Y-41422320D03*
X152808940Y-43594020D03*
X156270960Y-43357800D03*
X117700000Y-50000000D03*
X160492440Y-43007280D03*
X162500000Y-51000000D03*
X160472120Y-46273720D03*
X157175200Y-43342560D03*
X170931840Y-42367200D03*
X176702720Y-43119040D03*
X179650000Y-42090000D03*
X157246320Y-41468040D03*
X171602400Y-41534080D03*
X179628800Y-44637960D03*
X179500000Y-46000000D03*
X109146340Y-47983140D03*
X123741180Y-41673780D03*
X116314220Y-39004240D03*
X112933480Y-41071800D03*
X125559820Y-47150020D03*
X114879120Y-49011840D03*
X151500000Y-39750000D03*
X142920720Y-46715680D03*
X145250000Y-46800000D03*
X127264160Y-46817280D03*
X120985280Y-45069760D03*
X124480320Y-38404800D03*
X128440180Y-38641020D03*
X141122400Y-40309800D03*
X145250000Y-46000000D03*
X148254720Y-44958000D03*
X120944640Y-42976800D03*
X153620000Y-51000000D03*
X152300000Y-39750000D03*
X158658560Y-39502080D03*
X156385260Y-39075360D03*
X157688280Y-48508920D03*
X155440380Y-46222920D03*
X160782000Y-48615600D03*
X152171400Y-41452800D03*
X155529280Y-45278040D03*
X163372800Y-46725840D03*
X145250000Y-44400000D03*
X112455960Y-39486840D03*
X145250000Y-45200000D03*
X124998480Y-37091620D03*
X162001200Y-38039040D03*
X164073840Y-38023800D03*
X165948360Y-37947600D03*
X159539940Y-39263320D03*
X157901640Y-39974520D03*
D33*
X106883200Y-39481760D02*
X103245920Y-39481760D01*
X103245920Y-39481760D02*
X102209600Y-40518080D01*
X114162840Y-44983400D02*
X114162840Y-43390820D01*
X112989360Y-46156880D02*
X114162840Y-44983400D01*
X147482560Y-40567440D02*
X148300000Y-39750000D01*
X147482560Y-46664880D02*
X147482560Y-40567440D01*
X148300000Y-39750000D02*
X149900000Y-39750000D01*
X147482560Y-46664880D02*
X146806920Y-46664880D01*
X145587720Y-47884080D02*
X141023340Y-47320200D01*
X146806920Y-46664880D02*
X145587720Y-47884080D01*
X147482560Y-46664880D02*
X147482560Y-48326040D01*
X125600000Y-38950000D02*
X126046600Y-38950000D01*
X126046600Y-38950000D02*
X127162560Y-40065960D01*
X108769280Y-36600000D02*
X110500000Y-36600000D01*
X108122720Y-37246560D02*
X108769280Y-36600000D01*
X113888520Y-41833800D02*
X113736120Y-41986200D01*
X113736120Y-41986200D02*
X112745520Y-41986200D01*
X112745520Y-41986200D02*
X112029240Y-41269920D01*
X112029240Y-41269920D02*
X112029240Y-41087040D01*
X112029240Y-41087040D02*
X113461800Y-39654480D01*
X113461800Y-39654480D02*
X113461800Y-38968680D01*
X107248960Y-47651040D02*
X107248960Y-44358560D01*
X106900000Y-48000000D02*
X107248960Y-47651040D01*
X104851200Y-47995840D02*
X106923840Y-47995840D01*
X104851200Y-47995840D02*
X104200960Y-48646080D01*
X117911880Y-38465760D02*
X117911880Y-37459920D01*
X119085360Y-39639240D02*
X117911880Y-38465760D01*
X125600000Y-46000000D02*
X126836840Y-46000000D01*
X126836840Y-46000000D02*
X127193040Y-45643800D01*
X139603480Y-37876480D02*
X135453120Y-37876480D01*
X142074900Y-40347900D02*
X139603480Y-37876480D01*
X145120360Y-42468800D02*
X145120360Y-39926260D01*
X146824700Y-44173140D02*
X145120360Y-42468800D01*
X141000000Y-51025000D02*
X141000000Y-50375000D01*
X137000000Y-50375000D02*
X137507160Y-50375000D01*
X137507160Y-50375000D02*
X138358880Y-51226720D01*
X135839200Y-50942240D02*
X136406440Y-50375000D01*
X136406440Y-50375000D02*
X137000000Y-50375000D01*
X156589920Y-48889920D02*
X158700000Y-51000000D01*
X154269440Y-48889920D02*
X156589920Y-48889920D01*
X152237440Y-46857920D02*
X154269440Y-48889920D01*
X150500000Y-46250000D02*
X151260400Y-46250000D01*
X151260400Y-46250000D02*
X152278080Y-45994320D01*
X162427920Y-40645080D02*
X162504120Y-40721280D01*
X162504120Y-40721280D02*
X164393880Y-40721280D01*
X164393880Y-40721280D02*
X164635000Y-40480160D01*
X164635000Y-40480160D02*
X164635000Y-39350000D01*
X164635000Y-39350000D02*
X168445000Y-39350000D01*
X168904920Y-37017960D02*
X168922880Y-37000000D01*
X168922880Y-37000000D02*
X169000000Y-37000000D01*
X164635000Y-48650000D02*
X164635000Y-46743800D01*
X164635000Y-46743800D02*
X164652960Y-46725840D01*
X163365000Y-48650000D02*
X168445000Y-48650000D01*
X100550000Y-50450000D02*
X100550000Y-48250000D01*
X147191920Y-49651920D02*
X148540000Y-51000000D01*
X144947640Y-49651920D02*
X147191920Y-49651920D01*
X144551400Y-49255680D02*
X144947640Y-49651920D01*
X143736060Y-49255680D02*
X144551400Y-49255680D01*
X142499080Y-48018700D02*
X143736060Y-49255680D01*
X139870180Y-48018700D02*
X142499080Y-48018700D01*
X139720320Y-47868840D02*
X139870180Y-48018700D01*
X160825000Y-39350000D02*
X160825000Y-37493120D01*
X160825000Y-37493120D02*
X161998660Y-36319460D01*
X161998660Y-36319460D02*
X161998660Y-36050180D01*
X103040000Y-38000000D02*
X103950000Y-38000000D01*
X103950000Y-38000000D02*
X105450000Y-36500000D01*
X100500000Y-50500000D02*
X100500000Y-51168120D01*
X104305920Y-51694080D02*
X105500000Y-50500000D01*
X101025960Y-51694080D02*
X104305920Y-51694080D01*
X100500000Y-51168120D02*
X101025960Y-51694080D01*
X100550000Y-50450000D02*
X100500000Y-50500000D01*
X185430160Y-42006520D02*
X185436680Y-42000000D01*
X185436680Y-42000000D02*
X185500000Y-42000000D01*
X173350000Y-39550000D02*
X172910840Y-39550000D01*
X172910840Y-39550000D02*
X172212000Y-40248840D01*
X166954200Y-37004200D02*
X166000000Y-36050000D01*
X166954200Y-37383720D02*
X166954200Y-37004200D01*
X167700960Y-38130480D02*
X166954200Y-37383720D01*
X169148760Y-38130480D02*
X167700960Y-38130480D01*
X169758360Y-38740080D02*
X169148760Y-38130480D01*
X169758360Y-39883080D02*
X169758360Y-38740080D01*
X170124120Y-40248840D02*
X169758360Y-39883080D01*
X172212000Y-40248840D02*
X170124120Y-40248840D01*
X173390560Y-39522400D02*
X173362960Y-39550000D01*
X173362960Y-39550000D02*
X173350000Y-39550000D01*
X161998660Y-36050180D02*
X158000180Y-36050180D01*
X158000180Y-36050180D02*
X158000000Y-36050000D01*
X163997640Y-36050180D02*
X161998660Y-36050180D01*
X166000000Y-36050000D02*
X163997820Y-36050000D01*
X163997820Y-36050000D02*
X163997640Y-36050180D01*
X156000000Y-36050000D02*
X154000000Y-36050000D01*
X158000000Y-36050000D02*
X156000000Y-36050000D01*
X136450000Y-43575000D02*
X136450000Y-40500000D01*
X136450000Y-43575000D02*
X137000000Y-44125000D01*
X139000000Y-43150000D02*
X138025000Y-44125000D01*
X138025000Y-44125000D02*
X137000000Y-44125000D01*
X185500000Y-42000000D02*
X184750000Y-42000000D01*
X184750000Y-42000000D02*
X183750000Y-43000000D01*
X183750000Y-43000000D02*
X182250000Y-43000000D01*
X171000000Y-49000000D02*
X170798080Y-49000000D01*
X170798080Y-49000000D02*
X168513760Y-46715680D01*
X150581360Y-44648120D02*
X148351240Y-42418000D01*
X163890960Y-44648120D02*
X153741120Y-44648120D01*
X153741120Y-44648120D02*
X152339040Y-45339000D01*
X152339040Y-45339000D02*
X150581360Y-44648120D01*
X165912800Y-46715680D02*
X163890960Y-44648120D01*
X168513760Y-46715680D02*
X165912800Y-46715680D01*
X171000000Y-49000000D02*
X171000000Y-51000000D01*
X172550000Y-50500000D02*
X171500000Y-50500000D01*
X171500000Y-50500000D02*
X171000000Y-51000000D01*
X175880000Y-49000000D02*
X174647000Y-49000000D01*
X163964620Y-43995340D02*
X153649680Y-44009309D01*
X153649680Y-44009309D02*
X152308560Y-44805600D01*
X152308560Y-44805600D02*
X150835360Y-44013120D01*
X166146480Y-46177200D02*
X163964620Y-43995340D01*
X170055540Y-46177200D02*
X166146480Y-46177200D01*
X172181520Y-48303180D02*
X170055540Y-46177200D01*
X172181520Y-49187100D02*
X172181520Y-48303180D01*
X172410120Y-49415700D02*
X172181520Y-49187100D01*
X174231300Y-49415700D02*
X172410120Y-49415700D01*
X174647000Y-49000000D02*
X174231300Y-49415700D01*
X176000000Y-51000000D02*
X174950000Y-51000000D01*
X174950000Y-51000000D02*
X174450000Y-50500000D01*
X175880000Y-49000000D02*
X175880000Y-50880000D01*
X175880000Y-50880000D02*
X176000000Y-51000000D01*
X141300000Y-43150000D02*
X141000000Y-43450000D01*
X141000000Y-43450000D02*
X141000000Y-44125000D01*
X134538720Y-40579040D02*
X134550000Y-40567760D01*
X134550000Y-40567760D02*
X134550000Y-40500000D01*
X133000000Y-44125000D02*
X133000000Y-42050000D01*
X133000000Y-42050000D02*
X134550000Y-40500000D01*
X176000000Y-39000000D02*
X176000000Y-44631200D01*
X178538800Y-47170000D02*
X179650000Y-47170000D01*
X176000000Y-44631200D02*
X178538800Y-47170000D01*
X176000000Y-39000000D02*
X176000000Y-37500000D01*
X176000000Y-37500000D02*
X176500000Y-37000000D01*
X179650000Y-48450000D02*
X177786800Y-48450000D01*
X173382760Y-37000000D02*
X171000000Y-37000000D01*
X174558960Y-38176200D02*
X173382760Y-37000000D01*
X174558960Y-39570660D02*
X174558960Y-38176200D01*
X175549998Y-40561698D02*
X174558960Y-39570660D01*
X175549998Y-46213198D02*
X175549998Y-40561698D01*
X177786800Y-48450000D02*
X175549998Y-46213198D01*
X171120000Y-39000000D02*
X171120000Y-37120000D01*
X171120000Y-37120000D02*
X171000000Y-37000000D01*
X182250000Y-45000000D02*
X181750000Y-45000000D01*
X181750000Y-45000000D02*
X181000000Y-44250000D01*
X181000000Y-44250000D02*
X181000000Y-44000000D01*
X181000000Y-44000000D02*
X180360000Y-43360000D01*
X180360000Y-43360000D02*
X179650000Y-43360000D01*
X125600000Y-43800000D02*
X128925000Y-43800000D01*
X128925000Y-43800000D02*
X129250000Y-44125000D01*
X130378200Y-41422320D02*
X129250000Y-42550520D01*
X129250000Y-42550520D02*
X129250000Y-44125000D01*
X156260800Y-43347640D02*
X152808940Y-43594020D01*
X156270960Y-43357800D02*
X156260800Y-43347640D01*
X154536280Y-52623720D02*
X156160000Y-51000000D01*
X139446000Y-52623720D02*
X154536280Y-52623720D01*
X139095480Y-52273200D02*
X139446000Y-52623720D01*
X139095480Y-48290480D02*
X139095480Y-52273200D01*
X138442700Y-47637700D02*
X139095480Y-48290480D01*
X127993140Y-47637700D02*
X138442700Y-47637700D01*
X127350520Y-48280320D02*
X127993140Y-47637700D01*
X127350520Y-49509680D02*
X127350520Y-48280320D01*
X126707900Y-50152300D02*
X127350520Y-49509680D01*
X125869700Y-50152300D02*
X126707900Y-50152300D01*
X124668280Y-51353720D02*
X125869700Y-50152300D01*
X119053720Y-51353720D02*
X124668280Y-51353720D01*
X117700000Y-50000000D02*
X119053720Y-51353720D01*
X173350000Y-43360000D02*
X168323600Y-43360000D01*
X163982400Y-43007280D02*
X160492440Y-43007280D01*
X165323520Y-44348400D02*
X163982400Y-43007280D01*
X167335200Y-44348400D02*
X165323520Y-44348400D01*
X168323600Y-43360000D02*
X167335200Y-44348400D01*
X162500000Y-51000000D02*
X162500000Y-47979640D01*
X162095000Y-50595000D02*
X162500000Y-51000000D01*
X162095000Y-48650000D02*
X162095000Y-50595000D01*
X160888680Y-45857160D02*
X160472120Y-46273720D01*
X163586160Y-45857160D02*
X160888680Y-45857160D01*
X164005260Y-46276260D02*
X163586160Y-45857160D01*
X164005260Y-47124620D02*
X164005260Y-46276260D01*
X163753800Y-47376080D02*
X164005260Y-47124620D01*
X163103560Y-47376080D02*
X163753800Y-47376080D01*
X162500000Y-47979640D02*
X163103560Y-47376080D01*
X179650000Y-40830000D02*
X178646320Y-40830000D01*
X158313120Y-42204640D02*
X157175200Y-43342560D01*
X170769280Y-42204640D02*
X158313120Y-42204640D01*
X170931840Y-42367200D02*
X170769280Y-42204640D01*
X176702720Y-42773600D02*
X176702720Y-43119040D01*
X178646320Y-40830000D02*
X176702720Y-42773600D01*
X171536360Y-41468040D02*
X157246320Y-41468040D01*
X171602400Y-41534080D02*
X171536360Y-41468040D01*
X179628800Y-44637960D02*
X179630840Y-44640000D01*
X179630840Y-44640000D02*
X179650000Y-44640000D01*
X179500000Y-46000000D02*
X179590000Y-45910000D01*
X179590000Y-45910000D02*
X179650000Y-45910000D01*
X125600000Y-49150000D02*
X123114800Y-49150000D01*
X121947940Y-47983140D02*
X109146340Y-47983140D01*
X123114800Y-49150000D02*
X121947940Y-47983140D01*
X123814960Y-41600000D02*
X125600000Y-41600000D01*
X123741180Y-41673780D02*
X123814960Y-41600000D01*
X125600000Y-42700000D02*
X124604720Y-42700000D01*
X116314220Y-42307382D02*
X116314220Y-39004240D01*
X120076936Y-46070098D02*
X116314220Y-42307382D01*
X122498144Y-46070098D02*
X120076936Y-46070098D01*
X123774200Y-44794042D02*
X122498144Y-46070098D01*
X123774200Y-43530520D02*
X123774200Y-44794042D01*
X124604720Y-42700000D02*
X123774200Y-43530520D01*
X124304640Y-44900000D02*
X125600000Y-44900000D01*
X122684540Y-46520100D02*
X124304640Y-44900000D01*
X119890540Y-46520100D02*
X122684540Y-46520100D01*
X113715800Y-40345360D02*
X119890540Y-46520100D01*
X113715800Y-40289480D02*
X113715800Y-40345360D01*
X112933480Y-41071800D02*
X113715800Y-40289480D01*
X125559820Y-47150020D02*
X125600000Y-47109840D01*
X125600000Y-47109840D02*
X125600000Y-47100000D01*
X115100000Y-49232720D02*
X115100000Y-50100000D01*
X114879120Y-49011840D02*
X115100000Y-49232720D01*
X102450000Y-48250000D02*
X105808780Y-44891220D01*
X105808780Y-44340780D02*
X105808780Y-44891220D01*
X112003840Y-38145720D02*
X105808780Y-44340780D01*
X112003840Y-36700460D02*
X112003840Y-38145720D01*
X112882680Y-35821620D02*
X112003840Y-36700460D01*
X140144500Y-35821620D02*
X112882680Y-35821620D01*
X143271240Y-38948360D02*
X140144500Y-35821620D01*
X150398480Y-38948360D02*
X143271240Y-38948360D01*
X150647400Y-39197280D02*
X150398480Y-38948360D01*
X150947280Y-39197280D02*
X150647400Y-39197280D01*
X150947280Y-39197280D02*
X151500000Y-39750000D01*
X102450000Y-48250000D02*
X102450000Y-49820000D01*
X102450000Y-49820000D02*
X101770000Y-50500000D01*
X142920720Y-46715680D02*
X142920720Y-46687740D01*
X142920720Y-46687740D02*
X142920720Y-46715680D01*
X142920720Y-46715680D02*
X142920720Y-46687740D01*
X127393700Y-46687740D02*
X127264160Y-46817280D01*
X145137740Y-46687740D02*
X142920720Y-46687740D01*
X142920720Y-46687740D02*
X127393700Y-46687740D01*
X145137740Y-46687740D02*
X145250000Y-46800000D01*
X122326400Y-43728640D02*
X120985280Y-45069760D01*
X122326400Y-40558720D02*
X122326400Y-43728640D01*
X124480320Y-38404800D02*
X122326400Y-40558720D01*
X139453620Y-38641020D02*
X128440180Y-38641020D01*
X141122400Y-40309800D02*
X139453620Y-38641020D01*
X151089360Y-48310800D02*
X150342600Y-48310800D01*
X150342600Y-48310800D02*
X149519640Y-47487840D01*
X149519640Y-47487840D02*
X149519640Y-45095160D01*
X149519640Y-45095160D02*
X149382480Y-44958000D01*
X149382480Y-44958000D02*
X148254720Y-44958000D01*
X153620000Y-50841440D02*
X151089360Y-48310800D01*
X120944640Y-41208960D02*
X120944640Y-42976800D01*
X122367040Y-39786560D02*
X120944640Y-41208960D01*
X122367040Y-38547040D02*
X122367040Y-39786560D01*
X123179840Y-37734240D02*
X122367040Y-38547040D01*
X126309120Y-37734240D02*
X123179840Y-37734240D01*
X126674880Y-38100000D02*
X126309120Y-37734240D01*
X126674880Y-38181280D02*
X126674880Y-38100000D01*
X127833120Y-39339520D02*
X126674880Y-38181280D01*
X137769600Y-39339520D02*
X127833120Y-39339520D01*
X139557760Y-41127680D02*
X137769600Y-39339520D01*
X142031720Y-41127680D02*
X139557760Y-41127680D01*
X142875000Y-41970960D02*
X142031720Y-41127680D01*
X142875000Y-44744640D02*
X142875000Y-41970960D01*
X144063720Y-45933360D02*
X142875000Y-44744640D01*
X145183360Y-45933360D02*
X144063720Y-45933360D01*
X145250000Y-46000000D02*
X145183360Y-45933360D01*
X153620000Y-51000000D02*
X153620000Y-50841440D01*
X103550000Y-36500000D02*
X104678382Y-35371618D01*
X140446338Y-35371618D02*
X104678382Y-35371618D01*
X143522001Y-38447281D02*
X140446338Y-35371618D01*
X151294401Y-38447281D02*
X143522001Y-38447281D01*
X152260300Y-39413180D02*
X151294401Y-38447281D01*
X152260300Y-39710300D02*
X152260300Y-39413180D01*
X152260300Y-39710300D02*
X152300000Y-39750000D01*
X101770000Y-36730000D02*
X103320000Y-36730000D01*
X103320000Y-36730000D02*
X103550000Y-36500000D01*
X158000000Y-38843520D02*
X158000000Y-37950000D01*
X158658560Y-39502080D02*
X158000000Y-38843520D01*
X156385260Y-39075360D02*
X157510620Y-37950000D01*
X157510620Y-37950000D02*
X158000000Y-37950000D01*
X157688280Y-48470820D02*
X157688280Y-48508920D01*
X155440380Y-46222920D02*
X157688280Y-48470820D01*
X160782000Y-48615600D02*
X160816400Y-48650000D01*
X160816400Y-48650000D02*
X160825000Y-48650000D01*
X154000000Y-39624200D02*
X154000000Y-37950000D01*
X152171400Y-41452800D02*
X154000000Y-39624200D01*
X154000000Y-37950000D02*
X156000000Y-37950000D01*
X158901240Y-48650000D02*
X159555000Y-48650000D01*
X155529280Y-45278040D02*
X158901240Y-48650000D01*
X159555000Y-48650000D02*
X159555000Y-48318600D01*
X159555000Y-48318600D02*
X161147760Y-46725840D01*
X161147760Y-46725840D02*
X163372800Y-46725840D01*
X112455960Y-37170360D02*
X112455960Y-39486840D01*
X113263680Y-36362640D02*
X112455960Y-37170360D01*
X139880340Y-36362640D02*
X113263680Y-36362640D01*
X143863060Y-40345360D02*
X139880340Y-36362640D01*
X143863060Y-43013060D02*
X143863060Y-40345360D01*
X143863060Y-43013060D02*
X145250000Y-44400000D01*
X139778740Y-37091620D02*
X124998480Y-37091620D01*
X143377920Y-40690800D02*
X139778740Y-37091620D01*
X143377920Y-43525440D02*
X143377920Y-40690800D01*
X145023840Y-45171360D02*
X143377920Y-43525440D01*
X145221360Y-45171360D02*
X145023840Y-45171360D01*
X145221360Y-45171360D02*
X145250000Y-45200000D01*
X162001200Y-38039040D02*
X161998660Y-38036500D01*
X161998660Y-38036500D02*
X161998660Y-37950180D01*
X164073840Y-38023800D02*
X164000220Y-37950180D01*
X164000220Y-37950180D02*
X163997640Y-37950180D01*
X165948360Y-37947600D02*
X165950760Y-37950000D01*
X165950760Y-37950000D02*
X166000000Y-37950000D01*
X159539940Y-39263320D02*
X159555000Y-39278380D01*
X159555000Y-39278380D02*
X159555000Y-39350000D01*
X162095000Y-39350000D02*
X162095000Y-39865480D01*
X162095000Y-39865480D02*
X161254440Y-40706040D01*
X161254440Y-40706040D02*
X158633160Y-40706040D01*
X158633160Y-40706040D02*
X157901640Y-39974520D01*
D34*
G36*
X111662843Y-40015783D02*
X111925633Y-40279032D01*
X112263604Y-40419370D01*
X112141288Y-40541473D01*
X111998642Y-40885001D01*
X111998318Y-41256967D01*
X112140363Y-41600743D01*
X112403153Y-41863992D01*
X112746681Y-42006638D01*
X113118647Y-42006962D01*
X113462423Y-41864917D01*
X113725672Y-41602127D01*
X113776165Y-41480527D01*
X119353139Y-47057501D01*
X119599701Y-47222248D01*
X119604185Y-47223140D01*
X109708803Y-47223140D01*
X109676667Y-47190948D01*
X109333139Y-47048302D01*
X108961173Y-47047978D01*
X108617397Y-47190023D01*
X108354148Y-47452813D01*
X108211502Y-47796341D01*
X108211178Y-48168307D01*
X108353223Y-48512083D01*
X108616013Y-48775332D01*
X108959541Y-48917978D01*
X109331507Y-48918302D01*
X109675283Y-48776257D01*
X109708458Y-48743140D01*
X113978290Y-48743140D01*
X113944282Y-48825041D01*
X113943958Y-49197007D01*
X114071607Y-49505942D01*
X114052560Y-49600000D01*
X114052560Y-50600000D01*
X114096838Y-50835317D01*
X114235910Y-51051441D01*
X114448110Y-51196431D01*
X114700000Y-51247440D01*
X115500000Y-51247440D01*
X115735317Y-51203162D01*
X115951441Y-51064090D01*
X116096431Y-50851890D01*
X116147440Y-50600000D01*
X116147440Y-49600000D01*
X116103162Y-49364683D01*
X115964090Y-49148559D01*
X115824254Y-49053013D01*
X115814129Y-49002114D01*
X115814282Y-48826673D01*
X115779767Y-48743140D01*
X121633138Y-48743140D01*
X121854998Y-48965000D01*
X121585750Y-48965000D01*
X121427000Y-49123750D01*
X121427000Y-49973000D01*
X122376250Y-49973000D01*
X122535000Y-49814250D01*
X122535000Y-49645002D01*
X122577399Y-49687401D01*
X122823960Y-49852148D01*
X123114800Y-49910000D01*
X124509243Y-49910000D01*
X124535910Y-49951441D01*
X124748110Y-50096431D01*
X124833479Y-50113719D01*
X124353478Y-50593720D01*
X122535000Y-50593720D01*
X122535000Y-50385750D01*
X122376250Y-50227000D01*
X121427000Y-50227000D01*
X121427000Y-50247000D01*
X121173000Y-50247000D01*
X121173000Y-50227000D01*
X120223750Y-50227000D01*
X120065000Y-50385750D01*
X120065000Y-50593720D01*
X119368522Y-50593720D01*
X118635122Y-49860320D01*
X118635162Y-49814833D01*
X118494206Y-49473691D01*
X120065000Y-49473691D01*
X120065000Y-49814250D01*
X120223750Y-49973000D01*
X121173000Y-49973000D01*
X121173000Y-49123750D01*
X121014250Y-48965000D01*
X120573690Y-48965000D01*
X120340301Y-49061673D01*
X120161673Y-49240302D01*
X120065000Y-49473691D01*
X118494206Y-49473691D01*
X118493117Y-49471057D01*
X118230327Y-49207808D01*
X117886799Y-49065162D01*
X117514833Y-49064838D01*
X117171057Y-49206883D01*
X116907808Y-49469673D01*
X116765162Y-49813201D01*
X116764838Y-50185167D01*
X116906883Y-50528943D01*
X117169673Y-50792192D01*
X117513201Y-50934838D01*
X117560077Y-50934879D01*
X118516319Y-51891121D01*
X118762880Y-52055868D01*
X119053720Y-52113720D01*
X124668280Y-52113720D01*
X124959119Y-52055868D01*
X125205681Y-51891121D01*
X126184502Y-50912300D01*
X126707900Y-50912300D01*
X126998739Y-50854448D01*
X127245301Y-50689701D01*
X127433000Y-50502002D01*
X127523748Y-50502002D01*
X127365000Y-50660750D01*
X127365000Y-52290000D01*
X104755741Y-52290000D01*
X104843321Y-52231481D01*
X105427362Y-51647440D01*
X106000000Y-51647440D01*
X106235317Y-51603162D01*
X106311073Y-51554414D01*
X106335654Y-51570839D01*
X106770000Y-51657236D01*
X107204346Y-51570839D01*
X107414304Y-51430549D01*
X107479791Y-51487127D01*
X107738126Y-51594119D01*
X107913000Y-51467954D01*
X107913000Y-50627000D01*
X107893000Y-50627000D01*
X107893000Y-50582564D01*
X107905000Y-50522236D01*
X107905000Y-50477764D01*
X107893000Y-50417436D01*
X107893000Y-50373000D01*
X107913000Y-50373000D01*
X107913000Y-49532046D01*
X108167000Y-49532046D01*
X108167000Y-50373000D01*
X108187000Y-50373000D01*
X108187000Y-50627000D01*
X108167000Y-50627000D01*
X108167000Y-51467954D01*
X108341874Y-51594119D01*
X108600209Y-51487127D01*
X108935323Y-51197604D01*
X109040408Y-50988433D01*
X109190301Y-51138327D01*
X109423690Y-51235000D01*
X110664250Y-51235000D01*
X110823000Y-51076250D01*
X110823000Y-50227000D01*
X111077000Y-50227000D01*
X111077000Y-51076250D01*
X111235750Y-51235000D01*
X112476310Y-51235000D01*
X112709699Y-51138327D01*
X112888327Y-50959698D01*
X112985000Y-50726309D01*
X112985000Y-50385750D01*
X112826250Y-50227000D01*
X111077000Y-50227000D01*
X110823000Y-50227000D01*
X110803000Y-50227000D01*
X110803000Y-49973000D01*
X110823000Y-49973000D01*
X110823000Y-49123750D01*
X111077000Y-49123750D01*
X111077000Y-49973000D01*
X112826250Y-49973000D01*
X112985000Y-49814250D01*
X112985000Y-49473691D01*
X112888327Y-49240302D01*
X112709699Y-49061673D01*
X112476310Y-48965000D01*
X111235750Y-48965000D01*
X111077000Y-49123750D01*
X110823000Y-49123750D01*
X110664250Y-48965000D01*
X109423690Y-48965000D01*
X109190301Y-49061673D01*
X109011673Y-49240302D01*
X108915000Y-49473691D01*
X108915000Y-49784838D01*
X108600209Y-49512873D01*
X108341874Y-49405881D01*
X108167000Y-49532046D01*
X107913000Y-49532046D01*
X107738126Y-49405881D01*
X107479791Y-49512873D01*
X107414304Y-49569451D01*
X107204346Y-49429161D01*
X106770000Y-49342764D01*
X106335654Y-49429161D01*
X106312241Y-49444805D01*
X106251890Y-49403569D01*
X106000000Y-49352560D01*
X105000000Y-49352560D01*
X104764683Y-49396838D01*
X104548559Y-49535910D01*
X104403569Y-49748110D01*
X104352560Y-50000000D01*
X104352560Y-50572638D01*
X104129626Y-50795572D01*
X104009135Y-50627000D01*
X103167000Y-50627000D01*
X103167000Y-50647000D01*
X102913000Y-50647000D01*
X102913000Y-50627000D01*
X102893000Y-50627000D01*
X102893000Y-50582564D01*
X102905000Y-50522236D01*
X102905000Y-50477764D01*
X102898702Y-50446100D01*
X102987401Y-50357401D01*
X102990342Y-50353000D01*
X103167000Y-50353000D01*
X103167000Y-50373000D01*
X104009135Y-50373000D01*
X104134132Y-50198123D01*
X103935323Y-49802396D01*
X103600209Y-49512873D01*
X103341874Y-49405881D01*
X103210000Y-49501023D01*
X103210000Y-49390757D01*
X103251441Y-49364090D01*
X103396431Y-49151890D01*
X103447440Y-48900000D01*
X103447440Y-48327362D01*
X105432755Y-46342047D01*
X112054198Y-46342047D01*
X112196243Y-46685823D01*
X112459033Y-46949072D01*
X112802561Y-47091718D01*
X113174527Y-47092042D01*
X113518303Y-46949997D01*
X113781552Y-46687207D01*
X113924198Y-46343679D01*
X113924239Y-46296803D01*
X114700241Y-45520801D01*
X114864988Y-45274240D01*
X114922840Y-44983400D01*
X114922840Y-43953283D01*
X114955032Y-43921147D01*
X115097678Y-43577619D01*
X115098002Y-43205653D01*
X114955957Y-42861877D01*
X114693167Y-42598628D01*
X114349639Y-42455982D01*
X113977673Y-42455658D01*
X113633897Y-42597703D01*
X113370648Y-42860493D01*
X113228002Y-43204021D01*
X113227678Y-43575987D01*
X113369723Y-43919763D01*
X113402840Y-43952938D01*
X113402840Y-44668598D01*
X112849680Y-45221758D01*
X112804193Y-45221718D01*
X112460417Y-45363763D01*
X112197168Y-45626553D01*
X112054522Y-45970081D01*
X112054198Y-46342047D01*
X105432755Y-46342047D01*
X106346181Y-45428621D01*
X106510928Y-45182060D01*
X106568780Y-44891220D01*
X106568780Y-44655582D01*
X111530025Y-39694337D01*
X111662843Y-40015783D01*
X111662843Y-40015783D01*
G37*
X111662843Y-40015783D02*
X111925633Y-40279032D01*
X112263604Y-40419370D01*
X112141288Y-40541473D01*
X111998642Y-40885001D01*
X111998318Y-41256967D01*
X112140363Y-41600743D01*
X112403153Y-41863992D01*
X112746681Y-42006638D01*
X113118647Y-42006962D01*
X113462423Y-41864917D01*
X113725672Y-41602127D01*
X113776165Y-41480527D01*
X119353139Y-47057501D01*
X119599701Y-47222248D01*
X119604185Y-47223140D01*
X109708803Y-47223140D01*
X109676667Y-47190948D01*
X109333139Y-47048302D01*
X108961173Y-47047978D01*
X108617397Y-47190023D01*
X108354148Y-47452813D01*
X108211502Y-47796341D01*
X108211178Y-48168307D01*
X108353223Y-48512083D01*
X108616013Y-48775332D01*
X108959541Y-48917978D01*
X109331507Y-48918302D01*
X109675283Y-48776257D01*
X109708458Y-48743140D01*
X113978290Y-48743140D01*
X113944282Y-48825041D01*
X113943958Y-49197007D01*
X114071607Y-49505942D01*
X114052560Y-49600000D01*
X114052560Y-50600000D01*
X114096838Y-50835317D01*
X114235910Y-51051441D01*
X114448110Y-51196431D01*
X114700000Y-51247440D01*
X115500000Y-51247440D01*
X115735317Y-51203162D01*
X115951441Y-51064090D01*
X116096431Y-50851890D01*
X116147440Y-50600000D01*
X116147440Y-49600000D01*
X116103162Y-49364683D01*
X115964090Y-49148559D01*
X115824254Y-49053013D01*
X115814129Y-49002114D01*
X115814282Y-48826673D01*
X115779767Y-48743140D01*
X121633138Y-48743140D01*
X121854998Y-48965000D01*
X121585750Y-48965000D01*
X121427000Y-49123750D01*
X121427000Y-49973000D01*
X122376250Y-49973000D01*
X122535000Y-49814250D01*
X122535000Y-49645002D01*
X122577399Y-49687401D01*
X122823960Y-49852148D01*
X123114800Y-49910000D01*
X124509243Y-49910000D01*
X124535910Y-49951441D01*
X124748110Y-50096431D01*
X124833479Y-50113719D01*
X124353478Y-50593720D01*
X122535000Y-50593720D01*
X122535000Y-50385750D01*
X122376250Y-50227000D01*
X121427000Y-50227000D01*
X121427000Y-50247000D01*
X121173000Y-50247000D01*
X121173000Y-50227000D01*
X120223750Y-50227000D01*
X120065000Y-50385750D01*
X120065000Y-50593720D01*
X119368522Y-50593720D01*
X118635122Y-49860320D01*
X118635162Y-49814833D01*
X118494206Y-49473691D01*
X120065000Y-49473691D01*
X120065000Y-49814250D01*
X120223750Y-49973000D01*
X121173000Y-49973000D01*
X121173000Y-49123750D01*
X121014250Y-48965000D01*
X120573690Y-48965000D01*
X120340301Y-49061673D01*
X120161673Y-49240302D01*
X120065000Y-49473691D01*
X118494206Y-49473691D01*
X118493117Y-49471057D01*
X118230327Y-49207808D01*
X117886799Y-49065162D01*
X117514833Y-49064838D01*
X117171057Y-49206883D01*
X116907808Y-49469673D01*
X116765162Y-49813201D01*
X116764838Y-50185167D01*
X116906883Y-50528943D01*
X117169673Y-50792192D01*
X117513201Y-50934838D01*
X117560077Y-50934879D01*
X118516319Y-51891121D01*
X118762880Y-52055868D01*
X119053720Y-52113720D01*
X124668280Y-52113720D01*
X124959119Y-52055868D01*
X125205681Y-51891121D01*
X126184502Y-50912300D01*
X126707900Y-50912300D01*
X126998739Y-50854448D01*
X127245301Y-50689701D01*
X127433000Y-50502002D01*
X127523748Y-50502002D01*
X127365000Y-50660750D01*
X127365000Y-52290000D01*
X104755741Y-52290000D01*
X104843321Y-52231481D01*
X105427362Y-51647440D01*
X106000000Y-51647440D01*
X106235317Y-51603162D01*
X106311073Y-51554414D01*
X106335654Y-51570839D01*
X106770000Y-51657236D01*
X107204346Y-51570839D01*
X107414304Y-51430549D01*
X107479791Y-51487127D01*
X107738126Y-51594119D01*
X107913000Y-51467954D01*
X107913000Y-50627000D01*
X107893000Y-50627000D01*
X107893000Y-50582564D01*
X107905000Y-50522236D01*
X107905000Y-50477764D01*
X107893000Y-50417436D01*
X107893000Y-50373000D01*
X107913000Y-50373000D01*
X107913000Y-49532046D01*
X108167000Y-49532046D01*
X108167000Y-50373000D01*
X108187000Y-50373000D01*
X108187000Y-50627000D01*
X108167000Y-50627000D01*
X108167000Y-51467954D01*
X108341874Y-51594119D01*
X108600209Y-51487127D01*
X108935323Y-51197604D01*
X109040408Y-50988433D01*
X109190301Y-51138327D01*
X109423690Y-51235000D01*
X110664250Y-51235000D01*
X110823000Y-51076250D01*
X110823000Y-50227000D01*
X111077000Y-50227000D01*
X111077000Y-51076250D01*
X111235750Y-51235000D01*
X112476310Y-51235000D01*
X112709699Y-51138327D01*
X112888327Y-50959698D01*
X112985000Y-50726309D01*
X112985000Y-50385750D01*
X112826250Y-50227000D01*
X111077000Y-50227000D01*
X110823000Y-50227000D01*
X110803000Y-50227000D01*
X110803000Y-49973000D01*
X110823000Y-49973000D01*
X110823000Y-49123750D01*
X111077000Y-49123750D01*
X111077000Y-49973000D01*
X112826250Y-49973000D01*
X112985000Y-49814250D01*
X112985000Y-49473691D01*
X112888327Y-49240302D01*
X112709699Y-49061673D01*
X112476310Y-48965000D01*
X111235750Y-48965000D01*
X111077000Y-49123750D01*
X110823000Y-49123750D01*
X110664250Y-48965000D01*
X109423690Y-48965000D01*
X109190301Y-49061673D01*
X109011673Y-49240302D01*
X108915000Y-49473691D01*
X108915000Y-49784838D01*
X108600209Y-49512873D01*
X108341874Y-49405881D01*
X108167000Y-49532046D01*
X107913000Y-49532046D01*
X107738126Y-49405881D01*
X107479791Y-49512873D01*
X107414304Y-49569451D01*
X107204346Y-49429161D01*
X106770000Y-49342764D01*
X106335654Y-49429161D01*
X106312241Y-49444805D01*
X106251890Y-49403569D01*
X106000000Y-49352560D01*
X105000000Y-49352560D01*
X104764683Y-49396838D01*
X104548559Y-49535910D01*
X104403569Y-49748110D01*
X104352560Y-50000000D01*
X104352560Y-50572638D01*
X104129626Y-50795572D01*
X104009135Y-50627000D01*
X103167000Y-50627000D01*
X103167000Y-50647000D01*
X102913000Y-50647000D01*
X102913000Y-50627000D01*
X102893000Y-50627000D01*
X102893000Y-50582564D01*
X102905000Y-50522236D01*
X102905000Y-50477764D01*
X102898702Y-50446100D01*
X102987401Y-50357401D01*
X102990342Y-50353000D01*
X103167000Y-50353000D01*
X103167000Y-50373000D01*
X104009135Y-50373000D01*
X104134132Y-50198123D01*
X103935323Y-49802396D01*
X103600209Y-49512873D01*
X103341874Y-49405881D01*
X103210000Y-49501023D01*
X103210000Y-49390757D01*
X103251441Y-49364090D01*
X103396431Y-49151890D01*
X103447440Y-48900000D01*
X103447440Y-48327362D01*
X105432755Y-46342047D01*
X112054198Y-46342047D01*
X112196243Y-46685823D01*
X112459033Y-46949072D01*
X112802561Y-47091718D01*
X113174527Y-47092042D01*
X113518303Y-46949997D01*
X113781552Y-46687207D01*
X113924198Y-46343679D01*
X113924239Y-46296803D01*
X114700241Y-45520801D01*
X114864988Y-45274240D01*
X114922840Y-44983400D01*
X114922840Y-43953283D01*
X114955032Y-43921147D01*
X115097678Y-43577619D01*
X115098002Y-43205653D01*
X114955957Y-42861877D01*
X114693167Y-42598628D01*
X114349639Y-42455982D01*
X113977673Y-42455658D01*
X113633897Y-42597703D01*
X113370648Y-42860493D01*
X113228002Y-43204021D01*
X113227678Y-43575987D01*
X113369723Y-43919763D01*
X113402840Y-43952938D01*
X113402840Y-44668598D01*
X112849680Y-45221758D01*
X112804193Y-45221718D01*
X112460417Y-45363763D01*
X112197168Y-45626553D01*
X112054522Y-45970081D01*
X112054198Y-46342047D01*
X105432755Y-46342047D01*
X106346181Y-45428621D01*
X106510928Y-45182060D01*
X106568780Y-44891220D01*
X106568780Y-44655582D01*
X111530025Y-39694337D01*
X111662843Y-40015783D01*
G36*
X135115000Y-50089250D02*
X135273750Y-50248000D01*
X136873000Y-50248000D01*
X136873000Y-50228000D01*
X137127000Y-50228000D01*
X137127000Y-50248000D01*
X137147000Y-50248000D01*
X137147000Y-50502000D01*
X137127000Y-50502000D01*
X137127000Y-50522000D01*
X136873000Y-50522000D01*
X136873000Y-50502000D01*
X135273750Y-50502000D01*
X135115000Y-50660750D01*
X135115000Y-52290000D01*
X134885000Y-52290000D01*
X134885000Y-50660750D01*
X134726250Y-50502000D01*
X133127000Y-50502000D01*
X133127000Y-50522000D01*
X132873000Y-50522000D01*
X132873000Y-50502000D01*
X131273750Y-50502000D01*
X131125000Y-50650750D01*
X130976250Y-50502000D01*
X129377000Y-50502000D01*
X129377000Y-50522000D01*
X129123000Y-50522000D01*
X129123000Y-50502000D01*
X129103000Y-50502000D01*
X129103000Y-50248000D01*
X129123000Y-50248000D01*
X129123000Y-50228000D01*
X129377000Y-50228000D01*
X129377000Y-50248000D01*
X130976250Y-50248000D01*
X131125000Y-50099250D01*
X131273750Y-50248000D01*
X132873000Y-50248000D01*
X132873000Y-50228000D01*
X133127000Y-50228000D01*
X133127000Y-50248000D01*
X134726250Y-50248000D01*
X134885000Y-50089250D01*
X134885000Y-48397700D01*
X135115000Y-48397700D01*
X135115000Y-50089250D01*
X135115000Y-50089250D01*
G37*
X135115000Y-50089250D02*
X135273750Y-50248000D01*
X136873000Y-50248000D01*
X136873000Y-50228000D01*
X137127000Y-50228000D01*
X137127000Y-50248000D01*
X137147000Y-50248000D01*
X137147000Y-50502000D01*
X137127000Y-50502000D01*
X137127000Y-50522000D01*
X136873000Y-50522000D01*
X136873000Y-50502000D01*
X135273750Y-50502000D01*
X135115000Y-50660750D01*
X135115000Y-52290000D01*
X134885000Y-52290000D01*
X134885000Y-50660750D01*
X134726250Y-50502000D01*
X133127000Y-50502000D01*
X133127000Y-50522000D01*
X132873000Y-50522000D01*
X132873000Y-50502000D01*
X131273750Y-50502000D01*
X131125000Y-50650750D01*
X130976250Y-50502000D01*
X129377000Y-50502000D01*
X129377000Y-50522000D01*
X129123000Y-50522000D01*
X129123000Y-50502000D01*
X129103000Y-50502000D01*
X129103000Y-50248000D01*
X129123000Y-50248000D01*
X129123000Y-50228000D01*
X129377000Y-50228000D01*
X129377000Y-50248000D01*
X130976250Y-50248000D01*
X131125000Y-50099250D01*
X131273750Y-50248000D01*
X132873000Y-50248000D01*
X132873000Y-50228000D01*
X133127000Y-50228000D01*
X133127000Y-50248000D01*
X134726250Y-50248000D01*
X134885000Y-50089250D01*
X134885000Y-48397700D01*
X135115000Y-48397700D01*
X135115000Y-50089250D01*
G36*
X193290000Y-42226336D02*
X193083185Y-41916815D01*
X192127411Y-41278188D01*
X191000000Y-41053932D01*
X189872589Y-41278188D01*
X188916815Y-41916815D01*
X188278188Y-42872589D01*
X188053932Y-44000000D01*
X188278188Y-45127411D01*
X188916815Y-46083185D01*
X189872589Y-46721812D01*
X191000000Y-46946068D01*
X192127411Y-46721812D01*
X193083185Y-46083185D01*
X193290000Y-45773664D01*
X193290000Y-52290000D01*
X159422608Y-52290000D01*
X159466924Y-52271645D01*
X159895183Y-51881358D01*
X160141486Y-51356892D01*
X160020819Y-51127000D01*
X158827000Y-51127000D01*
X158827000Y-51147000D01*
X158573000Y-51147000D01*
X158573000Y-51127000D01*
X158553000Y-51127000D01*
X158553000Y-50873000D01*
X158573000Y-50873000D01*
X158573000Y-50853000D01*
X158827000Y-50853000D01*
X158827000Y-50873000D01*
X160020819Y-50873000D01*
X160141486Y-50643108D01*
X159895183Y-50118642D01*
X159817054Y-50047440D01*
X159855000Y-50047440D01*
X160090317Y-50003162D01*
X160189528Y-49939322D01*
X160273110Y-49996431D01*
X160525000Y-50047440D01*
X161125000Y-50047440D01*
X161335000Y-50007926D01*
X161335000Y-50595000D01*
X161392852Y-50885839D01*
X161557599Y-51132401D01*
X161564878Y-51139680D01*
X161564838Y-51185167D01*
X161706883Y-51528943D01*
X161969673Y-51792192D01*
X162313201Y-51934838D01*
X162685167Y-51935162D01*
X163028943Y-51793117D01*
X163292192Y-51530327D01*
X163393749Y-51285750D01*
X167865000Y-51285750D01*
X167865000Y-51751310D01*
X167961673Y-51984699D01*
X168140302Y-52163327D01*
X168373691Y-52260000D01*
X168714250Y-52260000D01*
X168873000Y-52101250D01*
X168873000Y-51127000D01*
X168023750Y-51127000D01*
X167865000Y-51285750D01*
X163393749Y-51285750D01*
X163434838Y-51186799D01*
X163435162Y-50814833D01*
X163293117Y-50471057D01*
X163260000Y-50437882D01*
X163260000Y-48777000D01*
X163492000Y-48777000D01*
X163492000Y-49876250D01*
X163650750Y-50035000D01*
X163791310Y-50035000D01*
X164000000Y-49948558D01*
X164208690Y-50035000D01*
X164349250Y-50035000D01*
X164508000Y-49876250D01*
X164508000Y-48777000D01*
X164762000Y-48777000D01*
X164762000Y-49876250D01*
X164920750Y-50035000D01*
X165061310Y-50035000D01*
X165270000Y-49948558D01*
X165478690Y-50035000D01*
X165619250Y-50035000D01*
X165778000Y-49876250D01*
X165778000Y-48777000D01*
X166032000Y-48777000D01*
X166032000Y-49876250D01*
X166190750Y-50035000D01*
X166331310Y-50035000D01*
X166540000Y-49948558D01*
X166748690Y-50035000D01*
X166889250Y-50035000D01*
X167048000Y-49876250D01*
X167048000Y-48777000D01*
X166032000Y-48777000D01*
X165778000Y-48777000D01*
X164762000Y-48777000D01*
X164508000Y-48777000D01*
X163492000Y-48777000D01*
X163260000Y-48777000D01*
X163260000Y-48503000D01*
X163492000Y-48503000D01*
X163492000Y-48523000D01*
X164508000Y-48523000D01*
X164508000Y-48503000D01*
X164762000Y-48503000D01*
X164762000Y-48523000D01*
X165778000Y-48523000D01*
X165778000Y-48503000D01*
X166032000Y-48503000D01*
X166032000Y-48523000D01*
X167048000Y-48523000D01*
X167048000Y-48503000D01*
X167302000Y-48503000D01*
X167302000Y-48523000D01*
X168318000Y-48523000D01*
X168318000Y-48503000D01*
X168572000Y-48503000D01*
X168572000Y-48523000D01*
X168592000Y-48523000D01*
X168592000Y-48777000D01*
X168572000Y-48777000D01*
X168572000Y-48797000D01*
X168318000Y-48797000D01*
X168318000Y-48777000D01*
X167302000Y-48777000D01*
X167302000Y-49876250D01*
X167460750Y-50035000D01*
X167601310Y-50035000D01*
X167810000Y-49948558D01*
X167964444Y-50012530D01*
X167961673Y-50015301D01*
X167865000Y-50248690D01*
X167865000Y-50714250D01*
X168023750Y-50873000D01*
X168873000Y-50873000D01*
X168873000Y-50853000D01*
X169127000Y-50853000D01*
X169127000Y-50873000D01*
X169147000Y-50873000D01*
X169147000Y-51127000D01*
X169127000Y-51127000D01*
X169127000Y-52101250D01*
X169285750Y-52260000D01*
X169626309Y-52260000D01*
X169859698Y-52163327D01*
X170000936Y-52022090D01*
X170035910Y-52076441D01*
X170248110Y-52221431D01*
X170500000Y-52272440D01*
X171500000Y-52272440D01*
X171735317Y-52228162D01*
X171951441Y-52089090D01*
X172096431Y-51876890D01*
X172115966Y-51780423D01*
X172200000Y-51797440D01*
X172900000Y-51797440D01*
X173135317Y-51753162D01*
X173351441Y-51614090D01*
X173496431Y-51401890D01*
X173499081Y-51388803D01*
X173635910Y-51601441D01*
X173848110Y-51746431D01*
X174100000Y-51797440D01*
X174800000Y-51797440D01*
X174882100Y-51781992D01*
X174896838Y-51860317D01*
X175035910Y-52076441D01*
X175248110Y-52221431D01*
X175500000Y-52272440D01*
X176500000Y-52272440D01*
X176735317Y-52228162D01*
X176951441Y-52089090D01*
X176997969Y-52020994D01*
X177140302Y-52163327D01*
X177373691Y-52260000D01*
X177714250Y-52260000D01*
X177873000Y-52101250D01*
X177873000Y-51127000D01*
X178127000Y-51127000D01*
X178127000Y-52101250D01*
X178285750Y-52260000D01*
X178626309Y-52260000D01*
X178859698Y-52163327D01*
X179038327Y-51984699D01*
X179135000Y-51751310D01*
X179135000Y-51285750D01*
X178976250Y-51127000D01*
X178127000Y-51127000D01*
X177873000Y-51127000D01*
X177853000Y-51127000D01*
X177853000Y-50873000D01*
X177873000Y-50873000D01*
X177873000Y-49898750D01*
X178127000Y-49898750D01*
X178127000Y-50873000D01*
X178976250Y-50873000D01*
X179135000Y-50714250D01*
X179135000Y-50248690D01*
X179038327Y-50015301D01*
X178859698Y-49836673D01*
X178626309Y-49740000D01*
X178285750Y-49740000D01*
X178127000Y-49898750D01*
X177873000Y-49898750D01*
X177714250Y-49740000D01*
X177373691Y-49740000D01*
X177140302Y-49836673D01*
X176999064Y-49977910D01*
X176964090Y-49923559D01*
X176935081Y-49903738D01*
X177053461Y-49785564D01*
X177264759Y-49276702D01*
X177265002Y-48997827D01*
X177495961Y-49152148D01*
X177786800Y-49210000D01*
X178477069Y-49210000D01*
X178535910Y-49301441D01*
X178748110Y-49446431D01*
X179000000Y-49497440D01*
X180300000Y-49497440D01*
X180535317Y-49453162D01*
X180751441Y-49314090D01*
X180896431Y-49101890D01*
X180947440Y-48850000D01*
X180947440Y-48697505D01*
X181237218Y-48932875D01*
X181748000Y-49085000D01*
X182023000Y-49085000D01*
X182023000Y-47852000D01*
X182277000Y-47852000D01*
X182277000Y-49085000D01*
X182552000Y-49085000D01*
X183062782Y-48932875D01*
X183476467Y-48596862D01*
X183697310Y-48188677D01*
X184456365Y-48188677D01*
X184458505Y-48220714D01*
X184679598Y-48640796D01*
X185044620Y-48944293D01*
X185498000Y-49085000D01*
X185823000Y-49085000D01*
X185823000Y-48002000D01*
X186077000Y-48002000D01*
X186077000Y-49085000D01*
X186402000Y-49085000D01*
X186855380Y-48944293D01*
X187220402Y-48640796D01*
X187441495Y-48220714D01*
X187443635Y-48188677D01*
X187318550Y-48002000D01*
X186077000Y-48002000D01*
X185823000Y-48002000D01*
X184581450Y-48002000D01*
X184456365Y-48188677D01*
X183697310Y-48188677D01*
X183730076Y-48128116D01*
X183742519Y-48062258D01*
X183619518Y-47852000D01*
X182277000Y-47852000D01*
X182023000Y-47852000D01*
X182003000Y-47852000D01*
X182003000Y-47598000D01*
X182023000Y-47598000D01*
X182023000Y-46365000D01*
X181748000Y-46365000D01*
X181237218Y-46517125D01*
X180944583Y-46754816D01*
X180903162Y-46534683D01*
X180902233Y-46533239D01*
X180947440Y-46310000D01*
X180947440Y-45510000D01*
X180903162Y-45274683D01*
X180900693Y-45270845D01*
X180908330Y-45233132D01*
X180977560Y-45302362D01*
X180977560Y-45500000D01*
X181021838Y-45735317D01*
X181160910Y-45951441D01*
X181373110Y-46096431D01*
X181625000Y-46147440D01*
X182231096Y-46147440D01*
X182165000Y-46479723D01*
X182165000Y-46520277D01*
X182243785Y-46916354D01*
X182277000Y-46966064D01*
X182277000Y-47598000D01*
X183619518Y-47598000D01*
X183640974Y-47561323D01*
X184456365Y-47561323D01*
X184581450Y-47748000D01*
X185823000Y-47748000D01*
X185823000Y-46665000D01*
X186077000Y-46665000D01*
X186077000Y-47748000D01*
X187318550Y-47748000D01*
X187443635Y-47561323D01*
X187441495Y-47529286D01*
X187220402Y-47109204D01*
X186855380Y-46805707D01*
X186402000Y-46665000D01*
X186077000Y-46665000D01*
X185823000Y-46665000D01*
X185498000Y-46665000D01*
X185044620Y-46805707D01*
X184679598Y-47109204D01*
X184458505Y-47529286D01*
X184456365Y-47561323D01*
X183640974Y-47561323D01*
X183742519Y-47387742D01*
X183740993Y-47379663D01*
X183931856Y-47252133D01*
X184156215Y-46916354D01*
X184235000Y-46520277D01*
X184235000Y-46479723D01*
X184156215Y-46083646D01*
X183931856Y-45747867D01*
X183596077Y-45523508D01*
X183520715Y-45508518D01*
X183522440Y-45500000D01*
X183522440Y-44500000D01*
X184052560Y-44500000D01*
X184052560Y-45500000D01*
X184096838Y-45735317D01*
X184235910Y-45951441D01*
X184448110Y-46096431D01*
X184700000Y-46147440D01*
X186300000Y-46147440D01*
X186535317Y-46103162D01*
X186751441Y-45964090D01*
X186896431Y-45751890D01*
X186947440Y-45500000D01*
X186947440Y-44500000D01*
X186903162Y-44264683D01*
X186764090Y-44048559D01*
X186551890Y-43903569D01*
X186300000Y-43852560D01*
X184700000Y-43852560D01*
X184464683Y-43896838D01*
X184248559Y-44035910D01*
X184103569Y-44248110D01*
X184052560Y-44500000D01*
X183522440Y-44500000D01*
X183478162Y-44264683D01*
X183339090Y-44048559D01*
X183269289Y-44000866D01*
X183326441Y-43964090D01*
X183465890Y-43760000D01*
X183750000Y-43760000D01*
X184040839Y-43702148D01*
X184287401Y-43537401D01*
X184681174Y-43143628D01*
X184700000Y-43147440D01*
X186300000Y-43147440D01*
X186535317Y-43103162D01*
X186751441Y-42964090D01*
X186896431Y-42751890D01*
X186947440Y-42500000D01*
X186947440Y-41500000D01*
X186903162Y-41264683D01*
X186857000Y-41192946D01*
X187220402Y-40890796D01*
X187441495Y-40470714D01*
X187443635Y-40438677D01*
X187318550Y-40252000D01*
X186077000Y-40252000D01*
X186077000Y-40272000D01*
X185823000Y-40272000D01*
X185823000Y-40252000D01*
X184581450Y-40252000D01*
X184456365Y-40438677D01*
X184458505Y-40470714D01*
X184663126Y-40859498D01*
X184464683Y-40896838D01*
X184248559Y-41035910D01*
X184169682Y-41151350D01*
X184156215Y-41083646D01*
X183931856Y-40747867D01*
X183740993Y-40620337D01*
X183742519Y-40612258D01*
X183619518Y-40402000D01*
X182277000Y-40402000D01*
X182277000Y-41033936D01*
X182243785Y-41083646D01*
X182165000Y-41479723D01*
X182165000Y-41520277D01*
X182231096Y-41852560D01*
X181625000Y-41852560D01*
X181389683Y-41896838D01*
X181173559Y-42035910D01*
X181028569Y-42248110D01*
X180977560Y-42500000D01*
X180977560Y-42902758D01*
X180927192Y-42852390D01*
X180903162Y-42724683D01*
X180900693Y-42720845D01*
X180947440Y-42490000D01*
X180947440Y-41690000D01*
X180903162Y-41454683D01*
X180902233Y-41453239D01*
X180944396Y-41245032D01*
X181237218Y-41482875D01*
X181748000Y-41635000D01*
X182023000Y-41635000D01*
X182023000Y-40402000D01*
X182003000Y-40402000D01*
X182003000Y-40148000D01*
X182023000Y-40148000D01*
X182023000Y-38915000D01*
X182277000Y-38915000D01*
X182277000Y-40148000D01*
X183619518Y-40148000D01*
X183742519Y-39937742D01*
X183730076Y-39871884D01*
X183697311Y-39811323D01*
X184456365Y-39811323D01*
X184581450Y-39998000D01*
X185823000Y-39998000D01*
X185823000Y-38915000D01*
X186077000Y-38915000D01*
X186077000Y-39998000D01*
X187318550Y-39998000D01*
X187443635Y-39811323D01*
X187441495Y-39779286D01*
X187220402Y-39359204D01*
X186855380Y-39055707D01*
X186402000Y-38915000D01*
X186077000Y-38915000D01*
X185823000Y-38915000D01*
X185498000Y-38915000D01*
X185044620Y-39055707D01*
X184679598Y-39359204D01*
X184458505Y-39779286D01*
X184456365Y-39811323D01*
X183697311Y-39811323D01*
X183476467Y-39403138D01*
X183062782Y-39067125D01*
X182552000Y-38915000D01*
X182277000Y-38915000D01*
X182023000Y-38915000D01*
X181748000Y-38915000D01*
X181237218Y-39067125D01*
X180823533Y-39403138D01*
X180812788Y-39422998D01*
X180776252Y-39422998D01*
X180935000Y-39264250D01*
X180935000Y-39023690D01*
X180838327Y-38790301D01*
X180659698Y-38611673D01*
X180426309Y-38515000D01*
X179935750Y-38515000D01*
X179777000Y-38673750D01*
X179777000Y-39423000D01*
X179797000Y-39423000D01*
X179797000Y-39677000D01*
X179777000Y-39677000D01*
X179777000Y-39697000D01*
X179523000Y-39697000D01*
X179523000Y-39677000D01*
X178523750Y-39677000D01*
X178365000Y-39835750D01*
X178365000Y-40076310D01*
X178384000Y-40122179D01*
X178355480Y-40127852D01*
X178108919Y-40292599D01*
X176760000Y-41641518D01*
X176760000Y-40184547D01*
X176783515Y-40174831D01*
X177173461Y-39785564D01*
X177384759Y-39276702D01*
X177384979Y-39023690D01*
X178365000Y-39023690D01*
X178365000Y-39264250D01*
X178523750Y-39423000D01*
X179523000Y-39423000D01*
X179523000Y-38673750D01*
X179364250Y-38515000D01*
X178873691Y-38515000D01*
X178640302Y-38611673D01*
X178461673Y-38790301D01*
X178365000Y-39023690D01*
X177384979Y-39023690D01*
X177385240Y-38725715D01*
X177183671Y-38237880D01*
X177235317Y-38228162D01*
X177451441Y-38089090D01*
X177497969Y-38020994D01*
X177640302Y-38163327D01*
X177873691Y-38260000D01*
X178214250Y-38260000D01*
X178373000Y-38101250D01*
X178373000Y-37127000D01*
X178627000Y-37127000D01*
X178627000Y-38101250D01*
X178785750Y-38260000D01*
X179126309Y-38260000D01*
X179359698Y-38163327D01*
X179538327Y-37984699D01*
X179635000Y-37751310D01*
X179635000Y-37285750D01*
X179476250Y-37127000D01*
X178627000Y-37127000D01*
X178373000Y-37127000D01*
X178353000Y-37127000D01*
X178353000Y-36873000D01*
X178373000Y-36873000D01*
X178373000Y-35898750D01*
X178627000Y-35898750D01*
X178627000Y-36873000D01*
X179476250Y-36873000D01*
X179635000Y-36714250D01*
X179635000Y-36248690D01*
X179538327Y-36015301D01*
X179359698Y-35836673D01*
X179126309Y-35740000D01*
X178785750Y-35740000D01*
X178627000Y-35898750D01*
X178373000Y-35898750D01*
X178214250Y-35740000D01*
X177873691Y-35740000D01*
X177640302Y-35836673D01*
X177499064Y-35977910D01*
X177464090Y-35923559D01*
X177251890Y-35778569D01*
X177000000Y-35727560D01*
X176000000Y-35727560D01*
X175764683Y-35771838D01*
X175548559Y-35910910D01*
X175403569Y-36123110D01*
X175352560Y-36375000D01*
X175352560Y-37127284D01*
X175297852Y-37209161D01*
X175240000Y-37500000D01*
X175240000Y-37815453D01*
X175219936Y-37823743D01*
X175096361Y-37638799D01*
X173920161Y-36462599D01*
X173673599Y-36297852D01*
X173382760Y-36240000D01*
X172122038Y-36240000D01*
X172103162Y-36139683D01*
X171964090Y-35923559D01*
X171751890Y-35778569D01*
X171500000Y-35727560D01*
X170500000Y-35727560D01*
X170264683Y-35771838D01*
X170048559Y-35910910D01*
X170002031Y-35979006D01*
X169859698Y-35836673D01*
X169626309Y-35740000D01*
X169285750Y-35740000D01*
X169127000Y-35898750D01*
X169127000Y-36873000D01*
X169147000Y-36873000D01*
X169147000Y-37127000D01*
X169127000Y-37127000D01*
X169127000Y-37147000D01*
X168873000Y-37147000D01*
X168873000Y-37127000D01*
X168023750Y-37127000D01*
X167898016Y-37252734D01*
X167714200Y-37068918D01*
X167714200Y-37004200D01*
X167656348Y-36713361D01*
X167491601Y-36466799D01*
X167297440Y-36272638D01*
X167297440Y-36248690D01*
X167865000Y-36248690D01*
X167865000Y-36714250D01*
X168023750Y-36873000D01*
X168873000Y-36873000D01*
X168873000Y-35898750D01*
X168714250Y-35740000D01*
X168373691Y-35740000D01*
X168140302Y-35836673D01*
X167961673Y-36015301D01*
X167865000Y-36248690D01*
X167297440Y-36248690D01*
X167297440Y-35710000D01*
X193290000Y-35710000D01*
X193290000Y-42226336D01*
X193290000Y-42226336D01*
G37*
X193290000Y-42226336D02*
X193083185Y-41916815D01*
X192127411Y-41278188D01*
X191000000Y-41053932D01*
X189872589Y-41278188D01*
X188916815Y-41916815D01*
X188278188Y-42872589D01*
X188053932Y-44000000D01*
X188278188Y-45127411D01*
X188916815Y-46083185D01*
X189872589Y-46721812D01*
X191000000Y-46946068D01*
X192127411Y-46721812D01*
X193083185Y-46083185D01*
X193290000Y-45773664D01*
X193290000Y-52290000D01*
X159422608Y-52290000D01*
X159466924Y-52271645D01*
X159895183Y-51881358D01*
X160141486Y-51356892D01*
X160020819Y-51127000D01*
X158827000Y-51127000D01*
X158827000Y-51147000D01*
X158573000Y-51147000D01*
X158573000Y-51127000D01*
X158553000Y-51127000D01*
X158553000Y-50873000D01*
X158573000Y-50873000D01*
X158573000Y-50853000D01*
X158827000Y-50853000D01*
X158827000Y-50873000D01*
X160020819Y-50873000D01*
X160141486Y-50643108D01*
X159895183Y-50118642D01*
X159817054Y-50047440D01*
X159855000Y-50047440D01*
X160090317Y-50003162D01*
X160189528Y-49939322D01*
X160273110Y-49996431D01*
X160525000Y-50047440D01*
X161125000Y-50047440D01*
X161335000Y-50007926D01*
X161335000Y-50595000D01*
X161392852Y-50885839D01*
X161557599Y-51132401D01*
X161564878Y-51139680D01*
X161564838Y-51185167D01*
X161706883Y-51528943D01*
X161969673Y-51792192D01*
X162313201Y-51934838D01*
X162685167Y-51935162D01*
X163028943Y-51793117D01*
X163292192Y-51530327D01*
X163393749Y-51285750D01*
X167865000Y-51285750D01*
X167865000Y-51751310D01*
X167961673Y-51984699D01*
X168140302Y-52163327D01*
X168373691Y-52260000D01*
X168714250Y-52260000D01*
X168873000Y-52101250D01*
X168873000Y-51127000D01*
X168023750Y-51127000D01*
X167865000Y-51285750D01*
X163393749Y-51285750D01*
X163434838Y-51186799D01*
X163435162Y-50814833D01*
X163293117Y-50471057D01*
X163260000Y-50437882D01*
X163260000Y-48777000D01*
X163492000Y-48777000D01*
X163492000Y-49876250D01*
X163650750Y-50035000D01*
X163791310Y-50035000D01*
X164000000Y-49948558D01*
X164208690Y-50035000D01*
X164349250Y-50035000D01*
X164508000Y-49876250D01*
X164508000Y-48777000D01*
X164762000Y-48777000D01*
X164762000Y-49876250D01*
X164920750Y-50035000D01*
X165061310Y-50035000D01*
X165270000Y-49948558D01*
X165478690Y-50035000D01*
X165619250Y-50035000D01*
X165778000Y-49876250D01*
X165778000Y-48777000D01*
X166032000Y-48777000D01*
X166032000Y-49876250D01*
X166190750Y-50035000D01*
X166331310Y-50035000D01*
X166540000Y-49948558D01*
X166748690Y-50035000D01*
X166889250Y-50035000D01*
X167048000Y-49876250D01*
X167048000Y-48777000D01*
X166032000Y-48777000D01*
X165778000Y-48777000D01*
X164762000Y-48777000D01*
X164508000Y-48777000D01*
X163492000Y-48777000D01*
X163260000Y-48777000D01*
X163260000Y-48503000D01*
X163492000Y-48503000D01*
X163492000Y-48523000D01*
X164508000Y-48523000D01*
X164508000Y-48503000D01*
X164762000Y-48503000D01*
X164762000Y-48523000D01*
X165778000Y-48523000D01*
X165778000Y-48503000D01*
X166032000Y-48503000D01*
X166032000Y-48523000D01*
X167048000Y-48523000D01*
X167048000Y-48503000D01*
X167302000Y-48503000D01*
X167302000Y-48523000D01*
X168318000Y-48523000D01*
X168318000Y-48503000D01*
X168572000Y-48503000D01*
X168572000Y-48523000D01*
X168592000Y-48523000D01*
X168592000Y-48777000D01*
X168572000Y-48777000D01*
X168572000Y-48797000D01*
X168318000Y-48797000D01*
X168318000Y-48777000D01*
X167302000Y-48777000D01*
X167302000Y-49876250D01*
X167460750Y-50035000D01*
X167601310Y-50035000D01*
X167810000Y-49948558D01*
X167964444Y-50012530D01*
X167961673Y-50015301D01*
X167865000Y-50248690D01*
X167865000Y-50714250D01*
X168023750Y-50873000D01*
X168873000Y-50873000D01*
X168873000Y-50853000D01*
X169127000Y-50853000D01*
X169127000Y-50873000D01*
X169147000Y-50873000D01*
X169147000Y-51127000D01*
X169127000Y-51127000D01*
X169127000Y-52101250D01*
X169285750Y-52260000D01*
X169626309Y-52260000D01*
X169859698Y-52163327D01*
X170000936Y-52022090D01*
X170035910Y-52076441D01*
X170248110Y-52221431D01*
X170500000Y-52272440D01*
X171500000Y-52272440D01*
X171735317Y-52228162D01*
X171951441Y-52089090D01*
X172096431Y-51876890D01*
X172115966Y-51780423D01*
X172200000Y-51797440D01*
X172900000Y-51797440D01*
X173135317Y-51753162D01*
X173351441Y-51614090D01*
X173496431Y-51401890D01*
X173499081Y-51388803D01*
X173635910Y-51601441D01*
X173848110Y-51746431D01*
X174100000Y-51797440D01*
X174800000Y-51797440D01*
X174882100Y-51781992D01*
X174896838Y-51860317D01*
X175035910Y-52076441D01*
X175248110Y-52221431D01*
X175500000Y-52272440D01*
X176500000Y-52272440D01*
X176735317Y-52228162D01*
X176951441Y-52089090D01*
X176997969Y-52020994D01*
X177140302Y-52163327D01*
X177373691Y-52260000D01*
X177714250Y-52260000D01*
X177873000Y-52101250D01*
X177873000Y-51127000D01*
X178127000Y-51127000D01*
X178127000Y-52101250D01*
X178285750Y-52260000D01*
X178626309Y-52260000D01*
X178859698Y-52163327D01*
X179038327Y-51984699D01*
X179135000Y-51751310D01*
X179135000Y-51285750D01*
X178976250Y-51127000D01*
X178127000Y-51127000D01*
X177873000Y-51127000D01*
X177853000Y-51127000D01*
X177853000Y-50873000D01*
X177873000Y-50873000D01*
X177873000Y-49898750D01*
X178127000Y-49898750D01*
X178127000Y-50873000D01*
X178976250Y-50873000D01*
X179135000Y-50714250D01*
X179135000Y-50248690D01*
X179038327Y-50015301D01*
X178859698Y-49836673D01*
X178626309Y-49740000D01*
X178285750Y-49740000D01*
X178127000Y-49898750D01*
X177873000Y-49898750D01*
X177714250Y-49740000D01*
X177373691Y-49740000D01*
X177140302Y-49836673D01*
X176999064Y-49977910D01*
X176964090Y-49923559D01*
X176935081Y-49903738D01*
X177053461Y-49785564D01*
X177264759Y-49276702D01*
X177265002Y-48997827D01*
X177495961Y-49152148D01*
X177786800Y-49210000D01*
X178477069Y-49210000D01*
X178535910Y-49301441D01*
X178748110Y-49446431D01*
X179000000Y-49497440D01*
X180300000Y-49497440D01*
X180535317Y-49453162D01*
X180751441Y-49314090D01*
X180896431Y-49101890D01*
X180947440Y-48850000D01*
X180947440Y-48697505D01*
X181237218Y-48932875D01*
X181748000Y-49085000D01*
X182023000Y-49085000D01*
X182023000Y-47852000D01*
X182277000Y-47852000D01*
X182277000Y-49085000D01*
X182552000Y-49085000D01*
X183062782Y-48932875D01*
X183476467Y-48596862D01*
X183697310Y-48188677D01*
X184456365Y-48188677D01*
X184458505Y-48220714D01*
X184679598Y-48640796D01*
X185044620Y-48944293D01*
X185498000Y-49085000D01*
X185823000Y-49085000D01*
X185823000Y-48002000D01*
X186077000Y-48002000D01*
X186077000Y-49085000D01*
X186402000Y-49085000D01*
X186855380Y-48944293D01*
X187220402Y-48640796D01*
X187441495Y-48220714D01*
X187443635Y-48188677D01*
X187318550Y-48002000D01*
X186077000Y-48002000D01*
X185823000Y-48002000D01*
X184581450Y-48002000D01*
X184456365Y-48188677D01*
X183697310Y-48188677D01*
X183730076Y-48128116D01*
X183742519Y-48062258D01*
X183619518Y-47852000D01*
X182277000Y-47852000D01*
X182023000Y-47852000D01*
X182003000Y-47852000D01*
X182003000Y-47598000D01*
X182023000Y-47598000D01*
X182023000Y-46365000D01*
X181748000Y-46365000D01*
X181237218Y-46517125D01*
X180944583Y-46754816D01*
X180903162Y-46534683D01*
X180902233Y-46533239D01*
X180947440Y-46310000D01*
X180947440Y-45510000D01*
X180903162Y-45274683D01*
X180900693Y-45270845D01*
X180908330Y-45233132D01*
X180977560Y-45302362D01*
X180977560Y-45500000D01*
X181021838Y-45735317D01*
X181160910Y-45951441D01*
X181373110Y-46096431D01*
X181625000Y-46147440D01*
X182231096Y-46147440D01*
X182165000Y-46479723D01*
X182165000Y-46520277D01*
X182243785Y-46916354D01*
X182277000Y-46966064D01*
X182277000Y-47598000D01*
X183619518Y-47598000D01*
X183640974Y-47561323D01*
X184456365Y-47561323D01*
X184581450Y-47748000D01*
X185823000Y-47748000D01*
X185823000Y-46665000D01*
X186077000Y-46665000D01*
X186077000Y-47748000D01*
X187318550Y-47748000D01*
X187443635Y-47561323D01*
X187441495Y-47529286D01*
X187220402Y-47109204D01*
X186855380Y-46805707D01*
X186402000Y-46665000D01*
X186077000Y-46665000D01*
X185823000Y-46665000D01*
X185498000Y-46665000D01*
X185044620Y-46805707D01*
X184679598Y-47109204D01*
X184458505Y-47529286D01*
X184456365Y-47561323D01*
X183640974Y-47561323D01*
X183742519Y-47387742D01*
X183740993Y-47379663D01*
X183931856Y-47252133D01*
X184156215Y-46916354D01*
X184235000Y-46520277D01*
X184235000Y-46479723D01*
X184156215Y-46083646D01*
X183931856Y-45747867D01*
X183596077Y-45523508D01*
X183520715Y-45508518D01*
X183522440Y-45500000D01*
X183522440Y-44500000D01*
X184052560Y-44500000D01*
X184052560Y-45500000D01*
X184096838Y-45735317D01*
X184235910Y-45951441D01*
X184448110Y-46096431D01*
X184700000Y-46147440D01*
X186300000Y-46147440D01*
X186535317Y-46103162D01*
X186751441Y-45964090D01*
X186896431Y-45751890D01*
X186947440Y-45500000D01*
X186947440Y-44500000D01*
X186903162Y-44264683D01*
X186764090Y-44048559D01*
X186551890Y-43903569D01*
X186300000Y-43852560D01*
X184700000Y-43852560D01*
X184464683Y-43896838D01*
X184248559Y-44035910D01*
X184103569Y-44248110D01*
X184052560Y-44500000D01*
X183522440Y-44500000D01*
X183478162Y-44264683D01*
X183339090Y-44048559D01*
X183269289Y-44000866D01*
X183326441Y-43964090D01*
X183465890Y-43760000D01*
X183750000Y-43760000D01*
X184040839Y-43702148D01*
X184287401Y-43537401D01*
X184681174Y-43143628D01*
X184700000Y-43147440D01*
X186300000Y-43147440D01*
X186535317Y-43103162D01*
X186751441Y-42964090D01*
X186896431Y-42751890D01*
X186947440Y-42500000D01*
X186947440Y-41500000D01*
X186903162Y-41264683D01*
X186857000Y-41192946D01*
X187220402Y-40890796D01*
X187441495Y-40470714D01*
X187443635Y-40438677D01*
X187318550Y-40252000D01*
X186077000Y-40252000D01*
X186077000Y-40272000D01*
X185823000Y-40272000D01*
X185823000Y-40252000D01*
X184581450Y-40252000D01*
X184456365Y-40438677D01*
X184458505Y-40470714D01*
X184663126Y-40859498D01*
X184464683Y-40896838D01*
X184248559Y-41035910D01*
X184169682Y-41151350D01*
X184156215Y-41083646D01*
X183931856Y-40747867D01*
X183740993Y-40620337D01*
X183742519Y-40612258D01*
X183619518Y-40402000D01*
X182277000Y-40402000D01*
X182277000Y-41033936D01*
X182243785Y-41083646D01*
X182165000Y-41479723D01*
X182165000Y-41520277D01*
X182231096Y-41852560D01*
X181625000Y-41852560D01*
X181389683Y-41896838D01*
X181173559Y-42035910D01*
X181028569Y-42248110D01*
X180977560Y-42500000D01*
X180977560Y-42902758D01*
X180927192Y-42852390D01*
X180903162Y-42724683D01*
X180900693Y-42720845D01*
X180947440Y-42490000D01*
X180947440Y-41690000D01*
X180903162Y-41454683D01*
X180902233Y-41453239D01*
X180944396Y-41245032D01*
X181237218Y-41482875D01*
X181748000Y-41635000D01*
X182023000Y-41635000D01*
X182023000Y-40402000D01*
X182003000Y-40402000D01*
X182003000Y-40148000D01*
X182023000Y-40148000D01*
X182023000Y-38915000D01*
X182277000Y-38915000D01*
X182277000Y-40148000D01*
X183619518Y-40148000D01*
X183742519Y-39937742D01*
X183730076Y-39871884D01*
X183697311Y-39811323D01*
X184456365Y-39811323D01*
X184581450Y-39998000D01*
X185823000Y-39998000D01*
X185823000Y-38915000D01*
X186077000Y-38915000D01*
X186077000Y-39998000D01*
X187318550Y-39998000D01*
X187443635Y-39811323D01*
X187441495Y-39779286D01*
X187220402Y-39359204D01*
X186855380Y-39055707D01*
X186402000Y-38915000D01*
X186077000Y-38915000D01*
X185823000Y-38915000D01*
X185498000Y-38915000D01*
X185044620Y-39055707D01*
X184679598Y-39359204D01*
X184458505Y-39779286D01*
X184456365Y-39811323D01*
X183697311Y-39811323D01*
X183476467Y-39403138D01*
X183062782Y-39067125D01*
X182552000Y-38915000D01*
X182277000Y-38915000D01*
X182023000Y-38915000D01*
X181748000Y-38915000D01*
X181237218Y-39067125D01*
X180823533Y-39403138D01*
X180812788Y-39422998D01*
X180776252Y-39422998D01*
X180935000Y-39264250D01*
X180935000Y-39023690D01*
X180838327Y-38790301D01*
X180659698Y-38611673D01*
X180426309Y-38515000D01*
X179935750Y-38515000D01*
X179777000Y-38673750D01*
X179777000Y-39423000D01*
X179797000Y-39423000D01*
X179797000Y-39677000D01*
X179777000Y-39677000D01*
X179777000Y-39697000D01*
X179523000Y-39697000D01*
X179523000Y-39677000D01*
X178523750Y-39677000D01*
X178365000Y-39835750D01*
X178365000Y-40076310D01*
X178384000Y-40122179D01*
X178355480Y-40127852D01*
X178108919Y-40292599D01*
X176760000Y-41641518D01*
X176760000Y-40184547D01*
X176783515Y-40174831D01*
X177173461Y-39785564D01*
X177384759Y-39276702D01*
X177384979Y-39023690D01*
X178365000Y-39023690D01*
X178365000Y-39264250D01*
X178523750Y-39423000D01*
X179523000Y-39423000D01*
X179523000Y-38673750D01*
X179364250Y-38515000D01*
X178873691Y-38515000D01*
X178640302Y-38611673D01*
X178461673Y-38790301D01*
X178365000Y-39023690D01*
X177384979Y-39023690D01*
X177385240Y-38725715D01*
X177183671Y-38237880D01*
X177235317Y-38228162D01*
X177451441Y-38089090D01*
X177497969Y-38020994D01*
X177640302Y-38163327D01*
X177873691Y-38260000D01*
X178214250Y-38260000D01*
X178373000Y-38101250D01*
X178373000Y-37127000D01*
X178627000Y-37127000D01*
X178627000Y-38101250D01*
X178785750Y-38260000D01*
X179126309Y-38260000D01*
X179359698Y-38163327D01*
X179538327Y-37984699D01*
X179635000Y-37751310D01*
X179635000Y-37285750D01*
X179476250Y-37127000D01*
X178627000Y-37127000D01*
X178373000Y-37127000D01*
X178353000Y-37127000D01*
X178353000Y-36873000D01*
X178373000Y-36873000D01*
X178373000Y-35898750D01*
X178627000Y-35898750D01*
X178627000Y-36873000D01*
X179476250Y-36873000D01*
X179635000Y-36714250D01*
X179635000Y-36248690D01*
X179538327Y-36015301D01*
X179359698Y-35836673D01*
X179126309Y-35740000D01*
X178785750Y-35740000D01*
X178627000Y-35898750D01*
X178373000Y-35898750D01*
X178214250Y-35740000D01*
X177873691Y-35740000D01*
X177640302Y-35836673D01*
X177499064Y-35977910D01*
X177464090Y-35923559D01*
X177251890Y-35778569D01*
X177000000Y-35727560D01*
X176000000Y-35727560D01*
X175764683Y-35771838D01*
X175548559Y-35910910D01*
X175403569Y-36123110D01*
X175352560Y-36375000D01*
X175352560Y-37127284D01*
X175297852Y-37209161D01*
X175240000Y-37500000D01*
X175240000Y-37815453D01*
X175219936Y-37823743D01*
X175096361Y-37638799D01*
X173920161Y-36462599D01*
X173673599Y-36297852D01*
X173382760Y-36240000D01*
X172122038Y-36240000D01*
X172103162Y-36139683D01*
X171964090Y-35923559D01*
X171751890Y-35778569D01*
X171500000Y-35727560D01*
X170500000Y-35727560D01*
X170264683Y-35771838D01*
X170048559Y-35910910D01*
X170002031Y-35979006D01*
X169859698Y-35836673D01*
X169626309Y-35740000D01*
X169285750Y-35740000D01*
X169127000Y-35898750D01*
X169127000Y-36873000D01*
X169147000Y-36873000D01*
X169147000Y-37127000D01*
X169127000Y-37127000D01*
X169127000Y-37147000D01*
X168873000Y-37147000D01*
X168873000Y-37127000D01*
X168023750Y-37127000D01*
X167898016Y-37252734D01*
X167714200Y-37068918D01*
X167714200Y-37004200D01*
X167656348Y-36713361D01*
X167491601Y-36466799D01*
X167297440Y-36272638D01*
X167297440Y-36248690D01*
X167865000Y-36248690D01*
X167865000Y-36714250D01*
X168023750Y-36873000D01*
X168873000Y-36873000D01*
X168873000Y-35898750D01*
X168714250Y-35740000D01*
X168373691Y-35740000D01*
X168140302Y-35836673D01*
X167961673Y-36015301D01*
X167865000Y-36248690D01*
X167297440Y-36248690D01*
X167297440Y-35710000D01*
X193290000Y-35710000D01*
X193290000Y-42226336D01*
G36*
X143198659Y-49793081D02*
X143445221Y-49957828D01*
X143736060Y-50015680D01*
X144236598Y-50015680D01*
X144410239Y-50189321D01*
X144502560Y-50251008D01*
X144502560Y-51850000D01*
X144505142Y-51863720D01*
X142885000Y-51863720D01*
X142885000Y-50660750D01*
X142726250Y-50502000D01*
X141127000Y-50502000D01*
X141127000Y-50522000D01*
X140873000Y-50522000D01*
X140873000Y-50502000D01*
X140853000Y-50502000D01*
X140853000Y-50248000D01*
X140873000Y-50248000D01*
X140873000Y-50228000D01*
X141127000Y-50228000D01*
X141127000Y-50248000D01*
X142726250Y-50248000D01*
X142885000Y-50089250D01*
X142885000Y-49479422D01*
X143198659Y-49793081D01*
X143198659Y-49793081D01*
G37*
X143198659Y-49793081D02*
X143445221Y-49957828D01*
X143736060Y-50015680D01*
X144236598Y-50015680D01*
X144410239Y-50189321D01*
X144502560Y-50251008D01*
X144502560Y-51850000D01*
X144505142Y-51863720D01*
X142885000Y-51863720D01*
X142885000Y-50660750D01*
X142726250Y-50502000D01*
X141127000Y-50502000D01*
X141127000Y-50522000D01*
X140873000Y-50522000D01*
X140873000Y-50502000D01*
X140853000Y-50502000D01*
X140853000Y-50248000D01*
X140873000Y-50248000D01*
X140873000Y-50228000D01*
X141127000Y-50228000D01*
X141127000Y-50248000D01*
X142726250Y-50248000D01*
X142885000Y-50089250D01*
X142885000Y-49479422D01*
X143198659Y-49793081D01*
G36*
X154594118Y-45463207D02*
X154677010Y-45663821D01*
X154648188Y-45692593D01*
X154505542Y-46036121D01*
X154505218Y-46408087D01*
X154647263Y-46751863D01*
X154910053Y-47015112D01*
X155253581Y-47157758D01*
X155300457Y-47157799D01*
X156753191Y-48610533D01*
X156753118Y-48694087D01*
X156895163Y-49037863D01*
X157157953Y-49301112D01*
X157501481Y-49443758D01*
X157873447Y-49444082D01*
X158217223Y-49302037D01*
X158347963Y-49171525D01*
X158363839Y-49187401D01*
X158607560Y-49350250D01*
X158607560Y-49400000D01*
X158629199Y-49515000D01*
X158572998Y-49515000D01*
X158572998Y-49679844D01*
X158343110Y-49558524D01*
X157933076Y-49728355D01*
X157504817Y-50118642D01*
X157437702Y-50261553D01*
X157210054Y-49920853D01*
X156728285Y-49598946D01*
X156160000Y-49485907D01*
X155591715Y-49598946D01*
X155109946Y-49920853D01*
X154890000Y-50250026D01*
X154670054Y-49920853D01*
X154188285Y-49598946D01*
X153620000Y-49485907D01*
X153385845Y-49532483D01*
X151626761Y-47773399D01*
X151380199Y-47608652D01*
X151089360Y-47550800D01*
X150657402Y-47550800D01*
X150616602Y-47510000D01*
X150627002Y-47510000D01*
X150627002Y-47351252D01*
X150785750Y-47510000D01*
X151126309Y-47510000D01*
X151359698Y-47413327D01*
X151538327Y-47234699D01*
X151635000Y-47001310D01*
X151635000Y-46535750D01*
X151476250Y-46377000D01*
X150627000Y-46377000D01*
X150627000Y-46397000D01*
X150373000Y-46397000D01*
X150373000Y-46377000D01*
X150353000Y-46377000D01*
X150353000Y-46123000D01*
X150373000Y-46123000D01*
X150373000Y-46103000D01*
X150627000Y-46103000D01*
X150627000Y-46123000D01*
X151476250Y-46123000D01*
X151635000Y-45964250D01*
X151635000Y-45878869D01*
X152061017Y-46046321D01*
X152078838Y-46049530D01*
X152094519Y-46058590D01*
X152224167Y-46075700D01*
X152352861Y-46098874D01*
X152370555Y-46095019D01*
X152388508Y-46097388D01*
X152514833Y-46063582D01*
X152642600Y-46035743D01*
X152657471Y-46025411D01*
X152674965Y-46020729D01*
X153918201Y-45408120D01*
X154594166Y-45408120D01*
X154594118Y-45463207D01*
X154594118Y-45463207D01*
G37*
X154594118Y-45463207D02*
X154677010Y-45663821D01*
X154648188Y-45692593D01*
X154505542Y-46036121D01*
X154505218Y-46408087D01*
X154647263Y-46751863D01*
X154910053Y-47015112D01*
X155253581Y-47157758D01*
X155300457Y-47157799D01*
X156753191Y-48610533D01*
X156753118Y-48694087D01*
X156895163Y-49037863D01*
X157157953Y-49301112D01*
X157501481Y-49443758D01*
X157873447Y-49444082D01*
X158217223Y-49302037D01*
X158347963Y-49171525D01*
X158363839Y-49187401D01*
X158607560Y-49350250D01*
X158607560Y-49400000D01*
X158629199Y-49515000D01*
X158572998Y-49515000D01*
X158572998Y-49679844D01*
X158343110Y-49558524D01*
X157933076Y-49728355D01*
X157504817Y-50118642D01*
X157437702Y-50261553D01*
X157210054Y-49920853D01*
X156728285Y-49598946D01*
X156160000Y-49485907D01*
X155591715Y-49598946D01*
X155109946Y-49920853D01*
X154890000Y-50250026D01*
X154670054Y-49920853D01*
X154188285Y-49598946D01*
X153620000Y-49485907D01*
X153385845Y-49532483D01*
X151626761Y-47773399D01*
X151380199Y-47608652D01*
X151089360Y-47550800D01*
X150657402Y-47550800D01*
X150616602Y-47510000D01*
X150627002Y-47510000D01*
X150627002Y-47351252D01*
X150785750Y-47510000D01*
X151126309Y-47510000D01*
X151359698Y-47413327D01*
X151538327Y-47234699D01*
X151635000Y-47001310D01*
X151635000Y-46535750D01*
X151476250Y-46377000D01*
X150627000Y-46377000D01*
X150627000Y-46397000D01*
X150373000Y-46397000D01*
X150373000Y-46377000D01*
X150353000Y-46377000D01*
X150353000Y-46123000D01*
X150373000Y-46123000D01*
X150373000Y-46103000D01*
X150627000Y-46103000D01*
X150627000Y-46123000D01*
X151476250Y-46123000D01*
X151635000Y-45964250D01*
X151635000Y-45878869D01*
X152061017Y-46046321D01*
X152078838Y-46049530D01*
X152094519Y-46058590D01*
X152224167Y-46075700D01*
X152352861Y-46098874D01*
X152370555Y-46095019D01*
X152388508Y-46097388D01*
X152514833Y-46063582D01*
X152642600Y-46035743D01*
X152657471Y-46025411D01*
X152674965Y-46020729D01*
X153918201Y-45408120D01*
X154594166Y-45408120D01*
X154594118Y-45463207D01*
G36*
X124523750Y-45873000D02*
X124879312Y-45873000D01*
X125000000Y-45897440D01*
X125747000Y-45897440D01*
X125747000Y-46102560D01*
X125000000Y-46102560D01*
X124870113Y-46127000D01*
X124523750Y-46127000D01*
X124365000Y-46285750D01*
X124365000Y-46476309D01*
X124393870Y-46546007D01*
X124352560Y-46750000D01*
X124352560Y-47450000D01*
X124391574Y-47657342D01*
X124352560Y-47850000D01*
X124352560Y-48390000D01*
X123429602Y-48390000D01*
X122485341Y-47445739D01*
X122238779Y-47280992D01*
X122234295Y-47280100D01*
X122684540Y-47280100D01*
X122975379Y-47222248D01*
X123221941Y-47057501D01*
X124465096Y-45814346D01*
X124523750Y-45873000D01*
X124523750Y-45873000D01*
G37*
X124523750Y-45873000D02*
X124879312Y-45873000D01*
X125000000Y-45897440D01*
X125747000Y-45897440D01*
X125747000Y-46102560D01*
X125000000Y-46102560D01*
X124870113Y-46127000D01*
X124523750Y-46127000D01*
X124365000Y-46285750D01*
X124365000Y-46476309D01*
X124393870Y-46546007D01*
X124352560Y-46750000D01*
X124352560Y-47450000D01*
X124391574Y-47657342D01*
X124352560Y-47850000D01*
X124352560Y-48390000D01*
X123429602Y-48390000D01*
X122485341Y-47445739D01*
X122238779Y-47280992D01*
X122234295Y-47280100D01*
X122684540Y-47280100D01*
X122975379Y-47222248D01*
X123221941Y-47057501D01*
X124465096Y-45814346D01*
X124523750Y-45873000D01*
G36*
X146945159Y-40030039D02*
X146780412Y-40276601D01*
X146722560Y-40567440D01*
X146722560Y-45921660D01*
X146516080Y-45962732D01*
X146269519Y-46127479D01*
X146166829Y-46230169D01*
X146184838Y-46186799D01*
X146185162Y-45814833D01*
X146096352Y-45599896D01*
X146184838Y-45386799D01*
X146185162Y-45014833D01*
X146096352Y-44799896D01*
X146184838Y-44586799D01*
X146185162Y-44214833D01*
X146043117Y-43871057D01*
X145780327Y-43607808D01*
X145436799Y-43465162D01*
X145389923Y-43465121D01*
X144623060Y-42698258D01*
X144623060Y-40345360D01*
X144565208Y-40054521D01*
X144400461Y-39807959D01*
X144300862Y-39708360D01*
X147266838Y-39708360D01*
X146945159Y-40030039D01*
X146945159Y-40030039D01*
G37*
X146945159Y-40030039D02*
X146780412Y-40276601D01*
X146722560Y-40567440D01*
X146722560Y-45921660D01*
X146516080Y-45962732D01*
X146269519Y-46127479D01*
X146166829Y-46230169D01*
X146184838Y-46186799D01*
X146185162Y-45814833D01*
X146096352Y-45599896D01*
X146184838Y-45386799D01*
X146185162Y-45014833D01*
X146096352Y-44799896D01*
X146184838Y-44586799D01*
X146185162Y-44214833D01*
X146043117Y-43871057D01*
X145780327Y-43607808D01*
X145436799Y-43465162D01*
X145389923Y-43465121D01*
X144623060Y-42698258D01*
X144623060Y-40345360D01*
X144565208Y-40054521D01*
X144400461Y-39807959D01*
X144300862Y-39708360D01*
X147266838Y-39708360D01*
X146945159Y-40030039D01*
G36*
X127352560Y-45882356D02*
X127078993Y-45882118D01*
X126835000Y-45982934D01*
X126835000Y-45872998D01*
X126676252Y-45872998D01*
X126835000Y-45714250D01*
X126835000Y-45523691D01*
X126806130Y-45453993D01*
X126847440Y-45250000D01*
X126847440Y-44560000D01*
X127352560Y-44560000D01*
X127352560Y-45882356D01*
X127352560Y-45882356D01*
G37*
X127352560Y-45882356D02*
X127078993Y-45882118D01*
X126835000Y-45982934D01*
X126835000Y-45872998D01*
X126676252Y-45872998D01*
X126835000Y-45714250D01*
X126835000Y-45523691D01*
X126806130Y-45453993D01*
X126847440Y-45250000D01*
X126847440Y-44560000D01*
X127352560Y-44560000D01*
X127352560Y-45882356D01*
G36*
X122642439Y-37196839D02*
X121829639Y-38009639D01*
X121664892Y-38256201D01*
X121607040Y-38547040D01*
X121607040Y-39471758D01*
X120407239Y-40671559D01*
X120242492Y-40918121D01*
X120184640Y-41208960D01*
X120184640Y-42414337D01*
X120152448Y-42446473D01*
X120009802Y-42790001D01*
X120009478Y-43161967D01*
X120151523Y-43505743D01*
X120414313Y-43768992D01*
X120757841Y-43911638D01*
X121068330Y-43911908D01*
X120845600Y-44134638D01*
X120800113Y-44134598D01*
X120456337Y-44276643D01*
X120193088Y-44539433D01*
X120050442Y-44882961D01*
X120050367Y-44968727D01*
X117074220Y-41992580D01*
X117074220Y-39566703D01*
X117106412Y-39534567D01*
X117249058Y-39191039D01*
X117249382Y-38819073D01*
X117107337Y-38475297D01*
X116844547Y-38212048D01*
X116501019Y-38069402D01*
X116129053Y-38069078D01*
X115785277Y-38211123D01*
X115522028Y-38473913D01*
X115379382Y-38817441D01*
X115379058Y-39189407D01*
X115521103Y-39533183D01*
X115554220Y-39566358D01*
X115554220Y-41108978D01*
X114365725Y-39920483D01*
X114253201Y-39752079D01*
X114006640Y-39587332D01*
X113715800Y-39529480D01*
X113424961Y-39587332D01*
X113390853Y-39610122D01*
X113391122Y-39301673D01*
X113249077Y-38957897D01*
X113215960Y-38924722D01*
X113215960Y-37485162D01*
X113578482Y-37122640D01*
X122753486Y-37122640D01*
X122642439Y-37196839D01*
X122642439Y-37196839D01*
G37*
X122642439Y-37196839D02*
X121829639Y-38009639D01*
X121664892Y-38256201D01*
X121607040Y-38547040D01*
X121607040Y-39471758D01*
X120407239Y-40671559D01*
X120242492Y-40918121D01*
X120184640Y-41208960D01*
X120184640Y-42414337D01*
X120152448Y-42446473D01*
X120009802Y-42790001D01*
X120009478Y-43161967D01*
X120151523Y-43505743D01*
X120414313Y-43768992D01*
X120757841Y-43911638D01*
X121068330Y-43911908D01*
X120845600Y-44134638D01*
X120800113Y-44134598D01*
X120456337Y-44276643D01*
X120193088Y-44539433D01*
X120050442Y-44882961D01*
X120050367Y-44968727D01*
X117074220Y-41992580D01*
X117074220Y-39566703D01*
X117106412Y-39534567D01*
X117249058Y-39191039D01*
X117249382Y-38819073D01*
X117107337Y-38475297D01*
X116844547Y-38212048D01*
X116501019Y-38069402D01*
X116129053Y-38069078D01*
X115785277Y-38211123D01*
X115522028Y-38473913D01*
X115379382Y-38817441D01*
X115379058Y-39189407D01*
X115521103Y-39533183D01*
X115554220Y-39566358D01*
X115554220Y-41108978D01*
X114365725Y-39920483D01*
X114253201Y-39752079D01*
X114006640Y-39587332D01*
X113715800Y-39529480D01*
X113424961Y-39587332D01*
X113390853Y-39610122D01*
X113391122Y-39301673D01*
X113249077Y-38957897D01*
X113215960Y-38924722D01*
X113215960Y-37485162D01*
X113578482Y-37122640D01*
X122753486Y-37122640D01*
X122642439Y-37196839D01*
G36*
X108915000Y-36314250D02*
X109073750Y-36473000D01*
X110373000Y-36473000D01*
X110373000Y-36453000D01*
X110627000Y-36453000D01*
X110627000Y-36473000D01*
X110647000Y-36473000D01*
X110647000Y-36727000D01*
X110627000Y-36727000D01*
X110627000Y-37726250D01*
X110785750Y-37885000D01*
X111189758Y-37885000D01*
X105271379Y-43803379D01*
X105106632Y-44049941D01*
X105048780Y-44340780D01*
X105048780Y-44576418D01*
X104777438Y-44847760D01*
X104946068Y-44000000D01*
X104721812Y-42872589D01*
X104083185Y-41916815D01*
X103127411Y-41278188D01*
X102830727Y-41219174D01*
X103001792Y-41048407D01*
X103144438Y-40704879D01*
X103144479Y-40658003D01*
X103560722Y-40241760D01*
X106883200Y-40241760D01*
X107174039Y-40183908D01*
X107420601Y-40019161D01*
X107585348Y-39772599D01*
X107643200Y-39481760D01*
X107585348Y-39190921D01*
X107420601Y-38944359D01*
X107174039Y-38779612D01*
X106883200Y-38721760D01*
X104142244Y-38721760D01*
X104240839Y-38702148D01*
X104487401Y-38537401D01*
X105227362Y-37797440D01*
X105800000Y-37797440D01*
X106035317Y-37753162D01*
X106251441Y-37614090D01*
X106396431Y-37401890D01*
X106447440Y-37150000D01*
X106447440Y-36885750D01*
X108915000Y-36885750D01*
X108915000Y-37376309D01*
X109011673Y-37609698D01*
X109190301Y-37788327D01*
X109423690Y-37885000D01*
X110214250Y-37885000D01*
X110373000Y-37726250D01*
X110373000Y-36727000D01*
X109073750Y-36727000D01*
X108915000Y-36885750D01*
X106447440Y-36885750D01*
X106447440Y-36131618D01*
X108915000Y-36131618D01*
X108915000Y-36314250D01*
X108915000Y-36314250D01*
G37*
X108915000Y-36314250D02*
X109073750Y-36473000D01*
X110373000Y-36473000D01*
X110373000Y-36453000D01*
X110627000Y-36453000D01*
X110627000Y-36473000D01*
X110647000Y-36473000D01*
X110647000Y-36727000D01*
X110627000Y-36727000D01*
X110627000Y-37726250D01*
X110785750Y-37885000D01*
X111189758Y-37885000D01*
X105271379Y-43803379D01*
X105106632Y-44049941D01*
X105048780Y-44340780D01*
X105048780Y-44576418D01*
X104777438Y-44847760D01*
X104946068Y-44000000D01*
X104721812Y-42872589D01*
X104083185Y-41916815D01*
X103127411Y-41278188D01*
X102830727Y-41219174D01*
X103001792Y-41048407D01*
X103144438Y-40704879D01*
X103144479Y-40658003D01*
X103560722Y-40241760D01*
X106883200Y-40241760D01*
X107174039Y-40183908D01*
X107420601Y-40019161D01*
X107585348Y-39772599D01*
X107643200Y-39481760D01*
X107585348Y-39190921D01*
X107420601Y-38944359D01*
X107174039Y-38779612D01*
X106883200Y-38721760D01*
X104142244Y-38721760D01*
X104240839Y-38702148D01*
X104487401Y-38537401D01*
X105227362Y-37797440D01*
X105800000Y-37797440D01*
X106035317Y-37753162D01*
X106251441Y-37614090D01*
X106396431Y-37401890D01*
X106447440Y-37150000D01*
X106447440Y-36885750D01*
X108915000Y-36885750D01*
X108915000Y-37376309D01*
X109011673Y-37609698D01*
X109190301Y-37788327D01*
X109423690Y-37885000D01*
X110214250Y-37885000D01*
X110373000Y-37726250D01*
X110373000Y-36727000D01*
X109073750Y-36727000D01*
X108915000Y-36885750D01*
X106447440Y-36885750D01*
X106447440Y-36131618D01*
X108915000Y-36131618D01*
X108915000Y-36314250D01*
G36*
X101127914Y-35767233D02*
X100808355Y-36086235D01*
X100635197Y-36503244D01*
X100634803Y-36954775D01*
X100652689Y-36998061D01*
X100627000Y-37023750D01*
X100627000Y-37873000D01*
X101476250Y-37873000D01*
X101501698Y-37847552D01*
X101543244Y-37864803D01*
X101905117Y-37865119D01*
X101904803Y-38224775D01*
X102077233Y-38642086D01*
X102396235Y-38961645D01*
X102604679Y-39048199D01*
X102069920Y-39582958D01*
X102024433Y-39582918D01*
X101680657Y-39724963D01*
X101417408Y-39987753D01*
X101274762Y-40331281D01*
X101274438Y-40703247D01*
X101416483Y-41047023D01*
X101518908Y-41149627D01*
X100872589Y-41278188D01*
X99916815Y-41916815D01*
X99710000Y-42226336D01*
X99710000Y-39067197D01*
X99873690Y-39135000D01*
X100214250Y-39135000D01*
X100373000Y-38976250D01*
X100373000Y-38127000D01*
X100627000Y-38127000D01*
X100627000Y-38976250D01*
X100785750Y-39135000D01*
X101126310Y-39135000D01*
X101359699Y-39038327D01*
X101538327Y-38859698D01*
X101635000Y-38626309D01*
X101635000Y-38285750D01*
X101476250Y-38127000D01*
X100627000Y-38127000D01*
X100373000Y-38127000D01*
X100353000Y-38127000D01*
X100353000Y-37873000D01*
X100373000Y-37873000D01*
X100373000Y-37023750D01*
X100214250Y-36865000D01*
X99873690Y-36865000D01*
X99710000Y-36932803D01*
X99710000Y-35710000D01*
X101266428Y-35710000D01*
X101127914Y-35767233D01*
X101127914Y-35767233D01*
G37*
X101127914Y-35767233D02*
X100808355Y-36086235D01*
X100635197Y-36503244D01*
X100634803Y-36954775D01*
X100652689Y-36998061D01*
X100627000Y-37023750D01*
X100627000Y-37873000D01*
X101476250Y-37873000D01*
X101501698Y-37847552D01*
X101543244Y-37864803D01*
X101905117Y-37865119D01*
X101904803Y-38224775D01*
X102077233Y-38642086D01*
X102396235Y-38961645D01*
X102604679Y-39048199D01*
X102069920Y-39582958D01*
X102024433Y-39582918D01*
X101680657Y-39724963D01*
X101417408Y-39987753D01*
X101274762Y-40331281D01*
X101274438Y-40703247D01*
X101416483Y-41047023D01*
X101518908Y-41149627D01*
X100872589Y-41278188D01*
X99916815Y-41916815D01*
X99710000Y-42226336D01*
X99710000Y-39067197D01*
X99873690Y-39135000D01*
X100214250Y-39135000D01*
X100373000Y-38976250D01*
X100373000Y-38127000D01*
X100627000Y-38127000D01*
X100627000Y-38976250D01*
X100785750Y-39135000D01*
X101126310Y-39135000D01*
X101359699Y-39038327D01*
X101538327Y-38859698D01*
X101635000Y-38626309D01*
X101635000Y-38285750D01*
X101476250Y-38127000D01*
X100627000Y-38127000D01*
X100373000Y-38127000D01*
X100353000Y-38127000D01*
X100353000Y-37873000D01*
X100373000Y-37873000D01*
X100373000Y-37023750D01*
X100214250Y-36865000D01*
X99873690Y-36865000D01*
X99710000Y-36932803D01*
X99710000Y-35710000D01*
X101266428Y-35710000D01*
X101127914Y-35767233D01*
G36*
X164762000Y-39223000D02*
X165778000Y-39223000D01*
X165778000Y-39203000D01*
X166032000Y-39203000D01*
X166032000Y-39223000D01*
X167048000Y-39223000D01*
X167048000Y-39203000D01*
X167302000Y-39203000D01*
X167302000Y-39223000D01*
X168318000Y-39223000D01*
X168318000Y-39203000D01*
X168572000Y-39203000D01*
X168572000Y-39223000D01*
X168592000Y-39223000D01*
X168592000Y-39477000D01*
X168572000Y-39477000D01*
X168572000Y-39497000D01*
X168318000Y-39497000D01*
X168318000Y-39477000D01*
X167302000Y-39477000D01*
X167302000Y-39497000D01*
X167048000Y-39497000D01*
X167048000Y-39477000D01*
X166032000Y-39477000D01*
X166032000Y-39497000D01*
X165778000Y-39497000D01*
X165778000Y-39477000D01*
X164762000Y-39477000D01*
X164762000Y-39497000D01*
X164508000Y-39497000D01*
X164508000Y-39477000D01*
X164488000Y-39477000D01*
X164488000Y-39223000D01*
X164508000Y-39223000D01*
X164508000Y-39203000D01*
X164762000Y-39203000D01*
X164762000Y-39223000D01*
X164762000Y-39223000D01*
G37*
X164762000Y-39223000D02*
X165778000Y-39223000D01*
X165778000Y-39203000D01*
X166032000Y-39203000D01*
X166032000Y-39223000D01*
X167048000Y-39223000D01*
X167048000Y-39203000D01*
X167302000Y-39203000D01*
X167302000Y-39223000D01*
X168318000Y-39223000D01*
X168318000Y-39203000D01*
X168572000Y-39203000D01*
X168572000Y-39223000D01*
X168592000Y-39223000D01*
X168592000Y-39477000D01*
X168572000Y-39477000D01*
X168572000Y-39497000D01*
X168318000Y-39497000D01*
X168318000Y-39477000D01*
X167302000Y-39477000D01*
X167302000Y-39497000D01*
X167048000Y-39497000D01*
X167048000Y-39477000D01*
X166032000Y-39477000D01*
X166032000Y-39497000D01*
X165778000Y-39497000D01*
X165778000Y-39477000D01*
X164762000Y-39477000D01*
X164762000Y-39497000D01*
X164508000Y-39497000D01*
X164508000Y-39477000D01*
X164488000Y-39477000D01*
X164488000Y-39223000D01*
X164508000Y-39223000D01*
X164508000Y-39203000D01*
X164762000Y-39203000D01*
X164762000Y-39223000D01*
G36*
X152702560Y-36400000D02*
X152746838Y-36635317D01*
X152885910Y-36851441D01*
X153098110Y-36996431D01*
X153111197Y-36999081D01*
X152898559Y-37135910D01*
X152753569Y-37348110D01*
X152702560Y-37600000D01*
X152702560Y-38300000D01*
X152746838Y-38535317D01*
X152885910Y-38751441D01*
X153098110Y-38896431D01*
X153240000Y-38925164D01*
X153240000Y-39309398D01*
X153161892Y-39387506D01*
X153093117Y-39221057D01*
X152897419Y-39025017D01*
X152797701Y-38875779D01*
X152028286Y-38106364D01*
X152275183Y-37881358D01*
X152521486Y-37356892D01*
X152400819Y-37127000D01*
X151207000Y-37127000D01*
X151207000Y-37147000D01*
X150953000Y-37147000D01*
X150953000Y-37127000D01*
X150933000Y-37127000D01*
X150933000Y-36873000D01*
X150953000Y-36873000D01*
X150953000Y-36853000D01*
X151207000Y-36853000D01*
X151207000Y-36873000D01*
X152400819Y-36873000D01*
X152521486Y-36643108D01*
X152275183Y-36118642D01*
X151846924Y-35728355D01*
X151802608Y-35710000D01*
X152702560Y-35710000D01*
X152702560Y-36400000D01*
X152702560Y-36400000D01*
G37*
X152702560Y-36400000D02*
X152746838Y-36635317D01*
X152885910Y-36851441D01*
X153098110Y-36996431D01*
X153111197Y-36999081D01*
X152898559Y-37135910D01*
X152753569Y-37348110D01*
X152702560Y-37600000D01*
X152702560Y-38300000D01*
X152746838Y-38535317D01*
X152885910Y-38751441D01*
X153098110Y-38896431D01*
X153240000Y-38925164D01*
X153240000Y-39309398D01*
X153161892Y-39387506D01*
X153093117Y-39221057D01*
X152897419Y-39025017D01*
X152797701Y-38875779D01*
X152028286Y-38106364D01*
X152275183Y-37881358D01*
X152521486Y-37356892D01*
X152400819Y-37127000D01*
X151207000Y-37127000D01*
X151207000Y-37147000D01*
X150953000Y-37147000D01*
X150953000Y-37127000D01*
X150933000Y-37127000D01*
X150933000Y-36873000D01*
X150953000Y-36873000D01*
X150953000Y-36853000D01*
X151207000Y-36853000D01*
X151207000Y-36873000D01*
X152400819Y-36873000D01*
X152521486Y-36643108D01*
X152275183Y-36118642D01*
X151846924Y-35728355D01*
X151802608Y-35710000D01*
X152702560Y-35710000D01*
X152702560Y-36400000D01*
G36*
X125727000Y-38823000D02*
X125747000Y-38823000D01*
X125747000Y-39077000D01*
X125727000Y-39077000D01*
X125727000Y-39097000D01*
X125473000Y-39097000D01*
X125473000Y-39077000D01*
X125453000Y-39077000D01*
X125453000Y-38823000D01*
X125473000Y-38823000D01*
X125473000Y-38803000D01*
X125727000Y-38803000D01*
X125727000Y-38823000D01*
X125727000Y-38823000D01*
G37*
X125727000Y-38823000D02*
X125747000Y-38823000D01*
X125747000Y-39077000D01*
X125727000Y-39077000D01*
X125727000Y-39097000D01*
X125473000Y-39097000D01*
X125473000Y-39077000D01*
X125453000Y-39077000D01*
X125453000Y-38823000D01*
X125473000Y-38823000D01*
X125473000Y-38803000D01*
X125727000Y-38803000D01*
X125727000Y-38823000D01*
G36*
X139503200Y-37890882D02*
X139453620Y-37881020D01*
X129002643Y-37881020D01*
X128973294Y-37851620D01*
X139463938Y-37851620D01*
X139503200Y-37890882D01*
X139503200Y-37890882D01*
G37*
X139503200Y-37890882D02*
X139453620Y-37881020D01*
X129002643Y-37881020D01*
X128973294Y-37851620D01*
X139463938Y-37851620D01*
X139503200Y-37890882D01*
M02*
