G04 #@! TF.FileFunction,Soldermask,Bot*
%FSLAX46Y46*%
G04 Gerber Fmt 4.6, Leading zero omitted, Abs format (unit mm)*
G04 Created by KiCad (PCBNEW 4.0.7) date 01/21/18 20:58:22*
%MOMM*%
%LPD*%
G01*
G04 APERTURE LIST*
%ADD10C,0.100000*%
%ADD11R,1.400000X1.650000*%
%ADD12R,2.900000X4.150000*%
%ADD13R,1.650000X1.400000*%
%ADD14R,1.700000X1.200000*%
%ADD15R,2.000000X1.400000*%
%ADD16O,2.400000X1.850000*%
%ADD17O,2.200000X1.550000*%
%ADD18O,1.200000X1.200000*%
%ADD19R,1.600000X1.100000*%
%ADD20R,1.600000X1.400000*%
%ADD21R,1.200000X1.400000*%
%ADD22R,3.200000X1.400000*%
%ADD23R,2.300000X1.700000*%
%ADD24R,2.100000X2.100000*%
%ADD25O,2.100000X2.100000*%
%ADD26R,1.400000X1.400000*%
%ADD27O,1.400000X1.400000*%
%ADD28R,1.100000X1.700000*%
%ADD29C,1.400000*%
%ADD30R,1.700000X1.100000*%
%ADD31R,1.000000X1.900000*%
%ADD32C,1.900000*%
G04 APERTURE END LIST*
D10*
D11*
X148500000Y-46250000D03*
X150500000Y-46250000D03*
X169000000Y-51000000D03*
X171000000Y-51000000D03*
X178000000Y-51000000D03*
X176000000Y-51000000D03*
D12*
X141000000Y-44125000D03*
X141000000Y-50375000D03*
X137000000Y-44125000D03*
X137000000Y-50375000D03*
X133000000Y-44125000D03*
X133000000Y-50375000D03*
D11*
X176500000Y-37000000D03*
X178500000Y-37000000D03*
X171000000Y-37000000D03*
X169000000Y-37000000D03*
D13*
X182250000Y-45000000D03*
X182250000Y-43000000D03*
D12*
X129250000Y-44125000D03*
X129250000Y-50375000D03*
D14*
X179650000Y-39550000D03*
X179650000Y-40830000D03*
X179650000Y-42090000D03*
X179650000Y-43360000D03*
X179650000Y-44640000D03*
X179650000Y-45910000D03*
X179650000Y-47170000D03*
X179650000Y-48450000D03*
X173350000Y-48450000D03*
X173350000Y-47170000D03*
X173350000Y-45910000D03*
X173350000Y-44640000D03*
X173350000Y-43360000D03*
X173350000Y-42090000D03*
X173350000Y-40830000D03*
X173350000Y-39550000D03*
D15*
X185500000Y-42000000D03*
X185500000Y-45000000D03*
D16*
X182150000Y-47725000D03*
X182150000Y-40275000D03*
D17*
X185950000Y-47875000D03*
X185950000Y-40125000D03*
D18*
X183200000Y-46500000D03*
X183200000Y-41500000D03*
D19*
X125600000Y-49150000D03*
X125600000Y-48200000D03*
X125600000Y-40500000D03*
X125600000Y-41600000D03*
X125600000Y-42700000D03*
X125600000Y-43800000D03*
X125600000Y-44900000D03*
X125600000Y-46000000D03*
X125600000Y-47100000D03*
D20*
X125600000Y-38950000D03*
X121300000Y-50100000D03*
D21*
X115100000Y-50100000D03*
D22*
X110950000Y-50100000D03*
D23*
X110500000Y-36600000D03*
D24*
X146000000Y-37000000D03*
D25*
X148540000Y-37000000D03*
X151080000Y-37000000D03*
D26*
X105500000Y-50500000D03*
D27*
X106770000Y-50500000D03*
X108040000Y-50500000D03*
D26*
X100500000Y-50500000D03*
D27*
X101770000Y-50500000D03*
X103040000Y-50500000D03*
D24*
X146000000Y-51000000D03*
D25*
X148540000Y-51000000D03*
X151080000Y-51000000D03*
X153620000Y-51000000D03*
X156160000Y-51000000D03*
X158700000Y-51000000D03*
D28*
X134550000Y-40500000D03*
X136450000Y-40500000D03*
D29*
X101770000Y-36730000D03*
X103040000Y-38000000D03*
D26*
X100500000Y-38000000D03*
D28*
X172550000Y-50500000D03*
X174450000Y-50500000D03*
D30*
X156000000Y-36050000D03*
X156000000Y-37950000D03*
D28*
X105450000Y-36500000D03*
X103550000Y-36500000D03*
X100550000Y-48250000D03*
X102450000Y-48250000D03*
D30*
X161998660Y-37950180D03*
X161998660Y-36050180D03*
X163997640Y-37950180D03*
X163997640Y-36050180D03*
X166000000Y-37950000D03*
X166000000Y-36050000D03*
X158000000Y-36050000D03*
X158000000Y-37950000D03*
X154000000Y-36050000D03*
X154000000Y-37950000D03*
D31*
X159555000Y-39350000D03*
X160825000Y-39350000D03*
X162095000Y-39350000D03*
X163365000Y-39350000D03*
X164635000Y-39350000D03*
X165905000Y-39350000D03*
X167175000Y-39350000D03*
X168445000Y-39350000D03*
X168445000Y-48650000D03*
X167175000Y-48650000D03*
X165905000Y-48650000D03*
X164635000Y-48650000D03*
X163365000Y-48650000D03*
X162095000Y-48650000D03*
X160825000Y-48650000D03*
X159555000Y-48650000D03*
D32*
X171000000Y-49000000D03*
X175880000Y-49000000D03*
X176000000Y-39000000D03*
X171120000Y-39000000D03*
M02*
