%TF.GenerationSoftware,KiCad,Pcbnew,4.0.7*%
%TF.CreationDate,2018-01-21T21:24:04+02:00*%
%TF.ProjectId,OilMeteo_V2.0,4F696C4D6574656F5F56322E302E6B69,rev?*%
%TF.FileFunction,Legend,Bot*%
%FSLAX46Y46*%
G04 Gerber Fmt 4.6, Leading zero omitted, Abs format (unit mm)*
G04 Created by KiCad (PCBNEW 4.0.7) date 01/21/18 21:24:04*
%MOMM*%
%LPD*%
G01*
G04 APERTURE LIST*
%ADD10C,0.100000*%
%ADD11C,0.120000*%
%ADD12C,0.150000*%
G04 APERTURE END LIST*
D10*
D11*
X150000000Y-47100000D02*
X149000000Y-47100000D01*
X149000000Y-45400000D02*
X150000000Y-45400000D01*
X170500000Y-51850000D02*
X169500000Y-51850000D01*
X169500000Y-50150000D02*
X170500000Y-50150000D01*
X176500000Y-50150000D02*
X177500000Y-50150000D01*
X177500000Y-51850000D02*
X176500000Y-51850000D01*
X139150000Y-41950000D02*
X139150000Y-50250000D01*
X142850000Y-41950000D02*
X142850000Y-50250000D01*
X139150000Y-41950000D02*
X142850000Y-41950000D01*
X135150000Y-41950000D02*
X135150000Y-50250000D01*
X138850000Y-41950000D02*
X138850000Y-50250000D01*
X135150000Y-41950000D02*
X138850000Y-41950000D01*
X131150000Y-41950000D02*
X131150000Y-50250000D01*
X134850000Y-41950000D02*
X134850000Y-50250000D01*
X131150000Y-41950000D02*
X134850000Y-41950000D01*
X178000000Y-37850000D02*
X177000000Y-37850000D01*
X177000000Y-36150000D02*
X178000000Y-36150000D01*
X169500000Y-36150000D02*
X170500000Y-36150000D01*
X170500000Y-37850000D02*
X169500000Y-37850000D01*
X183100000Y-43500000D02*
X183100000Y-44500000D01*
X181400000Y-44500000D02*
X181400000Y-43500000D01*
X127400000Y-41950000D02*
X127400000Y-50250000D01*
X131100000Y-41950000D02*
X131100000Y-50250000D01*
X127400000Y-41950000D02*
X131100000Y-41950000D01*
X178900000Y-38600000D02*
X178900000Y-39000000D01*
X178900000Y-39000000D02*
X180300000Y-39000000D01*
X178900000Y-38600000D02*
X174100000Y-38600000D01*
X178900000Y-49400000D02*
X174100000Y-49400000D01*
X184440000Y-41300000D02*
X186560000Y-41300000D01*
X184440000Y-44500000D02*
X184440000Y-41300000D01*
X186560000Y-41300000D02*
X186560000Y-44500000D01*
X109490000Y-40270000D02*
X109840000Y-40780000D01*
X109690000Y-37760000D02*
X109690000Y-37500000D01*
X109490000Y-37960000D02*
X109690000Y-37760000D01*
X109490000Y-47360000D02*
X109690000Y-47150000D01*
X109840000Y-47150000D02*
X109690000Y-47150000D01*
X109840000Y-47150000D02*
X109840000Y-40780000D01*
X114450000Y-50250000D02*
X112650000Y-50250000D01*
X120450000Y-50250000D02*
X115750000Y-50250000D01*
X109490000Y-49220000D02*
X109690000Y-49420000D01*
X109490000Y-49220000D02*
X109490000Y-47360000D01*
X109490000Y-37960000D02*
X109490000Y-40270000D01*
X125760000Y-50250000D02*
X122150000Y-50250000D01*
X125760000Y-49800000D02*
X125760000Y-50250000D01*
X125760000Y-36280000D02*
X111750000Y-36280000D01*
X125760000Y-38200000D02*
X125760000Y-36280000D01*
X136100000Y-39620000D02*
X134900000Y-39620000D01*
X134900000Y-41380000D02*
X136100000Y-41380000D01*
X174100000Y-49620000D02*
X172900000Y-49620000D01*
X172900000Y-51380000D02*
X174100000Y-51380000D01*
X156880000Y-37600000D02*
X156880000Y-36400000D01*
X155120000Y-36400000D02*
X155120000Y-37600000D01*
X103900000Y-37380000D02*
X105100000Y-37380000D01*
X105100000Y-35620000D02*
X103900000Y-35620000D01*
X102100000Y-47370000D02*
X100900000Y-47370000D01*
X100900000Y-49130000D02*
X102100000Y-49130000D01*
X161118660Y-36400180D02*
X161118660Y-37600180D01*
X162878660Y-37600180D02*
X162878660Y-36400180D01*
X163117640Y-36400180D02*
X163117640Y-37600180D01*
X164877640Y-37600180D02*
X164877640Y-36400180D01*
X165120000Y-36400000D02*
X165120000Y-37600000D01*
X166880000Y-37600000D02*
X166880000Y-36400000D01*
X158880000Y-37600000D02*
X158880000Y-36400000D01*
X157120000Y-36400000D02*
X157120000Y-37600000D01*
X154880000Y-37600000D02*
X154880000Y-36400000D01*
X153120000Y-36400000D02*
X153120000Y-37600000D01*
D12*
X158675000Y-40125000D02*
X158950000Y-40125000D01*
X158675000Y-47875000D02*
X159030000Y-47875000D01*
X169325000Y-47875000D02*
X168970000Y-47875000D01*
X169325000Y-40125000D02*
X168970000Y-40125000D01*
X158675000Y-40125000D02*
X158675000Y-47875000D01*
X169325000Y-40125000D02*
X169325000Y-47875000D01*
X158950000Y-40125000D02*
X158950000Y-38600000D01*
X149666666Y-48107143D02*
X149714285Y-48154762D01*
X149857142Y-48202381D01*
X149952380Y-48202381D01*
X150095238Y-48154762D01*
X150190476Y-48059524D01*
X150238095Y-47964286D01*
X150285714Y-47773810D01*
X150285714Y-47630952D01*
X150238095Y-47440476D01*
X150190476Y-47345238D01*
X150095238Y-47250000D01*
X149952380Y-47202381D01*
X149857142Y-47202381D01*
X149714285Y-47250000D01*
X149666666Y-47297619D01*
X149333333Y-47202381D02*
X148714285Y-47202381D01*
X149047619Y-47583333D01*
X148904761Y-47583333D01*
X148809523Y-47630952D01*
X148761904Y-47678571D01*
X148714285Y-47773810D01*
X148714285Y-48011905D01*
X148761904Y-48107143D01*
X148809523Y-48154762D01*
X148904761Y-48202381D01*
X149190476Y-48202381D01*
X149285714Y-48154762D01*
X149333333Y-48107143D01*
X170166666Y-52857143D02*
X170214285Y-52904762D01*
X170357142Y-52952381D01*
X170452380Y-52952381D01*
X170595238Y-52904762D01*
X170690476Y-52809524D01*
X170738095Y-52714286D01*
X170785714Y-52523810D01*
X170785714Y-52380952D01*
X170738095Y-52190476D01*
X170690476Y-52095238D01*
X170595238Y-52000000D01*
X170452380Y-51952381D01*
X170357142Y-51952381D01*
X170214285Y-52000000D01*
X170166666Y-52047619D01*
X169309523Y-51952381D02*
X169500000Y-51952381D01*
X169595238Y-52000000D01*
X169642857Y-52047619D01*
X169738095Y-52190476D01*
X169785714Y-52380952D01*
X169785714Y-52761905D01*
X169738095Y-52857143D01*
X169690476Y-52904762D01*
X169595238Y-52952381D01*
X169404761Y-52952381D01*
X169309523Y-52904762D01*
X169261904Y-52857143D01*
X169214285Y-52761905D01*
X169214285Y-52523810D01*
X169261904Y-52428571D01*
X169309523Y-52380952D01*
X169404761Y-52333333D01*
X169595238Y-52333333D01*
X169690476Y-52380952D01*
X169738095Y-52428571D01*
X169785714Y-52523810D01*
X177166666Y-49857143D02*
X177214285Y-49904762D01*
X177357142Y-49952381D01*
X177452380Y-49952381D01*
X177595238Y-49904762D01*
X177690476Y-49809524D01*
X177738095Y-49714286D01*
X177785714Y-49523810D01*
X177785714Y-49380952D01*
X177738095Y-49190476D01*
X177690476Y-49095238D01*
X177595238Y-49000000D01*
X177452380Y-48952381D01*
X177357142Y-48952381D01*
X177214285Y-49000000D01*
X177166666Y-49047619D01*
X176833333Y-48952381D02*
X176166666Y-48952381D01*
X176595238Y-49952381D01*
X138007143Y-47083334D02*
X138054762Y-47035715D01*
X138102381Y-46892858D01*
X138102381Y-46797620D01*
X138054762Y-46654762D01*
X137959524Y-46559524D01*
X137864286Y-46511905D01*
X137673810Y-46464286D01*
X137530952Y-46464286D01*
X137340476Y-46511905D01*
X137245238Y-46559524D01*
X137150000Y-46654762D01*
X137102381Y-46797620D01*
X137102381Y-46892858D01*
X137150000Y-47035715D01*
X137197619Y-47083334D01*
X137530952Y-47654762D02*
X137483333Y-47559524D01*
X137435714Y-47511905D01*
X137340476Y-47464286D01*
X137292857Y-47464286D01*
X137197619Y-47511905D01*
X137150000Y-47559524D01*
X137102381Y-47654762D01*
X137102381Y-47845239D01*
X137150000Y-47940477D01*
X137197619Y-47988096D01*
X137292857Y-48035715D01*
X137340476Y-48035715D01*
X137435714Y-47988096D01*
X137483333Y-47940477D01*
X137530952Y-47845239D01*
X137530952Y-47654762D01*
X137578571Y-47559524D01*
X137626190Y-47511905D01*
X137721429Y-47464286D01*
X137911905Y-47464286D01*
X138007143Y-47511905D01*
X138054762Y-47559524D01*
X138102381Y-47654762D01*
X138102381Y-47845239D01*
X138054762Y-47940477D01*
X138007143Y-47988096D01*
X137911905Y-48035715D01*
X137721429Y-48035715D01*
X137626190Y-47988096D01*
X137578571Y-47940477D01*
X137530952Y-47845239D01*
X134007143Y-47083334D02*
X134054762Y-47035715D01*
X134102381Y-46892858D01*
X134102381Y-46797620D01*
X134054762Y-46654762D01*
X133959524Y-46559524D01*
X133864286Y-46511905D01*
X133673810Y-46464286D01*
X133530952Y-46464286D01*
X133340476Y-46511905D01*
X133245238Y-46559524D01*
X133150000Y-46654762D01*
X133102381Y-46797620D01*
X133102381Y-46892858D01*
X133150000Y-47035715D01*
X133197619Y-47083334D01*
X134102381Y-47559524D02*
X134102381Y-47750000D01*
X134054762Y-47845239D01*
X134007143Y-47892858D01*
X133864286Y-47988096D01*
X133673810Y-48035715D01*
X133292857Y-48035715D01*
X133197619Y-47988096D01*
X133150000Y-47940477D01*
X133102381Y-47845239D01*
X133102381Y-47654762D01*
X133150000Y-47559524D01*
X133197619Y-47511905D01*
X133292857Y-47464286D01*
X133530952Y-47464286D01*
X133626190Y-47511905D01*
X133673810Y-47559524D01*
X133721429Y-47654762D01*
X133721429Y-47845239D01*
X133673810Y-47940477D01*
X133626190Y-47988096D01*
X133530952Y-48035715D01*
X130007143Y-46607143D02*
X130054762Y-46559524D01*
X130102381Y-46416667D01*
X130102381Y-46321429D01*
X130054762Y-46178571D01*
X129959524Y-46083333D01*
X129864286Y-46035714D01*
X129673810Y-45988095D01*
X129530952Y-45988095D01*
X129340476Y-46035714D01*
X129245238Y-46083333D01*
X129150000Y-46178571D01*
X129102381Y-46321429D01*
X129102381Y-46416667D01*
X129150000Y-46559524D01*
X129197619Y-46607143D01*
X130102381Y-47559524D02*
X130102381Y-46988095D01*
X130102381Y-47273809D02*
X129102381Y-47273809D01*
X129245238Y-47178571D01*
X129340476Y-47083333D01*
X129388095Y-46988095D01*
X129102381Y-48178571D02*
X129102381Y-48273810D01*
X129150000Y-48369048D01*
X129197619Y-48416667D01*
X129292857Y-48464286D01*
X129483333Y-48511905D01*
X129721429Y-48511905D01*
X129911905Y-48464286D01*
X130007143Y-48416667D01*
X130054762Y-48369048D01*
X130102381Y-48273810D01*
X130102381Y-48178571D01*
X130054762Y-48083333D01*
X130007143Y-48035714D01*
X129911905Y-47988095D01*
X129721429Y-47940476D01*
X129483333Y-47940476D01*
X129292857Y-47988095D01*
X129197619Y-48035714D01*
X129150000Y-48083333D01*
X129102381Y-48178571D01*
X178142857Y-38857143D02*
X178190476Y-38904762D01*
X178333333Y-38952381D01*
X178428571Y-38952381D01*
X178571429Y-38904762D01*
X178666667Y-38809524D01*
X178714286Y-38714286D01*
X178761905Y-38523810D01*
X178761905Y-38380952D01*
X178714286Y-38190476D01*
X178666667Y-38095238D01*
X178571429Y-38000000D01*
X178428571Y-37952381D01*
X178333333Y-37952381D01*
X178190476Y-38000000D01*
X178142857Y-38047619D01*
X177190476Y-38952381D02*
X177761905Y-38952381D01*
X177476191Y-38952381D02*
X177476191Y-37952381D01*
X177571429Y-38095238D01*
X177666667Y-38190476D01*
X177761905Y-38238095D01*
X176238095Y-38952381D02*
X176809524Y-38952381D01*
X176523810Y-38952381D02*
X176523810Y-37952381D01*
X176619048Y-38095238D01*
X176714286Y-38190476D01*
X176809524Y-38238095D01*
X170642857Y-35857143D02*
X170690476Y-35904762D01*
X170833333Y-35952381D01*
X170928571Y-35952381D01*
X171071429Y-35904762D01*
X171166667Y-35809524D01*
X171214286Y-35714286D01*
X171261905Y-35523810D01*
X171261905Y-35380952D01*
X171214286Y-35190476D01*
X171166667Y-35095238D01*
X171071429Y-35000000D01*
X170928571Y-34952381D01*
X170833333Y-34952381D01*
X170690476Y-35000000D01*
X170642857Y-35047619D01*
X169690476Y-35952381D02*
X170261905Y-35952381D01*
X169976191Y-35952381D02*
X169976191Y-34952381D01*
X170071429Y-35095238D01*
X170166667Y-35190476D01*
X170261905Y-35238095D01*
X169309524Y-35047619D02*
X169261905Y-35000000D01*
X169166667Y-34952381D01*
X168928571Y-34952381D01*
X168833333Y-35000000D01*
X168785714Y-35047619D01*
X168738095Y-35142857D01*
X168738095Y-35238095D01*
X168785714Y-35380952D01*
X169357143Y-35952381D01*
X168738095Y-35952381D01*
X184107143Y-43357143D02*
X184154762Y-43309524D01*
X184202381Y-43166667D01*
X184202381Y-43071429D01*
X184154762Y-42928571D01*
X184059524Y-42833333D01*
X183964286Y-42785714D01*
X183773810Y-42738095D01*
X183630952Y-42738095D01*
X183440476Y-42785714D01*
X183345238Y-42833333D01*
X183250000Y-42928571D01*
X183202381Y-43071429D01*
X183202381Y-43166667D01*
X183250000Y-43309524D01*
X183297619Y-43357143D01*
X184202381Y-44309524D02*
X184202381Y-43738095D01*
X184202381Y-44023809D02*
X183202381Y-44023809D01*
X183345238Y-43928571D01*
X183440476Y-43833333D01*
X183488095Y-43738095D01*
X183202381Y-44642857D02*
X183202381Y-45261905D01*
X183583333Y-44928571D01*
X183583333Y-45071429D01*
X183630952Y-45166667D01*
X183678571Y-45214286D01*
X183773810Y-45261905D01*
X184011905Y-45261905D01*
X184107143Y-45214286D01*
X184154762Y-45166667D01*
X184202381Y-45071429D01*
X184202381Y-44785714D01*
X184154762Y-44690476D01*
X184107143Y-44642857D01*
X126257143Y-46607143D02*
X126304762Y-46559524D01*
X126352381Y-46416667D01*
X126352381Y-46321429D01*
X126304762Y-46178571D01*
X126209524Y-46083333D01*
X126114286Y-46035714D01*
X125923810Y-45988095D01*
X125780952Y-45988095D01*
X125590476Y-46035714D01*
X125495238Y-46083333D01*
X125400000Y-46178571D01*
X125352381Y-46321429D01*
X125352381Y-46416667D01*
X125400000Y-46559524D01*
X125447619Y-46607143D01*
X126352381Y-47559524D02*
X126352381Y-46988095D01*
X126352381Y-47273809D02*
X125352381Y-47273809D01*
X125495238Y-47178571D01*
X125590476Y-47083333D01*
X125638095Y-46988095D01*
X125685714Y-48416667D02*
X126352381Y-48416667D01*
X125304762Y-48178571D02*
X126019048Y-47940476D01*
X126019048Y-48559524D01*
X179119047Y-38157143D02*
X179166666Y-38204762D01*
X179309523Y-38252381D01*
X179404761Y-38252381D01*
X179547619Y-38204762D01*
X179642857Y-38109524D01*
X179690476Y-38014286D01*
X179738095Y-37823810D01*
X179738095Y-37680952D01*
X179690476Y-37490476D01*
X179642857Y-37395238D01*
X179547619Y-37300000D01*
X179404761Y-37252381D01*
X179309523Y-37252381D01*
X179166666Y-37300000D01*
X179119047Y-37347619D01*
X178690476Y-38252381D02*
X178690476Y-37252381D01*
X178690476Y-37728571D02*
X178119047Y-37728571D01*
X178119047Y-38252381D02*
X178119047Y-37252381D01*
X177738095Y-37252381D02*
X177119047Y-37252381D01*
X177452381Y-37633333D01*
X177309523Y-37633333D01*
X177214285Y-37680952D01*
X177166666Y-37728571D01*
X177119047Y-37823810D01*
X177119047Y-38061905D01*
X177166666Y-38157143D01*
X177214285Y-38204762D01*
X177309523Y-38252381D01*
X177595238Y-38252381D01*
X177690476Y-38204762D01*
X177738095Y-38157143D01*
X176261904Y-37585714D02*
X176261904Y-38252381D01*
X176500000Y-37204762D02*
X176738095Y-37919048D01*
X176119047Y-37919048D01*
X175547619Y-37252381D02*
X175452380Y-37252381D01*
X175357142Y-37300000D01*
X175309523Y-37347619D01*
X175261904Y-37442857D01*
X175214285Y-37633333D01*
X175214285Y-37871429D01*
X175261904Y-38061905D01*
X175309523Y-38157143D01*
X175357142Y-38204762D01*
X175452380Y-38252381D01*
X175547619Y-38252381D01*
X175642857Y-38204762D01*
X175690476Y-38157143D01*
X175738095Y-38061905D01*
X175785714Y-37871429D01*
X175785714Y-37633333D01*
X175738095Y-37442857D01*
X175690476Y-37347619D01*
X175642857Y-37300000D01*
X175547619Y-37252381D01*
X174261904Y-37300000D02*
X174357142Y-37252381D01*
X174499999Y-37252381D01*
X174642857Y-37300000D01*
X174738095Y-37395238D01*
X174785714Y-37490476D01*
X174833333Y-37680952D01*
X174833333Y-37823810D01*
X174785714Y-38014286D01*
X174738095Y-38109524D01*
X174642857Y-38204762D01*
X174499999Y-38252381D01*
X174404761Y-38252381D01*
X174261904Y-38204762D01*
X174214285Y-38157143D01*
X174214285Y-37823810D01*
X174404761Y-37823810D01*
X173261904Y-38252381D02*
X173833333Y-38252381D01*
X173547619Y-38252381D02*
X173547619Y-37252381D01*
X173642857Y-37395238D01*
X173738095Y-37490476D01*
X173833333Y-37538095D01*
X184152381Y-42761905D02*
X183152381Y-42761905D01*
X183152381Y-43000000D01*
X183200000Y-43142858D01*
X183295238Y-43238096D01*
X183390476Y-43285715D01*
X183580952Y-43333334D01*
X183723810Y-43333334D01*
X183914286Y-43285715D01*
X184009524Y-43238096D01*
X184104762Y-43142858D01*
X184152381Y-43000000D01*
X184152381Y-42761905D01*
X184152381Y-44285715D02*
X184152381Y-43714286D01*
X184152381Y-44000000D02*
X183152381Y-44000000D01*
X183295238Y-43904762D01*
X183390476Y-43809524D01*
X183438095Y-43714286D01*
X126852381Y-43016667D02*
X127566667Y-43016667D01*
X127709524Y-42969047D01*
X127804762Y-42873809D01*
X127852381Y-42730952D01*
X127852381Y-42635714D01*
X126947619Y-43445238D02*
X126900000Y-43492857D01*
X126852381Y-43588095D01*
X126852381Y-43826191D01*
X126900000Y-43921429D01*
X126947619Y-43969048D01*
X127042857Y-44016667D01*
X127138095Y-44016667D01*
X127280952Y-43969048D01*
X127852381Y-43397619D01*
X127852381Y-44016667D01*
X138547619Y-42602381D02*
X138547619Y-41602381D01*
X138166666Y-41602381D01*
X138071428Y-41650000D01*
X138023809Y-41697619D01*
X137976190Y-41792857D01*
X137976190Y-41935714D01*
X138023809Y-42030952D01*
X138071428Y-42078571D01*
X138166666Y-42126190D01*
X138547619Y-42126190D01*
X136976190Y-42602381D02*
X137309524Y-42126190D01*
X137547619Y-42602381D02*
X137547619Y-41602381D01*
X137166666Y-41602381D01*
X137071428Y-41650000D01*
X137023809Y-41697619D01*
X136976190Y-41792857D01*
X136976190Y-41935714D01*
X137023809Y-42030952D01*
X137071428Y-42078571D01*
X137166666Y-42126190D01*
X137547619Y-42126190D01*
X136023809Y-41650000D02*
X136119047Y-41602381D01*
X136261904Y-41602381D01*
X136404762Y-41650000D01*
X136500000Y-41745238D01*
X136547619Y-41840476D01*
X136595238Y-42030952D01*
X136595238Y-42173810D01*
X136547619Y-42364286D01*
X136500000Y-42459524D01*
X136404762Y-42554762D01*
X136261904Y-42602381D01*
X136166666Y-42602381D01*
X136023809Y-42554762D01*
X135976190Y-42507143D01*
X135976190Y-42173810D01*
X136166666Y-42173810D01*
X134976190Y-42602381D02*
X135309524Y-42126190D01*
X135547619Y-42602381D02*
X135547619Y-41602381D01*
X135166666Y-41602381D01*
X135071428Y-41650000D01*
X135023809Y-41697619D01*
X134976190Y-41792857D01*
X134976190Y-41935714D01*
X135023809Y-42030952D01*
X135071428Y-42078571D01*
X135166666Y-42126190D01*
X135547619Y-42126190D01*
X134547619Y-42602381D02*
X134547619Y-41602381D01*
X134214285Y-42316667D01*
X133880952Y-41602381D01*
X133880952Y-42602381D01*
X133404762Y-42507143D02*
X133357143Y-42554762D01*
X133404762Y-42602381D01*
X133452381Y-42554762D01*
X133404762Y-42507143D01*
X133404762Y-42602381D01*
X133404762Y-42221429D02*
X133452381Y-41650000D01*
X133404762Y-41602381D01*
X133357143Y-41650000D01*
X133404762Y-42221429D01*
X133404762Y-41602381D01*
X132404762Y-42602381D02*
X132976191Y-42602381D01*
X132690477Y-42602381D02*
X132690477Y-41602381D01*
X132785715Y-41745238D01*
X132880953Y-41840476D01*
X132976191Y-41888095D01*
X173666666Y-52602381D02*
X174000000Y-52126190D01*
X174238095Y-52602381D02*
X174238095Y-51602381D01*
X173857142Y-51602381D01*
X173761904Y-51650000D01*
X173714285Y-51697619D01*
X173666666Y-51792857D01*
X173666666Y-51935714D01*
X173714285Y-52030952D01*
X173761904Y-52078571D01*
X173857142Y-52126190D01*
X174238095Y-52126190D01*
X172809523Y-51935714D02*
X172809523Y-52602381D01*
X173047619Y-51554762D02*
X173285714Y-52269048D01*
X172666666Y-52269048D01*
X154802381Y-36833334D02*
X154326190Y-36500000D01*
X154802381Y-36261905D02*
X153802381Y-36261905D01*
X153802381Y-36642858D01*
X153850000Y-36738096D01*
X153897619Y-36785715D01*
X153992857Y-36833334D01*
X154135714Y-36833334D01*
X154230952Y-36785715D01*
X154278571Y-36738096D01*
X154326190Y-36642858D01*
X154326190Y-36261905D01*
X153802381Y-37166667D02*
X153802381Y-37833334D01*
X154802381Y-37404762D01*
X104666666Y-35302381D02*
X105000000Y-34826190D01*
X105238095Y-35302381D02*
X105238095Y-34302381D01*
X104857142Y-34302381D01*
X104761904Y-34350000D01*
X104714285Y-34397619D01*
X104666666Y-34492857D01*
X104666666Y-34635714D01*
X104714285Y-34730952D01*
X104761904Y-34778571D01*
X104857142Y-34826190D01*
X105238095Y-34826190D01*
X104190476Y-35302381D02*
X104000000Y-35302381D01*
X103904761Y-35254762D01*
X103857142Y-35207143D01*
X103761904Y-35064286D01*
X103714285Y-34873810D01*
X103714285Y-34492857D01*
X103761904Y-34397619D01*
X103809523Y-34350000D01*
X103904761Y-34302381D01*
X104095238Y-34302381D01*
X104190476Y-34350000D01*
X104238095Y-34397619D01*
X104285714Y-34492857D01*
X104285714Y-34730952D01*
X104238095Y-34826190D01*
X104190476Y-34873810D01*
X104095238Y-34921429D01*
X103904761Y-34921429D01*
X103809523Y-34873810D01*
X103761904Y-34826190D01*
X103714285Y-34730952D01*
X102142857Y-50352381D02*
X102476191Y-49876190D01*
X102714286Y-50352381D02*
X102714286Y-49352381D01*
X102333333Y-49352381D01*
X102238095Y-49400000D01*
X102190476Y-49447619D01*
X102142857Y-49542857D01*
X102142857Y-49685714D01*
X102190476Y-49780952D01*
X102238095Y-49828571D01*
X102333333Y-49876190D01*
X102714286Y-49876190D01*
X101190476Y-50352381D02*
X101761905Y-50352381D01*
X101476191Y-50352381D02*
X101476191Y-49352381D01*
X101571429Y-49495238D01*
X101666667Y-49590476D01*
X101761905Y-49638095D01*
X100333333Y-49685714D02*
X100333333Y-50352381D01*
X100571429Y-49304762D02*
X100809524Y-50019048D01*
X100190476Y-50019048D01*
X164101041Y-36357323D02*
X163624850Y-36023989D01*
X164101041Y-35785894D02*
X163101041Y-35785894D01*
X163101041Y-36166847D01*
X163148660Y-36262085D01*
X163196279Y-36309704D01*
X163291517Y-36357323D01*
X163434374Y-36357323D01*
X163529612Y-36309704D01*
X163577231Y-36262085D01*
X163624850Y-36166847D01*
X163624850Y-35785894D01*
X164101041Y-37309704D02*
X164101041Y-36738275D01*
X164101041Y-37023989D02*
X163101041Y-37023989D01*
X163243898Y-36928751D01*
X163339136Y-36833513D01*
X163386755Y-36738275D01*
X163529612Y-37881132D02*
X163481993Y-37785894D01*
X163434374Y-37738275D01*
X163339136Y-37690656D01*
X163291517Y-37690656D01*
X163196279Y-37738275D01*
X163148660Y-37785894D01*
X163101041Y-37881132D01*
X163101041Y-38071609D01*
X163148660Y-38166847D01*
X163196279Y-38214466D01*
X163291517Y-38262085D01*
X163339136Y-38262085D01*
X163434374Y-38214466D01*
X163481993Y-38166847D01*
X163529612Y-38071609D01*
X163529612Y-37881132D01*
X163577231Y-37785894D01*
X163624850Y-37738275D01*
X163720089Y-37690656D01*
X163910565Y-37690656D01*
X164005803Y-37738275D01*
X164053422Y-37785894D01*
X164101041Y-37881132D01*
X164101041Y-38071609D01*
X164053422Y-38166847D01*
X164005803Y-38214466D01*
X163910565Y-38262085D01*
X163720089Y-38262085D01*
X163624850Y-38214466D01*
X163577231Y-38166847D01*
X163529612Y-38071609D01*
X166100021Y-36357323D02*
X165623830Y-36023989D01*
X166100021Y-35785894D02*
X165100021Y-35785894D01*
X165100021Y-36166847D01*
X165147640Y-36262085D01*
X165195259Y-36309704D01*
X165290497Y-36357323D01*
X165433354Y-36357323D01*
X165528592Y-36309704D01*
X165576211Y-36262085D01*
X165623830Y-36166847D01*
X165623830Y-35785894D01*
X166100021Y-37309704D02*
X166100021Y-36738275D01*
X166100021Y-37023989D02*
X165100021Y-37023989D01*
X165242878Y-36928751D01*
X165338116Y-36833513D01*
X165385735Y-36738275D01*
X166100021Y-37785894D02*
X166100021Y-37976370D01*
X166052402Y-38071609D01*
X166004783Y-38119228D01*
X165861926Y-38214466D01*
X165671450Y-38262085D01*
X165290497Y-38262085D01*
X165195259Y-38214466D01*
X165147640Y-38166847D01*
X165100021Y-38071609D01*
X165100021Y-37881132D01*
X165147640Y-37785894D01*
X165195259Y-37738275D01*
X165290497Y-37690656D01*
X165528592Y-37690656D01*
X165623830Y-37738275D01*
X165671450Y-37785894D01*
X165719069Y-37881132D01*
X165719069Y-38071609D01*
X165671450Y-38166847D01*
X165623830Y-38214466D01*
X165528592Y-38262085D01*
X168102381Y-36357143D02*
X167626190Y-36023809D01*
X168102381Y-35785714D02*
X167102381Y-35785714D01*
X167102381Y-36166667D01*
X167150000Y-36261905D01*
X167197619Y-36309524D01*
X167292857Y-36357143D01*
X167435714Y-36357143D01*
X167530952Y-36309524D01*
X167578571Y-36261905D01*
X167626190Y-36166667D01*
X167626190Y-35785714D01*
X167197619Y-36738095D02*
X167150000Y-36785714D01*
X167102381Y-36880952D01*
X167102381Y-37119048D01*
X167150000Y-37214286D01*
X167197619Y-37261905D01*
X167292857Y-37309524D01*
X167388095Y-37309524D01*
X167530952Y-37261905D01*
X168102381Y-36690476D01*
X168102381Y-37309524D01*
X167102381Y-37928571D02*
X167102381Y-38023810D01*
X167150000Y-38119048D01*
X167197619Y-38166667D01*
X167292857Y-38214286D01*
X167483333Y-38261905D01*
X167721429Y-38261905D01*
X167911905Y-38214286D01*
X168007143Y-38166667D01*
X168054762Y-38119048D01*
X168102381Y-38023810D01*
X168102381Y-37928571D01*
X168054762Y-37833333D01*
X168007143Y-37785714D01*
X167911905Y-37738095D01*
X167721429Y-37690476D01*
X167483333Y-37690476D01*
X167292857Y-37738095D01*
X167197619Y-37785714D01*
X167150000Y-37833333D01*
X167102381Y-37928571D01*
X156802381Y-36357143D02*
X156326190Y-36023809D01*
X156802381Y-35785714D02*
X155802381Y-35785714D01*
X155802381Y-36166667D01*
X155850000Y-36261905D01*
X155897619Y-36309524D01*
X155992857Y-36357143D01*
X156135714Y-36357143D01*
X156230952Y-36309524D01*
X156278571Y-36261905D01*
X156326190Y-36166667D01*
X156326190Y-35785714D01*
X155897619Y-36738095D02*
X155850000Y-36785714D01*
X155802381Y-36880952D01*
X155802381Y-37119048D01*
X155850000Y-37214286D01*
X155897619Y-37261905D01*
X155992857Y-37309524D01*
X156088095Y-37309524D01*
X156230952Y-37261905D01*
X156802381Y-36690476D01*
X156802381Y-37309524D01*
X155802381Y-38166667D02*
X155802381Y-37976190D01*
X155850000Y-37880952D01*
X155897619Y-37833333D01*
X156040476Y-37738095D01*
X156230952Y-37690476D01*
X156611905Y-37690476D01*
X156707143Y-37738095D01*
X156754762Y-37785714D01*
X156802381Y-37880952D01*
X156802381Y-38071429D01*
X156754762Y-38166667D01*
X156707143Y-38214286D01*
X156611905Y-38261905D01*
X156373810Y-38261905D01*
X156278571Y-38214286D01*
X156230952Y-38166667D01*
X156183333Y-38071429D01*
X156183333Y-37880952D01*
X156230952Y-37785714D01*
X156278571Y-37738095D01*
X156373810Y-37690476D01*
X152802381Y-36357143D02*
X152326190Y-36023809D01*
X152802381Y-35785714D02*
X151802381Y-35785714D01*
X151802381Y-36166667D01*
X151850000Y-36261905D01*
X151897619Y-36309524D01*
X151992857Y-36357143D01*
X152135714Y-36357143D01*
X152230952Y-36309524D01*
X152278571Y-36261905D01*
X152326190Y-36166667D01*
X152326190Y-35785714D01*
X151897619Y-36738095D02*
X151850000Y-36785714D01*
X151802381Y-36880952D01*
X151802381Y-37119048D01*
X151850000Y-37214286D01*
X151897619Y-37261905D01*
X151992857Y-37309524D01*
X152088095Y-37309524D01*
X152230952Y-37261905D01*
X152802381Y-36690476D01*
X152802381Y-37309524D01*
X151802381Y-37642857D02*
X151802381Y-38309524D01*
X152802381Y-37880952D01*
X157202381Y-43238095D02*
X158011905Y-43238095D01*
X158107143Y-43285714D01*
X158154762Y-43333333D01*
X158202381Y-43428571D01*
X158202381Y-43619048D01*
X158154762Y-43714286D01*
X158107143Y-43761905D01*
X158011905Y-43809524D01*
X157202381Y-43809524D01*
X157202381Y-44761905D02*
X157202381Y-44285714D01*
X157678571Y-44238095D01*
X157630952Y-44285714D01*
X157583333Y-44380952D01*
X157583333Y-44619048D01*
X157630952Y-44714286D01*
X157678571Y-44761905D01*
X157773810Y-44809524D01*
X158011905Y-44809524D01*
X158107143Y-44761905D01*
X158154762Y-44714286D01*
X158202381Y-44619048D01*
X158202381Y-44380952D01*
X158154762Y-44285714D01*
X158107143Y-44238095D01*
M02*
