%TF.GenerationSoftware,KiCad,Pcbnew,4.0.7*%
%TF.CreationDate,2018-01-21T21:44:21+02:00*%
%TF.ProjectId,OilMeteo_V2.0,4F696C4D6574656F5F56322E302E6B69,rev?*%
%TF.FileFunction,Paste,Bot*%
%FSLAX46Y46*%
G04 Gerber Fmt 4.6, Leading zero omitted, Abs format (unit mm)*
G04 Created by KiCad (PCBNEW 4.0.7) date 01/21/18 21:44:21*
%MOMM*%
%LPD*%
G01*
G04 APERTURE LIST*
%ADD10C,0.150000*%
%ADD11R,1.000000X1.250000*%
%ADD12R,2.500000X3.750000*%
%ADD13R,1.250000X1.000000*%
%ADD14R,1.300000X0.800000*%
%ADD15R,1.600000X1.000000*%
%ADD16R,1.200000X0.700000*%
%ADD17R,1.200000X1.000000*%
%ADD18R,0.800000X1.000000*%
%ADD19R,2.800000X1.000000*%
%ADD20R,1.900000X1.300000*%
%ADD21R,0.700000X1.300000*%
%ADD22R,1.300000X0.700000*%
%ADD23R,0.600000X1.500000*%
G04 APERTURE END LIST*
D10*
X100000000Y-35000000D02*
X193000000Y-35000000D01*
X99000000Y-52000000D02*
X99000000Y-36000000D01*
X193000000Y-53000000D02*
X100000000Y-53000000D01*
X194000000Y-36000000D02*
X194000000Y-52000000D01*
X194000000Y-36000000D02*
G75*
G03X193000000Y-35000000I-1000000J0D01*
G01*
X193000000Y-53000000D02*
G75*
G03X194000000Y-52000000I0J1000000D01*
G01*
X99000000Y-52000000D02*
G75*
G03X100000000Y-53000000I1000000J0D01*
G01*
X100000000Y-35000000D02*
G75*
G03X99000000Y-36000000I0J-1000000D01*
G01*
X104236068Y-44000000D02*
G75*
G03X104236068Y-44000000I-2236068J0D01*
G01*
X193236068Y-44000000D02*
G75*
G03X193236068Y-44000000I-2236068J0D01*
G01*
D11*
X148500000Y-46250000D03*
X150500000Y-46250000D03*
X169000000Y-51000000D03*
X171000000Y-51000000D03*
X178000000Y-51000000D03*
X176000000Y-51000000D03*
D12*
X141000000Y-44125000D03*
X141000000Y-50375000D03*
X137000000Y-44125000D03*
X137000000Y-50375000D03*
X133000000Y-44125000D03*
X133000000Y-50375000D03*
D11*
X176500000Y-37000000D03*
X178500000Y-37000000D03*
X171000000Y-37000000D03*
X169000000Y-37000000D03*
D13*
X182250000Y-45000000D03*
X182250000Y-43000000D03*
D12*
X129250000Y-44125000D03*
X129250000Y-50375000D03*
D14*
X179650000Y-39550000D03*
X179650000Y-40830000D03*
X179650000Y-42090000D03*
X179650000Y-43360000D03*
X179650000Y-44640000D03*
X179650000Y-45910000D03*
X179650000Y-47170000D03*
X179650000Y-48450000D03*
X173350000Y-48450000D03*
X173350000Y-47170000D03*
X173350000Y-45910000D03*
X173350000Y-44640000D03*
X173350000Y-43360000D03*
X173350000Y-42090000D03*
X173350000Y-40830000D03*
X173350000Y-39550000D03*
D15*
X185500000Y-42000000D03*
X185500000Y-45000000D03*
D16*
X125600000Y-49150000D03*
X125600000Y-48200000D03*
X125600000Y-40500000D03*
X125600000Y-41600000D03*
X125600000Y-42700000D03*
X125600000Y-43800000D03*
X125600000Y-44900000D03*
X125600000Y-46000000D03*
X125600000Y-47100000D03*
D17*
X125600000Y-38950000D03*
X121300000Y-50100000D03*
D18*
X115100000Y-50100000D03*
D19*
X110950000Y-50100000D03*
D20*
X110500000Y-36600000D03*
D21*
X134550000Y-40500000D03*
X136450000Y-40500000D03*
X172550000Y-50500000D03*
X174450000Y-50500000D03*
D22*
X156000000Y-36050000D03*
X156000000Y-37950000D03*
D21*
X105450000Y-36500000D03*
X103550000Y-36500000D03*
X100550000Y-48250000D03*
X102450000Y-48250000D03*
D22*
X161998660Y-37950180D03*
X161998660Y-36050180D03*
X163997640Y-37950180D03*
X163997640Y-36050180D03*
X166000000Y-37950000D03*
X166000000Y-36050000D03*
X158000000Y-36050000D03*
X158000000Y-37950000D03*
X154000000Y-36050000D03*
X154000000Y-37950000D03*
D23*
X159555000Y-39350000D03*
X160825000Y-39350000D03*
X162095000Y-39350000D03*
X163365000Y-39350000D03*
X164635000Y-39350000D03*
X165905000Y-39350000D03*
X167175000Y-39350000D03*
X168445000Y-39350000D03*
X168445000Y-48650000D03*
X167175000Y-48650000D03*
X165905000Y-48650000D03*
X164635000Y-48650000D03*
X163365000Y-48650000D03*
X162095000Y-48650000D03*
X160825000Y-48650000D03*
X159555000Y-48650000D03*
M02*
