%TF.GenerationSoftware,KiCad,Pcbnew,4.0.7*%
%TF.CreationDate,2018-01-21T21:44:21+02:00*%
%TF.ProjectId,OilMeteo_V2.0,4F696C4D6574656F5F56322E302E6B69,rev?*%
%TF.FileFunction,Paste,Top*%
%FSLAX46Y46*%
G04 Gerber Fmt 4.6, Leading zero omitted, Abs format (unit mm)*
G04 Created by KiCad (PCBNEW 4.0.7) date 01/21/18 21:44:21*
%MOMM*%
%LPD*%
G01*
G04 APERTURE LIST*
%ADD10C,0.150000*%
%ADD11R,1.250000X1.000000*%
%ADD12R,2.500000X2.550000*%
%ADD13R,1.000000X1.250000*%
%ADD14R,1.000000X1.600000*%
%ADD15R,1.300000X0.450000*%
%ADD16R,1.200000X1.200000*%
%ADD17R,1.300000X0.700000*%
%ADD18R,0.700000X1.300000*%
%ADD19R,2.000000X1.600000*%
%ADD20R,0.550000X1.600000*%
%ADD21R,1.600000X0.550000*%
%ADD22R,3.800000X2.000000*%
%ADD23R,1.500000X2.000000*%
%ADD24R,1.450000X0.450000*%
%ADD25R,0.600000X1.550000*%
G04 APERTURE END LIST*
D10*
X100000000Y-35000000D02*
X193000000Y-35000000D01*
X99000000Y-52000000D02*
X99000000Y-36000000D01*
X193000000Y-53000000D02*
X100000000Y-53000000D01*
X194000000Y-36000000D02*
X194000000Y-52000000D01*
X194000000Y-36000000D02*
G75*
G03X193000000Y-35000000I-1000000J0D01*
G01*
X193000000Y-53000000D02*
G75*
G03X194000000Y-52000000I0J1000000D01*
G01*
X99000000Y-52000000D02*
G75*
G03X100000000Y-53000000I1000000J0D01*
G01*
X100000000Y-35000000D02*
G75*
G03X99000000Y-36000000I0J-1000000D01*
G01*
X104236068Y-44000000D02*
G75*
G03X104236068Y-44000000I-2236068J0D01*
G01*
X193236068Y-44000000D02*
G75*
G03X193236068Y-44000000I-2236068J0D01*
G01*
D11*
X138500000Y-49250000D03*
X138500000Y-51250000D03*
D12*
X141000000Y-45975000D03*
X141000000Y-51025000D03*
D13*
X138750000Y-47250000D03*
X136750000Y-47250000D03*
D11*
X191000000Y-48500000D03*
X191000000Y-50500000D03*
D13*
X158500000Y-43000000D03*
X160500000Y-43000000D03*
X131250000Y-45500000D03*
X129250000Y-45500000D03*
X138750000Y-45500000D03*
X136750000Y-45500000D03*
X160500000Y-46500000D03*
X158500000Y-46500000D03*
D14*
X162500000Y-51000000D03*
X165500000Y-51000000D03*
D15*
X182100000Y-45300000D03*
X182100000Y-44650000D03*
X182100000Y-44000000D03*
X182100000Y-43350000D03*
X182100000Y-42700000D03*
D16*
X109100000Y-39500000D03*
X106900000Y-39500000D03*
X109100000Y-44000000D03*
X106900000Y-44000000D03*
D17*
X116357400Y-45532000D03*
X116357400Y-47432000D03*
D18*
X157200000Y-43500000D03*
X155300000Y-43500000D03*
X157200000Y-41500000D03*
X155300000Y-41500000D03*
X110550000Y-44000000D03*
X112450000Y-44000000D03*
D17*
X154000000Y-36050000D03*
X154000000Y-37950000D03*
D18*
X110550000Y-39500000D03*
X112450000Y-39500000D03*
X123950000Y-47000000D03*
X122050000Y-47000000D03*
D17*
X114500000Y-47450000D03*
X114500000Y-45550000D03*
D18*
X119050000Y-43000000D03*
X120950000Y-43000000D03*
X119050000Y-45000000D03*
X120950000Y-45000000D03*
X142050000Y-37000000D03*
X143950000Y-37000000D03*
D17*
X123000000Y-38050000D03*
X123000000Y-39950000D03*
D18*
X124550000Y-36500000D03*
X126450000Y-36500000D03*
X167550000Y-42000000D03*
X169450000Y-42000000D03*
X167550000Y-45500000D03*
X169450000Y-45500000D03*
X167550000Y-43750000D03*
X169450000Y-43750000D03*
D17*
X156000000Y-36050000D03*
X156000000Y-37950000D03*
X158000000Y-36050000D03*
X158000000Y-37950000D03*
X167250000Y-49800000D03*
X167250000Y-51700000D03*
D16*
X109100000Y-48000000D03*
X106900000Y-48000000D03*
D19*
X117700000Y-50000000D03*
X112300000Y-50000000D03*
D20*
X152300000Y-39750000D03*
X151500000Y-39750000D03*
X150700000Y-39750000D03*
X149900000Y-39750000D03*
X149100000Y-39750000D03*
X148300000Y-39750000D03*
X147500000Y-39750000D03*
X146700000Y-39750000D03*
D21*
X145250000Y-41200000D03*
X145250000Y-42000000D03*
X145250000Y-42800000D03*
X145250000Y-43600000D03*
X145250000Y-44400000D03*
X145250000Y-45200000D03*
X145250000Y-46000000D03*
X145250000Y-46800000D03*
D20*
X146700000Y-48250000D03*
X147500000Y-48250000D03*
X148300000Y-48250000D03*
X149100000Y-48250000D03*
X149900000Y-48250000D03*
X150700000Y-48250000D03*
X151500000Y-48250000D03*
X152300000Y-48250000D03*
D21*
X153750000Y-46800000D03*
X153750000Y-46000000D03*
X153750000Y-45200000D03*
X153750000Y-44400000D03*
X153750000Y-43600000D03*
X153750000Y-42800000D03*
X153750000Y-42000000D03*
X153750000Y-41200000D03*
D22*
X139000000Y-36850000D03*
D23*
X139000000Y-43150000D03*
X141300000Y-43150000D03*
X136700000Y-43150000D03*
D24*
X114550000Y-37050000D03*
X114550000Y-37700000D03*
X114550000Y-38350000D03*
X114550000Y-39000000D03*
X114550000Y-39650000D03*
X114550000Y-40300000D03*
X114550000Y-40950000D03*
X120450000Y-40950000D03*
X120450000Y-40300000D03*
X120450000Y-39650000D03*
X120450000Y-39000000D03*
X120450000Y-38350000D03*
X120450000Y-37700000D03*
X120450000Y-37050000D03*
D22*
X131500000Y-36850000D03*
D23*
X131500000Y-43150000D03*
X133800000Y-43150000D03*
X129200000Y-43150000D03*
D25*
X165905000Y-41300000D03*
X164635000Y-41300000D03*
X163365000Y-41300000D03*
X162095000Y-41300000D03*
X162095000Y-46700000D03*
X163365000Y-46700000D03*
X164635000Y-46700000D03*
X165905000Y-46700000D03*
M02*
