%TF.GenerationSoftware,KiCad,Pcbnew,4.0.7*%
%TF.CreationDate,2018-01-21T21:49:26+02:00*%
%TF.ProjectId,OilMeteo_V2.0,4F696C4D6574656F5F56322E302E6B69,rev?*%
%TF.FileFunction,Drawing*%
%FSLAX46Y46*%
G04 Gerber Fmt 4.6, Leading zero omitted, Abs format (unit mm)*
G04 Created by KiCad (PCBNEW 4.0.7) date 01/21/18 21:49:26*
%MOMM*%
%LPD*%
G01*
G04 APERTURE LIST*
%ADD10C,0.100000*%
%ADD11C,0.080000*%
G04 APERTURE END LIST*
D10*
X120600000Y-47450000D02*
X119700000Y-48700000D01*
X120600000Y-48150000D02*
X120200000Y-48700000D01*
X120600000Y-46050000D02*
X119000000Y-48275000D01*
X119200000Y-48700000D02*
X120600000Y-46750000D01*
X118700000Y-49400000D02*
X119200000Y-48700000D01*
X119200000Y-49400000D02*
X119300000Y-49250000D01*
X118200000Y-49400000D02*
X118700000Y-48700000D01*
X117700000Y-49400000D02*
X118200000Y-48700000D01*
X117200000Y-49400000D02*
X117700000Y-48700000D01*
X116700000Y-49400000D02*
X117200000Y-48700000D01*
X116200000Y-49400000D02*
X116700000Y-48700000D01*
X115700000Y-49400000D02*
X116200000Y-48700000D01*
X115200000Y-49400000D02*
X115700000Y-48700000D01*
X114700000Y-49400000D02*
X115200000Y-48700000D01*
X114200000Y-49400000D02*
X114700000Y-48700000D01*
X113700000Y-49400000D02*
X114200000Y-48700000D01*
X113200000Y-49400000D02*
X113700000Y-48700000D01*
X112700000Y-49400000D02*
X113200000Y-48700000D01*
X112200000Y-49400000D02*
X112700000Y-48700000D01*
X111700000Y-49400000D02*
X112200000Y-48700000D01*
X117650000Y-49750000D02*
X117150000Y-50500000D01*
X118150000Y-49750000D02*
X117650000Y-50500000D01*
X118650000Y-49750000D02*
X118150000Y-50500000D01*
X119150000Y-49750000D02*
X118650000Y-50500000D01*
X119650000Y-49750000D02*
X119150000Y-50500000D01*
X120150000Y-49750000D02*
X119650000Y-50500000D01*
X120650000Y-49750000D02*
X120150000Y-50500000D01*
X121150000Y-49750000D02*
X120650000Y-50500000D01*
X121650000Y-49750000D02*
X121150000Y-50500000D01*
X122150000Y-49750000D02*
X121650000Y-50500000D01*
X122650000Y-49750000D02*
X122150000Y-50500000D01*
X123150000Y-49750000D02*
X122650000Y-50500000D01*
X123650000Y-49750000D02*
X123150000Y-50500000D01*
X124150000Y-49750000D02*
X123650000Y-50500000D01*
X124650000Y-49750000D02*
X124150000Y-50500000D01*
X125150000Y-49750000D02*
X124650000Y-50500000D01*
X110900000Y-39800000D02*
X110000000Y-40350000D01*
X110900000Y-39300000D02*
X109550000Y-40100000D01*
X110900000Y-38800000D02*
X109550000Y-39600000D01*
X110900000Y-38300000D02*
X109550000Y-39100000D01*
X110900000Y-37800000D02*
X109550000Y-38600000D01*
X117100000Y-50500000D02*
X125150000Y-50500000D01*
X117100000Y-49750000D02*
X117100000Y-50500000D01*
X125150000Y-49750000D02*
X117100000Y-49750000D01*
X125150000Y-50500000D02*
X125150000Y-49750000D01*
X111700000Y-49400000D02*
X119300000Y-49400000D01*
X111700000Y-48700000D02*
X111700000Y-49400000D01*
X120600000Y-48700000D02*
X111700000Y-48700000D01*
X119300000Y-49400000D02*
X119300000Y-48700000D01*
X109550000Y-40350000D02*
X110900000Y-40350000D01*
X109550000Y-37800000D02*
X109550000Y-40350000D01*
X110900000Y-37800000D02*
X109550000Y-37800000D01*
X110900000Y-40350000D02*
X110900000Y-37800000D01*
X119000000Y-40000000D02*
X119000000Y-48700000D01*
X120600000Y-40000000D02*
X119000000Y-40000000D01*
X120600000Y-48700000D02*
X120600000Y-40000000D01*
X120600000Y-45350000D02*
X119000000Y-47575000D01*
X120600000Y-44650000D02*
X119000000Y-46875000D01*
X120600000Y-43950000D02*
X119000000Y-46175000D01*
X120600000Y-43250000D02*
X119000000Y-45475000D01*
X120600000Y-42550000D02*
X119000000Y-44775000D01*
X120600000Y-41850000D02*
X119000000Y-44075000D01*
X120600000Y-41150000D02*
X119000000Y-43375000D01*
X120600000Y-40450000D02*
X119000000Y-42675000D01*
X120400000Y-40000000D02*
X119000000Y-41975000D01*
X119900000Y-40000000D02*
X119000000Y-41275000D01*
X119400000Y-40000000D02*
X119000000Y-40575000D01*
D11*
X187976190Y-45714285D02*
X187476190Y-45714285D01*
X187476190Y-45523809D01*
X187500000Y-45476190D01*
X187523810Y-45452381D01*
X187571429Y-45428571D01*
X187642857Y-45428571D01*
X187690476Y-45452381D01*
X187714286Y-45476190D01*
X187738095Y-45523809D01*
X187738095Y-45714285D01*
X187928571Y-44928571D02*
X187952381Y-44952381D01*
X187976190Y-45023809D01*
X187976190Y-45071428D01*
X187952381Y-45142857D01*
X187904762Y-45190476D01*
X187857143Y-45214285D01*
X187761905Y-45238095D01*
X187690476Y-45238095D01*
X187595238Y-45214285D01*
X187547619Y-45190476D01*
X187500000Y-45142857D01*
X187476190Y-45071428D01*
X187476190Y-45023809D01*
X187500000Y-44952381D01*
X187523810Y-44928571D01*
X187714286Y-44547619D02*
X187738095Y-44476190D01*
X187761905Y-44452381D01*
X187809524Y-44428571D01*
X187880952Y-44428571D01*
X187928571Y-44452381D01*
X187952381Y-44476190D01*
X187976190Y-44523809D01*
X187976190Y-44714285D01*
X187476190Y-44714285D01*
X187476190Y-44547619D01*
X187500000Y-44500000D01*
X187523810Y-44476190D01*
X187571429Y-44452381D01*
X187619048Y-44452381D01*
X187666667Y-44476190D01*
X187690476Y-44500000D01*
X187714286Y-44547619D01*
X187714286Y-44714285D01*
X187714286Y-43833333D02*
X187714286Y-43666667D01*
X187976190Y-43595238D02*
X187976190Y-43833333D01*
X187476190Y-43833333D01*
X187476190Y-43595238D01*
X187976190Y-43166667D02*
X187476190Y-43166667D01*
X187952381Y-43166667D02*
X187976190Y-43214286D01*
X187976190Y-43309524D01*
X187952381Y-43357143D01*
X187928571Y-43380952D01*
X187880952Y-43404762D01*
X187738095Y-43404762D01*
X187690476Y-43380952D01*
X187666667Y-43357143D01*
X187642857Y-43309524D01*
X187642857Y-43214286D01*
X187666667Y-43166667D01*
X187642857Y-42714286D02*
X188047619Y-42714286D01*
X188095238Y-42738095D01*
X188119048Y-42761905D01*
X188142857Y-42809524D01*
X188142857Y-42880952D01*
X188119048Y-42928571D01*
X187952381Y-42714286D02*
X187976190Y-42761905D01*
X187976190Y-42857143D01*
X187952381Y-42904762D01*
X187928571Y-42928571D01*
X187880952Y-42952381D01*
X187738095Y-42952381D01*
X187690476Y-42928571D01*
X187666667Y-42904762D01*
X187642857Y-42857143D01*
X187642857Y-42761905D01*
X187666667Y-42714286D01*
X187952381Y-42285714D02*
X187976190Y-42333333D01*
X187976190Y-42428571D01*
X187952381Y-42476190D01*
X187904762Y-42500000D01*
X187714286Y-42500000D01*
X187666667Y-42476190D01*
X187642857Y-42428571D01*
X187642857Y-42333333D01*
X187666667Y-42285714D01*
X187714286Y-42261905D01*
X187761905Y-42261905D01*
X187809524Y-42500000D01*
M02*
